<svg xmlns="http://www.w3.org/2000/svg" xmlns:xlink="http://www.w3.org/1999/xlink" width="512" height="512" viewBox="0 0 512 512">
  <defs>
    <clipPath id="clip-user_2">
      <rect width="512" height="512"/>
    </clipPath>
  </defs>
  <g id="user_2" data-name="user 2" clip-path="url(#clip-user_2)">
    <path id="user_1_" data-name="user (1)" d="M512,256C512,114.846,397.154,0,256,0S0,114.846,0,256A255.353,255.353,0,0,0,83.093,444.584l-.242.214,8.3,7c.54.456,1.126.829,1.666,1.275,4.413,3.658,8.983,7.131,13.638,10.491,1.508,1.089,3.016,2.178,4.552,3.24q7.457,5.139,15.286,9.756c1.136.67,2.281,1.322,3.426,1.974,5.706,3.249,11.534,6.312,17.5,9.123.438.2.884.391,1.322.6a253.7,253.7,0,0,0,61.915,19.6c.568.1,1.136.2,1.713.307,6.74,1.164,13.554,2.095,20.452,2.718.838.074,1.676.121,2.523.2,6.87.568,13.815.931,20.852.931,6.973,0,13.852-.363,20.685-.912.866-.074,1.732-.121,2.6-.2q10.263-.936,20.275-2.672c.577-.1,1.164-.2,1.741-.316a253.685,253.685,0,0,0,61.04-19.13c.708-.326,1.424-.633,2.132-.968q8.616-4.05,16.859-8.713,2.053-1.159,4.087-2.355c5.008-2.951,9.933-6.032,14.718-9.309,1.722-1.173,3.407-2.411,5.111-3.64,4.087-2.942,8.1-5.976,12-9.151.866-.7,1.8-1.3,2.644-2.02l8.518-7.112-.251-.214A255.337,255.337,0,0,0,512,256ZM18.618,256C18.618,125.1,125.1,18.618,256,18.618S493.382,125.1,493.382,256a236.794,236.794,0,0,1-79.956,177.459,69.765,69.765,0,0,0-8.313-5l-78.82-39.405A20.634,20.634,0,0,1,314.824,370.5V342.975c1.825-2.253,3.752-4.8,5.744-7.606a189.7,189.7,0,0,0,24.353-47.69,33.785,33.785,0,0,0,19.409-30.618v-33a33.87,33.87,0,0,0-8.257-22.053V158.562c.484-4.841,2.2-32.1-17.529-54.589-17.157-19.586-44.926-29.5-82.544-29.5s-65.387,9.914-82.544,29.491c-19.726,22.491-18.013,49.766-17.529,54.589V202a33.92,33.92,0,0,0-8.257,22.053v33a33.863,33.863,0,0,0,12.474,26.261c7.54,29.538,23.059,51.9,28.793,59.476v26.94a20.765,20.765,0,0,1-10.817,18.227l-73.607,40.15a67.274,67.274,0,0,0-7,4.431A236.812,236.812,0,0,1,18.618,256Z" fill="#0394e9"/>
  </g>
</svg>
