<?xml version="1.0" encoding="utf-8"?>
<!-- Generator: Adobe Illustrator 22.0.1, SVG Export Plug-In . SVG Version: 6.00 Build 0)  -->
<svg version="1.1" id="Layer_1" xmlns="http://www.w3.org/2000/svg" xmlns:xlink="http://www.w3.org/1999/xlink" x="0px" y="0px"
	 viewBox="0 0 116 103.3" style="enable-background:new 0 0 116 103.3;" xml:space="preserve">
<style type="text/css">
	.st0{fill:#1E2537;}
	.st1{fill:#FFFFFF;}
	.st2{fill:#FFBE03;}
</style>
<g>
	<g>
		<path class="st0" d="M115.9,13.8c-0.2-1.6-1-3.2-2.2-4.3c-0.6-0.6-1.3-1-2-1.4c-0.4-0.2-0.8-0.3-1.2-0.4c-0.4-0.1-0.7-0.1-1-0.2
			c-5.4-1.1-10.8-2.2-16-3.5c-2.7-0.4-5.8-1.2-8.3-1.8C83.9,2,82.5,1.8,81,1.5c-1.9-0.4-4-0.8-6-1.3c-1.1-0.3-2.4-0.3-3.6,0.1
			c-1.1,0.3-2.2,0.9-2.9,1.7c-0.8,0.8-1.3,1.8-1.6,2.8c-0.1,0.2-0.1,0.5-0.2,0.7l-0.2,0.6c-0.1,0.4-0.2,0.8-0.3,1.2
			c-0.3,1.4-0.6,2.9-0.9,4.4c-1,4.9-1.8,8.8-2.7,12.7c-0.3,1.9-0.9,4.6-1.4,6.9c-0.7,2.9-1.4,5.9-2,8.9c-0.1,0.7-0.2,1.4-0.3,2.1
			c-0.6,3-1.5,7-2.1,9.3c-0.4,1.8-0.7,3.6-1.1,5.4c-0.2,0.8-0.4,1.6-0.6,2.3c-0.4,2-0.8,4.2-1.2,6.2c-0.8,3.4-1.6,7.3-2.3,11
			c-0.2,0.8,0.1,0.3-0.1,1.1c-0.6,2-1.2,4.4-1.7,6.8c-0.2,0.9-0.4,1.9-0.6,2.9c-0.3,1-0.2,2.3,0.1,3.4c0.6,2.2,2.5,4,4.7,4.6
			c1.8,0.4,3.6,1,5.2,1.1c5.2,1.4,13.1,3,18.9,4.1c1.6,0.1,4.7,0.9,6.1,0.9c1.9,0.4,3.6,0.7,4.6,0.7l1.1,0.2c0,0,0,0,0.1,0
			c0,0,0,0-0.1,0c-0.1,0.1,0.2,0.4,0.8,0.6c0.6,0.3,1.4,0.4,2.2,0.2c0.9-0.1,2-0.7,2.9-1.5c0.9-0.8,1.6-1.9,2-2.6
			c0.4-1.1,0.5-1.9,0.7-2.8c0.2-0.9,0.4-1.7,0.5-2.6c0.4-1.8,0.7-3.5,1.1-5.3c0.8-3.5,1.5-7,2.2-10.3c0.9-4,1.9-8.3,2.8-12.6
			c0.3-1.2,0.5-2.5,0.7-3.8c0.9-4,1.8-7.7,2.3-10.6c0.3-2.1,0.9-4.1,1.4-6.4c0.6-2.9,1.1-5.9,1.7-8.7c1.1-3.7,2.1-9.6,3.2-14.1
			c0.3-1.3,0.6-2.5,0.9-3.8c0.1-0.6,0.3-1.3,0.4-1.9C116,15.4,116,14.6,115.9,13.8z"/>
		<g>
			
				<rect x="64" y="11.5" transform="matrix(0.9775 0.2109 -0.2109 0.9775 11.8862 -16.4806)" class="st1" width="38.4" height="72"/>
			<path class="st0" d="M87.6,12.2c6.3,1.3,13.2,2.8,18.2,3.9c1.1,0.2,2.1,0.4,3.2,0.6l-0.1,0.4c-0.4,1.6-0.8,3.3-1.2,5
				c-0.4,1.8-0.8,3.6-1.1,5.3c-0.1,0.4-0.1,0.9-0.2,1.3c-0.5,2.8-1.4,6-2,8.9c-0.4,2.1-0.9,3.9-1.3,5.9c-0.3,1.6-0.5,2.8-0.7,4.2
				c-0.8,4.1-1.7,8-2.5,11.7c-0.6,2.7-1.2,5.7-1.8,8.4c-0.3,1.2-0.5,2.5-0.8,3.5c-0.1,0.4-0.3,0.9-0.4,1.3c-0.3,1.1-0.6,2.8-1,4.5
				c-0.5,2.2-1.1,4-1.3,5.2c-0.2,1.4-0.3,4.1,0,4.3c0.2,0.2,1.1-0.9,1.4-1.9c0.4-1.1,0.8-3.2,1.2-4.2c1.1-5.5,2.4-11.3,3.5-16.5
				c0.7-3.2,1.5-6.6,2.3-10.1c0.2-1,0.4-2,0.6-3c0.7-3.2,1.5-6.1,1.8-8.4c0.3-1.7,0.7-3.3,1.1-5.1c0.5-2.3,0.9-4.7,1.3-7
				c0.9-2.9,1.7-7.7,2.5-11.2c0.1-0.4,0.2-0.9,0.3-1.3c0.2-0.8,0.4-1.7,0.6-2.5c-1.3-0.3-2.6-0.6-4-0.9c-0.9-0.2-1.9-0.4-2.8-0.6
				c-1.9-0.4-3.8-0.8-5.7-1.2c-3.8-0.8-7.7-1.6-11.4-2.5c-2.2-0.3-4.7-1-6.6-1.4c-1.1-0.2-2.1-0.4-3.3-0.6c-0.8-0.2-1.6-0.3-2.4-0.5
				c-1.2-0.3-2.4-0.5-3.5-0.8c-0.3,1.1-0.5,2.3-0.8,3.4c-0.2,0.8-0.3,1.5-0.5,2.2c-0.1,0.7-0.2,1.4-0.4,2.2c-0.1,0.7-0.4,1.3-0.5,2
				c-0.2,1.1-0.4,2.3-0.7,3.5c-0.8,3.9-1.4,7-2.2,10.1c-0.2,1.5-0.7,3.7-1.1,5.5c-0.5,2.3-1.1,4.7-1.6,7.1c-0.1,0.5-0.1,1.1-0.2,1.7
				c-0.5,2.4-1.2,5.5-1.6,7.4c-0.3,1.4-0.5,2.9-0.8,4.3c-0.1,0.6-0.3,1.2-0.5,1.8c-0.4,1.6-0.6,3.4-1,5c-0.6,2.7-1.2,5.8-1.9,8.8
				c-0.2,0.6,0.1,0.2,0,0.9c-0.2,0.8-0.5,1.7-0.7,2.6c-0.1,0.5-0.2,0.9-0.4,1.4c-0.2,0.7-0.3,1.3-0.5,2c0,0.2-0.1,0.4-0.1,0.6
				c1,0.2,2,0.4,3,0.7c0.8,0.1,1.5,0.3,2.3,0.4c1.5,0.3,3.1,0.6,4.6,0.9c1.4,0.3,2.9,0.8,4.1,0.9c4.2,1.2,10.5,2.4,15,3.2
				c1.3,0.1,3.8,0.6,4.9,0.6c3.5,0.8,6.1,0.7,3.9-0.4c-1.5-0.5-2.3-0.8-3.9-1.2c-1.7-0.4-3.5-0.6-5.2-0.9c-0.8-0.2-1.7-0.5-2.5-0.6
				c-1.3-0.3-2.9-0.5-4.3-0.8c-0.7-0.1-1.4-0.4-2-0.5c-0.6-0.1-1.2-0.2-1.8-0.3c-0.8-0.2-1.5-0.4-2.3-0.6c-0.5-0.1-1.1-0.2-1.7-0.3
				c-2-0.4-4.2-1-6.3-1.4c-1-0.2-2.1-0.5-3-0.7c-0.5-0.1-1-0.2-1.4-0.3c-0.2,0-0.5-0.1-0.7-0.1l-0.3,0l-0.1,0c0-0.1,0-0.1,0-0.1
				c0,0,0,0,0-0.1l0,0l0,0l0-0.2c0.1-0.5,0.2-1,0.3-1.4c0.4-1.7,0.9-3.5,1.3-5.1c0.1-0.5,0.1-1,0.2-1.5c0.1-0.7,0.4-1.3,0.5-2
				c0.1-0.7,0.2-1.4,0.3-2c0.2-1.4,0.6-2.9,0.9-4.5c0.8-4.2,1.6-8.4,2.6-12.9c0.3-1.2,0.6-2.4,0.9-3.6c0.5-2.2,0.8-4.1,1.2-6.1
				c0.4-2,1-4.1,1.4-6.1c0.1-0.5,0.2-1.1,0.3-1.7c0.3-1.2,0.6-2.2,0.8-3.3c0.5-2.3,0.8-4.6,1.4-6.8c0-1,0.4-2,0.5-3.2
				c0.4-1.3,0.8-2.9,1.1-4.4c0.3-1.5,0.7-3.4,0.7-3.8c0.1,0,0.2,0,0.3,0c0.1,0,0.2,0.1,0.4,0.1c0.2,0.1,0.5,0.1,0.7,0.2
				c0.5,0.1,1,0.2,1.5,0.3c1.1,0.2,2.1,0.4,3.1,0.6C81.3,11,84.4,11.5,87.6,12.2z"/>
		</g>
		<g>
			<path class="st1" d="M80.7,93.7l-14.2-3.1c-1.5-0.3-2.4-1.8-2.1-3.3v0c0.3-1.5,1.8-2.4,3.3-2.1l14.2,3.1c1.5,0.3,2.4,1.8,2.1,3.3
				v0C83.6,93.1,82.1,94,80.7,93.7z"/>
			<path class="st0" d="M70.8,86.6c1.3,0.2,2.8,0.6,3.8,0.8c0.3,0.1,0.6,0.1,0.9,0.2c0.7,0.2,1.5,0.5,2.2,0.6c0.1,0,0.2-0.1,0.3-0.1
				c0.6,0,1.2,0.4,1.9,0.4c0.5,0,0.8,0.2,1.2,0.3c0.3,0.1,0.6,0,0.8,0c0.7,0.1,1.3,0.8,1.5,1.4c0.2,0.4,0.2,1,0,1.5
				c-0.1,0.2-0.2,0.4-0.3,0.5c0,0.1-0.2,0-0.3,0.1c-0.2,0.1-0.3,0.3-0.6,0.4c-0.4,0.1-0.7,0-0.8,0.1c-0.1,0-0.2,0.2-0.4,0.4
				c-0.2,0.2-0.3,0.3-0.4,0.5c-0.1,0.2,0.1,0.9,0.4,1.1c0.4,0.2,1,0,1.3,0.1c0.8-0.3,1.6-0.8,2.1-1.5c0.5-0.7,0.8-1.6,0.8-2.4
				c0-1-0.4-2.1-1.1-2.9c-0.2-0.2-0.5-0.4-0.8-0.5c-0.4-0.3-0.9-0.5-1.3-0.5c-0.3-0.1-0.6-0.1-0.8-0.1c-0.4,0-0.7-0.2-1.1-0.2
				c-0.5-0.1-1-0.1-1.5-0.2c-0.6-0.4-1.6-0.4-2.3-0.6c-1.7-0.6-3.6-0.5-5.3-1.1c-0.5,0-1-0.2-1.4-0.3c-0.2-0.1-0.5,0-0.7,0
				c-0.3,0-0.7-0.1-1-0.2c-0.4-0.1-0.9-0.2-1.4-0.1c-0.2,0-0.4,0.2-0.6,0.3c-0.2,0.1-0.4,0.1-0.6,0.1c-0.3,0.1-0.6,0.4-0.8,0.6
				c-0.8,0.8-1.1,1.7-1.2,2.6c0.1,0.4,0.1,1,0.3,1.5c0.2,0.6,0.6,1.3,1.2,1.6c0.1,0.1,0.3,0.1,0.5,0.2c0.3,0.1,0.7,0.3,1,0.4
				c0.3,0.1,0.5,0.2,0.7,0.2c0.3,0.1,0.6,0,0.9,0.1c0.1,0,0.2,0.1,0.4,0.2c0.3,0.1,0.7,0,1.1,0.1c0.6,0.2,1.2,0.3,1.8,0.4
				c0.1,0.1,0.1-0.2,0.2-0.1c0.3,0.2,0.7,0.4,1.1,0.5c0.6,0.2,1.3,0.2,2,0.3c0.3,0.1,0.6,0.3,0.9,0.2c0.8,0.5,2.2,0.6,3.2,0.7
				c0.3-0.2,0.8,0,1.1-0.2c0.7,0.2,1.4-0.3,1-1c-0.3-0.2-0.4-0.4-0.8-0.5c-0.4-0.1-0.8,0-1.1,0c-0.2,0-0.3-0.2-0.5-0.2
				c-0.3-0.1-0.6,0-0.9-0.1c-0.1,0-0.3-0.1-0.4-0.2c-0.1,0-0.3,0.1-0.4,0c-0.2,0-0.3-0.1-0.5-0.2c-0.1,0-0.2,0-0.4,0
				c-0.9-0.2-1.8-0.7-2.5-0.5c-0.2-0.3-0.5-0.2-0.8-0.2c-0.4-0.1-0.7-0.3-1-0.4c-0.1,0-0.2,0.1-0.3,0c-0.1,0-0.3-0.1-0.4-0.2
				c-0.1,0-0.3,0-0.4,0c-0.3,0-0.6-0.1-0.9-0.2c-0.9-0.1-1.9-0.2-2.7-0.4c-0.2-0.1-0.3-0.2-0.4-0.3c-0.2-0.2-0.5-0.3-0.7-0.5
				c-0.2-0.2-0.2-0.6-0.2-0.8c0-0.1-0.1-0.2-0.1-0.2c0-0.2,0.1-0.3,0.2-0.5c0.1-0.3,0.1-0.7,0.5-0.8c0-0.3,0.2-0.2,0.3-0.4
				c0.5,0,1-0.2,1.5-0.2c0.3,0.1,0.8,0.2,1.3,0.2C69.5,86.5,70.1,86.4,70.8,86.6z"/>
		</g>
	</g>
	<g>
		<g>
			<path class="st2" d="M70.2,60.7H30.1c-2.3,0-4.1-1.8-4.1-4.1V34.2c0-2.3,1.8-4.1,4.1-4.1h40.2c2.3,0,4.1,1.8,4.1,4.1v22.4
				C74.3,58.9,72.5,60.7,70.2,60.7z"/>
			<path class="st0" d="M41,30.6c4.4-0.1,9.2,0,12.7,0c1,0,2-0.1,3,0c2.4,0.1,5,0.2,7.4,0.1c0.3,0,0.6-0.1,0.9-0.1c1,0,2,0,3.1,0
				c0.5,0,1.1,0,1.6,0c0.6,0,1,0,1.4,0.1c1.3,0.3,2.1,1.3,2.4,2.4c0.1,0.5,0.2,0.8,0.2,1.3c0,0.5,0.1,0.9,0.1,1.4
				c0.1,2.8,0,5.6,0,8.2c0,1.9,0,4,0,5.9c0,0.8,0,1.7,0,2.4c0,0.3-0.1,0.6-0.2,0.9c-0.1,0.8,0,2,0,3.1c0,1.4-0.9,2.2-1.4,2.6
				c-0.3,0.3-0.7,0.7-1.1,1c-0.5,0.3-0.9,0.5-1,0.7c0,0.1,0.2,0.3,0.5,0.5c0.3,0.2,0.9,0.2,1.3,0.1c0.5-0.1,1.2-0.4,1.7-0.9
				c0.5-0.5,1-1,1.3-1.4c0.3-0.6,0.5-1.2,0.5-1.8c0.1-0.7,0-1.1,0-1.6c0-1,0-2,0-2.9c0-2,0-3.9,0-5.7c0-2.3,0-4.7,0.1-7.1
				c0-0.7-0.1-1.4-0.1-2.1c0-1.1,0-2.2,0.1-3.2c0-0.4,0-1.2-0.1-1.7c-0.1-0.6-0.4-1.1-0.7-1.5c-0.8-1.2-2-2.3-3.7-2.5
				c-0.3,0-0.5-0.1-0.8-0.1l-0.6,0c-0.4,0-0.8,0-1.2,0.1c-0.8,0-1.6,0.1-2.4,0.1c-2.1-0.3-5.4,0-7.9-0.1c-5.7-0.2-11.8,0.2-17.7,0
				c-1.5,0.1-3.3,0-4.6,0c-0.7,0-1.5,0.1-2.3,0.1c-1.1,0-2.2,0-3.3,0c-1.4-0.1-2.8,0.5-3.7,1.4c-0.5,0.5-0.7,1-1,1.6
				c-0.2,0.5-0.5,1.1-0.5,1.6c0,0.5,0,0.9,0,1.3c0,0.4,0,0.8,0,1.2c0.1,2.7,0.1,4.9,0,7.1c0.1,1,0.1,2.6,0.1,3.8c0,1.6-0.1,3.3,0,5
				c0,0.4,0.1,0.8,0.1,1.2c0,0.8,0,1.8,0,2.7c0,0.2,0,0.5,0,0.7c0,0.3,0,0.5,0.1,0.8c0.1,0.5,0.2,1,0.4,1.3c0.5,1.1,1.5,1.9,2.6,2.4
				c0.5,0.2,1,0.4,1.5,0.4c0.2,0,0.3,0,0.5,0l0.4,0c0.3,0,0.6,0,0.9,0c0.6,0,1.2-0.1,1.7-0.1c1.9,0,4.1,0,6.1,0
				c0.4,0,0.1-0.2,0.6-0.2c1.2,0.1,2.5,0.2,3.8,0.3c2.1,0.1,4.4-0.1,6.6-0.1c1,0,2,0.2,2.9,0c2.9,0.3,7.3,0.1,10.5,0
				c0.9-0.2,2.6-0.2,3.4-0.4c2.5,0.1,4.1-0.6,2.5-1.2c-1-0.1-1.6-0.3-2.8-0.3c-1.2,0-2.4,0.2-3.6,0.2c-0.6,0-1.2-0.1-1.7-0.1
				c-0.9,0-2,0.1-3,0.1c-0.5,0-1-0.1-1.4-0.1c-0.4,0-0.8,0.1-1.3,0.1c-0.5,0-1-0.1-1.6-0.1c-0.4,0-0.8,0.1-1.2,0.1
				c-2.8,0-6-0.3-8.4,0c-0.8-0.3-1.8-0.1-2.7-0.1c-1.2,0-2.5-0.2-3.6-0.2c-0.4,0-0.7,0.1-1,0.1c-0.5,0-0.9-0.1-1.4-0.1
				c-0.5,0-0.9,0.1-1.4,0.1c-1,0.1-2,0-3.1,0l-1.1,0c-0.2,0-0.3,0-0.5,0c-0.1,0-0.3,0-0.4,0c-0.5-0.1-1.1-0.3-1.5-0.7
				c-0.4-0.4-0.8-0.9-0.9-1.4c-0.1-0.3-0.1-0.6-0.1-0.9c0-0.4,0-0.8,0-1.2c0-0.9,0.1-1.7,0.1-2.5c0-1.5-0.1-2.8-0.2-4.3
				c0-1.4,0.1-2.9,0-4.3c0-0.4-0.1-0.8-0.1-1.2c0-0.8,0.1-1.5,0.1-2.3c0-1.6-0.2-3.2-0.1-4.7c-0.2-0.6,0-1.4-0.2-2.1
				c0.2-0.8,0.6-1.7,1.4-2.3c0.4-0.3,0.8-0.5,1.2-0.7c0.4-0.2,0.8-0.2,1.3-0.3c1.1,0.1,2.8,0,4.2,0C36.6,30.8,38.8,30.7,41,30.6z"/>
		</g>
		<g>
			<rect x="59.2" y="34.2" class="st1" width="10.3" height="5.1"/>
			<path class="st0" d="M61.4,34.7c0.9,0,1.9,0,2.6,0c0.2,0,0.4,0,0.6,0c0.5,0,1,0.1,1.5,0.1c0.1,0,0.1-0.1,0.2-0.1
				c0.4-0.1,0.9,0.1,1.3,0c0.3,0,0.6,0,0.9,0c0.2,0,0.3-0.1,0.4-0.1c0.1,0,0.2,0,0.4,0c0,0.1,0,0.3,0,0.4c0,0.1,0,0.3,0,0.5
				c0,0.4,0,0.8,0,1.2c0,0.2,0,0.4,0,0.5c0,0.1-0.1,0.1-0.1,0.2c0,0.2,0,0.4,0,0.6c0,0.3-0.2,0.6-0.1,0.8c0,0.2,0.4,0.6,0.7,0.6
				c0.2,0,0.6-0.2,0.7-0.3c0.1-0.2,0.1-0.5,0.2-0.6c-0.1-0.8-0.1-1.6-0.1-2.4c0-0.7,0-1.4,0.1-2.1c0-0.2,0-0.4-0.1-0.6
				c-0.1,0-0.1,0-0.2,0c-0.4,0-0.9,0-1.3,0c-0.2,0-0.4,0-0.5,0c-0.1,0-0.2,0-0.3,0c-0.2,0.1-0.5,0-0.7,0c-0.3,0-0.7,0.1-1,0.1
				c-0.4-0.2-1.1,0-1.6-0.1c-1.2-0.2-2.4,0.2-3.6,0c-0.3,0.1-0.7,0-0.9,0c-0.1,0-0.1,0-0.3,0c-0.1,0-0.3,0-0.4,0.1
				c-0.4,0-0.8,0-1.3,0c0,0.4,0,0.8,0,1.2c0,0.2,0.1,0.4,0.1,0.6c0,0.1-0.1,0.2-0.1,0.3c0,0.2,0,0.3,0.1,0.5c0.1,0.6,0.1,1,0,1.4
				c0.1,0.2,0.1,0.5,0.1,0.8c0,0.2,0,0.5,0,0.8c0,0.3,0,0.6,0,0.9c0,0.1,0,0.1,0,0.1c0.1,0,0.2,0,0.3,0c0.3,0,0.6,0,0.9,0
				c0.2,0,0.3,0,0.4,0c0.1,0,0.2,0,0.2,0c0.2,0,0.4-0.1,0.6-0.1c0.1,0,0.2,0.1,0.3,0.1c0.2,0,0.5-0.1,0.7-0.1c0.4,0,0.8,0,1.3,0
				c0.1,0,0-0.1,0.1-0.1c0.2,0.1,0.5,0.2,0.8,0.2c0.4,0.1,0.9-0.1,1.3-0.1c0.2,0,0.4,0.1,0.6,0c0.6,0.2,1.5,0.1,2.2,0
				c0.2-0.2,0.5-0.1,0.7-0.3c0.5,0,0.8-0.5,0.5-0.9c-0.2-0.1-0.3-0.3-0.6-0.3c-0.2,0-0.5,0.1-0.7,0.1c-0.1,0-0.2-0.1-0.4-0.1
				c-0.2,0-0.4,0.1-0.6,0.1c-0.1,0-0.2-0.1-0.3-0.1c-0.1,0-0.2,0.1-0.3,0.1c-0.1,0-0.2-0.1-0.3-0.1c-0.1,0-0.2,0.1-0.2,0.1
				c-0.6,0-1.2-0.2-1.7,0c-0.2-0.2-0.4-0.1-0.5-0.1c-0.2,0-0.5-0.1-0.7-0.1c-0.1,0-0.1,0.1-0.2,0.1c-0.1,0-0.2-0.1-0.3-0.1
				c-0.1,0-0.2,0.1-0.3,0.1c-0.2,0-0.4,0-0.6,0c-0.3,0-0.6,0.1-0.9,0.1c-0.2,0-0.3,0-0.5,0c-0.2,0-0.1,0-0.2,0c-0.1,0,0-0.1-0.1-0.1
				l0,0c0-0.1-0.1-0.1-0.1-0.1c0,0,0-0.2,0-0.3c0-0.1,0-0.3,0-0.4c0-0.1-0.1-0.2-0.1-0.2c0-0.2,0.1-0.3,0.1-0.5c0-0.3-0.1-0.6-0.1-1
				c-0.2-0.1,0-0.3-0.1-0.4c0-0.1,0.1-0.2,0.1-0.3c0,0,0-0.1,0-0.1c0-0.1-0.1-0.2-0.1-0.4l0,0c0.2,0,0.3,0,0.5,0
				C60.5,34.8,61,34.7,61.4,34.7z"/>
		</g>
		<path class="st0" d="M34.1,48.5c0.2,0,0.5,0.1,0.7,0.1c0.1,0,0.1,0,0.2,0c0.1,0.1,0.3,0.2,0.4,0.1c0,0,0-0.1,0.1-0.1
			c0.1-0.1,0.2,0.1,0.3,0.1c0.1,0,0.1,0.1,0.2,0.1c0.1,0,0.1-0.1,0.2-0.1c0.2-0.1,0.3,0,0.4,0.1c0.1,0,0.2,0,0.3,0
			c0,0,0.1,0,0.1,0.1c0,0,0,0.1,0,0.2c0,0.1,0.1,0,0.2,0.1c0.1,0.1,0.1,0.3,0.2,0.2c0.1-0.1,0.2-0.6,0.3-0.9c0-0.3,0.1-0.8,0-1
			c0-0.2-0.1-0.1-0.1-0.3c-0.2,0.1-0.4,0-0.6,0c-0.1,0-0.2-0.1-0.4-0.1c0,0-0.1,0.1-0.1,0.1c-0.1,0-0.2-0.2-0.3,0
			c-0.1,0.1-0.1,0-0.2,0c-0.1,0-0.2,0.1-0.3,0.1c-0.1-0.3-0.3-0.1-0.4-0.2c-0.3-0.2-0.7,0.2-1-0.1c-0.1,0.1-0.2,0-0.3,0
			c0,0-0.1,0.1-0.1,0.1c-0.1,0.1-0.2-0.1-0.4-0.1c0,0-0.1,0.1-0.1,0.1c0,0,0-0.1-0.1-0.1c0,0-0.1,0-0.1,0.1c-0.2,0-0.3,0.1-0.4,0
			c-0.1,0.1-0.2,0.1-0.2,0.1c-0.1,0-0.2-0.1-0.3-0.1c0,0-0.1,0.1-0.1,0.1c-0.1,0-0.2,0-0.3-0.1c-0.1,0-0.1,0.1-0.2,0.1
			c0,0,0-0.1-0.1-0.1c-0.1,0-0.1,0.1-0.2,0.1c-0.1-0.1-0.2,0-0.3,0c0,0,0,0.2-0.1,0.1c0-0.1-0.1-0.2-0.2-0.3
			c-0.1-0.1-0.3,0.1-0.4,0.1c-0.1,0-0.1-0.2-0.2,0c-0.1-0.3-0.4-0.2-0.6-0.1c-0.1,0.2-0.2,0.1-0.2,0.4c-0.1-0.1-0.3,0.6-0.3,1.2
			c0,0.1,0,0.3,0.1,0.4c0.1,0,0.2-0.2,0.2-0.2c0,0,0.1,0.1,0.1,0.1c0,0,0.1-0.1,0.2-0.1c0,0,0,0.1,0.1,0.1c0,0,0.1-0.1,0.1-0.1
			c0,0,0,0.1,0.1,0.1c0,0,0.1-0.1,0.1-0.1c0.2,0,0.3,0.3,0.5,0.1c0,0.3,0.1,0.1,0.1,0.1c0.1,0,0.1,0.2,0.2,0.2c0,0,0.1-0.1,0.1-0.1
			c0,0,0,0.1,0.1,0.1c0,0,0.1-0.1,0.1-0.1c0.1,0,0.1,0,0.2,0c0.2,0,0.3-0.2,0.5-0.1c0,0,0.1,0.1,0.1,0.1c0.1,0,0.2-0.1,0.3-0.1
			c0.1,0,0.1,0.1,0.2,0.1c0,0,0.1-0.1,0.1-0.1c0,0,0.1,0.1,0.1,0.1c0.1,0,0.2-0.2,0.3,0c0.1-0.2,0.1,0,0.1-0.2
			c0.1,0.2,0.2,0.2,0.4,0c0.1,0.1,0.1,0.1,0.2,0C33.8,48.7,34,48.5,34.1,48.5z"/>
		<path class="st0" d="M39.3,37.4c0.5,0,1.1,0.1,1.5,0.1c0.1,0,0.2,0,0.3,0c0.3,0.1,0.6,0.2,0.8,0.1c0,0,0.1-0.1,0.1-0.1
			c0.2-0.1,0.5,0.1,0.7,0.1c0.2,0,0.3,0.1,0.5,0.1c0.1,0,0.2-0.1,0.3-0.1c0.3-0.1,0.6,0,0.9,0.1c0.2,0,0.5,0,0.7,0
			c0.1,0,0.2,0,0.3,0.1c0,0,0.1,0.1,0.1,0.2c0.1,0.1,0.2,0,0.4,0.1c0.2,0.1,0.3,0.3,0.4,0.2c0.1-0.1,0.4-0.6,0.4-0.9
			c0-0.3,0-0.8-0.1-1c-0.1-0.2-0.3-0.1-0.3-0.3c-0.4,0.1-0.9,0-1.3,0c-0.3,0-0.5-0.1-0.8-0.1c-0.1,0-0.2,0.1-0.2,0.1
			c-0.3,0-0.5-0.2-0.7,0c-0.1,0.1-0.3,0-0.4,0c-0.2,0-0.4,0.1-0.6,0.1c-0.2-0.3-0.6-0.1-0.9-0.2c-0.6-0.3-1.4,0.2-2-0.1
			c-0.2,0.1-0.4,0-0.5,0c-0.1,0-0.2,0.1-0.3,0.1c-0.2,0.1-0.5-0.1-0.8-0.1c-0.1,0-0.1,0.1-0.2,0.1c-0.1,0-0.1-0.1-0.2-0.1
			c-0.1,0-0.2,0-0.3,0.1c-0.3,0-0.6,0.1-0.8,0c-0.1,0.1-0.3,0.1-0.4,0.1c-0.2,0-0.4-0.1-0.6-0.1c0,0-0.1,0.1-0.1,0.1
			c-0.2,0-0.4,0-0.6-0.1c-0.1,0-0.2,0.1-0.3,0.1c0,0-0.1-0.1-0.1-0.1c-0.1,0-0.3,0.1-0.4,0.1c-0.2-0.1-0.5,0-0.7,0
			c0,0,0,0.2-0.1,0.1c-0.1-0.1-0.3-0.2-0.4-0.3c-0.2-0.1-0.5,0.1-0.8,0.1c-0.1,0-0.2-0.2-0.3,0c-0.3-0.3-0.8-0.2-1.2-0.1
			c-0.1,0.2-0.3,0.1-0.4,0.4c-0.3-0.1-0.5,0.6-0.4,1.2c0.1,0.2,0.2,0.3,0.3,0.4c0.1,0,0.3-0.2,0.4-0.2c0.1,0,0.1,0.1,0.2,0.1
			c0.1,0,0.2-0.1,0.3-0.1c0.1,0,0.1,0.1,0.2,0.1c0.1,0,0.1-0.1,0.2-0.1c0.1,0,0.1,0.1,0.2,0.1c0,0,0.1-0.1,0.1-0.1
			c0.3,0,0.7,0.3,1,0.1c0.1,0.3,0.2,0.1,0.3,0.1c0.1,0,0.3,0.2,0.4,0.2c0,0,0.1-0.1,0.1-0.1c0.1,0,0.1,0.1,0.2,0.1
			c0.1,0,0.1-0.1,0.2-0.1c0.1,0,0.2,0,0.4,0c0.3,0,0.7-0.2,1-0.1c0.1,0,0.2,0.1,0.3,0.1c0.2,0,0.3-0.1,0.5-0.1
			c0.2,0,0.3,0.1,0.5,0.1c0,0,0.1-0.1,0.1-0.1c0.1,0,0.2,0.1,0.3,0.1c0.2,0,0.4-0.2,0.5,0c0.1-0.2,0.2,0,0.3-0.2
			c0.2,0.2,0.5,0.2,0.8,0c0.1,0.1,0.3,0.1,0.5,0C38.8,37.6,39,37.4,39.3,37.4z"/>
		<path class="st0" d="M37,54.3c0.4,0,0.8,0.1,1.1,0.1c0.1,0,0.2,0,0.3,0c0.2,0.1,0.4,0.2,0.6,0.1c0,0,0.1-0.1,0.1-0.1
			c0.2-0.1,0.4,0.1,0.5,0.1c0.1,0,0.2,0.1,0.4,0.1c0.1,0,0.2-0.1,0.3-0.1c0.3-0.1,0.5,0,0.7,0.1c0.2,0,0.4,0,0.5,0
			c0.1,0,0.2,0,0.2,0.1c0,0,0,0.1,0.1,0.2c0.1,0.1,0.2,0,0.3,0.1c0.1,0.1,0.2,0.3,0.3,0.2c0.1-0.1,0.3-0.6,0.3-0.9
			c0-0.3,0-0.8-0.1-1c-0.1-0.2-0.2-0.1-0.2-0.3c-0.3,0.1-0.7,0-1,0c-0.2,0-0.4-0.1-0.6-0.1c-0.1,0-0.1,0.1-0.2,0.1
			c-0.2,0-0.4-0.2-0.5,0c-0.1,0.1-0.2,0-0.3,0c-0.1,0-0.3,0.1-0.4,0.1c-0.2-0.3-0.5-0.1-0.7-0.2c-0.5-0.2-1.1,0.2-1.6-0.1
			c-0.1,0.1-0.3,0-0.4,0c-0.1,0-0.1,0.1-0.2,0.1c-0.2,0.1-0.4-0.1-0.6-0.1c0,0-0.1,0.1-0.1,0.1c0,0-0.1-0.1-0.1-0.1
			c-0.1,0-0.1,0-0.2,0.1c-0.2,0-0.4,0.1-0.6,0c-0.1,0.1-0.2,0.1-0.3,0.1c-0.1,0-0.3-0.1-0.4-0.1c0,0-0.1,0.1-0.1,0.1
			c-0.2,0-0.3,0-0.5-0.1c-0.1,0-0.2,0.1-0.3,0.1c0,0-0.1-0.1-0.1-0.1c-0.1,0-0.2,0.1-0.3,0.1c-0.2-0.1-0.4,0-0.5,0
			c0,0,0,0.2-0.1,0.1c-0.1-0.1-0.2-0.2-0.3-0.3c-0.2-0.1-0.4,0.1-0.6,0.1c-0.1,0-0.2-0.2-0.3,0c-0.2-0.3-0.6-0.2-0.9-0.1
			c-0.1,0.2-0.2,0.1-0.3,0.4c-0.2-0.1-0.4,0.6-0.3,1.2c0.1,0.2,0.1,0.3,0.2,0.4c0.1,0,0.2-0.2,0.3-0.2c0.1,0,0.1,0.1,0.1,0.1
			c0.1,0,0.2-0.1,0.3-0.1c0,0,0.1,0.1,0.1,0.1c0,0,0.1-0.1,0.1-0.1c0,0,0.1,0.1,0.1,0.1c0,0,0.1-0.1,0.1-0.1c0.3,0,0.5,0.3,0.7,0.1
			c0,0.3,0.2,0.1,0.2,0.1c0.1,0,0.2,0.2,0.3,0.2c0,0,0.1-0.1,0.1-0.1c0,0,0.1,0.1,0.1,0.1c0,0,0.1-0.1,0.1-0.1c0.1,0,0.2,0,0.3,0
			c0.3,0,0.5-0.2,0.8-0.1c0.1,0,0.1,0.1,0.2,0.1c0.1,0,0.3-0.1,0.4-0.1c0.1,0,0.2,0.1,0.4,0.1c0,0,0.1-0.1,0.1-0.1
			c0.1,0,0.1,0.1,0.2,0.1c0.1,0,0.3-0.2,0.4,0c0.1-0.2,0.1,0,0.2-0.2c0.2,0.2,0.4,0.2,0.6,0c0.1,0.1,0.2,0.1,0.4,0
			C36.6,54.5,36.8,54.3,37,54.3z"/>
		<path class="st0" d="M55,54.3c0.5,0,1.1,0.1,1.5,0.1c0.1,0,0.2,0,0.3,0c0.3,0.1,0.6,0.2,0.8,0.1c0,0,0.1-0.1,0.1-0.1
			c0.2-0.1,0.5,0.1,0.7,0.1c0.2,0,0.3,0.1,0.5,0.1c0.1,0,0.2-0.1,0.3-0.1c0.3-0.1,0.6,0,0.9,0.1c0.2,0,0.5,0,0.7,0
			c0.1,0,0.2,0,0.3,0.1c0,0,0.1,0.1,0.1,0.2c0.1,0.1,0.2,0,0.4,0.1c0.2,0.1,0.3,0.3,0.4,0.2c0.1-0.1,0.4-0.6,0.4-0.9
			c0-0.3,0-0.8-0.1-1c-0.1-0.2-0.3-0.1-0.3-0.3c-0.4,0.1-0.9,0-1.3,0c-0.3,0-0.5-0.1-0.8-0.1c-0.1,0-0.2,0.1-0.2,0.1
			c-0.3,0-0.5-0.2-0.7,0c-0.1,0.1-0.3,0-0.4,0c-0.2,0-0.4,0.1-0.6,0.1c-0.2-0.3-0.6-0.1-0.9-0.2c-0.6-0.3-1.4,0.2-2-0.1
			c-0.2,0.1-0.4,0-0.5,0c-0.1,0-0.2,0.1-0.3,0.1c-0.2,0.1-0.5-0.1-0.8-0.1c-0.1,0-0.1,0.1-0.2,0.1c-0.1,0-0.1-0.1-0.2-0.1
			c-0.1,0-0.2,0-0.3,0.1c-0.3,0.1-0.6,0.1-0.8,0c-0.1,0.1-0.3,0.1-0.4,0.1c-0.2,0-0.4-0.1-0.6-0.1c0,0-0.1,0.1-0.1,0.1
			c-0.2,0-0.4,0-0.6-0.1c-0.1,0-0.2,0.1-0.4,0.1c0,0-0.1-0.1-0.1-0.1c-0.1,0-0.3,0.1-0.4,0.1c-0.2-0.1-0.5,0-0.7,0
			c0,0,0,0.2-0.1,0.1c-0.1-0.1-0.3-0.2-0.4-0.3c-0.2-0.1-0.5,0.1-0.8,0.1c-0.1,0-0.2-0.2-0.3,0c-0.3-0.3-0.8-0.2-1.2-0.1
			c-0.1,0.2-0.3,0.1-0.4,0.4c-0.3-0.1-0.5,0.6-0.4,1.2c0.1,0.2,0.2,0.3,0.3,0.4c0.1,0,0.3-0.2,0.4-0.2c0.1,0,0.1,0.1,0.2,0.1
			c0.1,0,0.2-0.1,0.4-0.1c0.1,0,0.1,0.1,0.2,0.1c0.1,0,0.1-0.1,0.2-0.1c0.1,0,0.1,0.1,0.2,0.1c0,0,0.1-0.1,0.1-0.1
			c0.3,0,0.7,0.3,1,0.1c0.1,0.3,0.2,0.1,0.3,0.1c0.1,0,0.3,0.2,0.4,0.2c0,0,0.1-0.1,0.1-0.1c0.1,0,0.1,0.1,0.2,0.1
			c0.1,0,0.1-0.1,0.2-0.1c0.1,0,0.2,0,0.4,0c0.3,0,0.7-0.2,1-0.1c0.1,0,0.2,0.1,0.3,0.1c0.2,0,0.3-0.1,0.5-0.1
			c0.2,0,0.3,0.1,0.5,0.1c0,0,0.1-0.1,0.1-0.1c0.1,0,0.2,0.1,0.3,0.1c0.2,0,0.4-0.2,0.5,0c0.1-0.2,0.2,0,0.3-0.2
			c0.2,0.2,0.5,0.2,0.8,0c0.1,0.1,0.3,0.1,0.5,0C54.4,54.5,54.7,54.3,55,54.3z"/>
		<path class="st0" d="M45,48.5c0.2,0,0.5,0.1,0.7,0.1c0.1,0,0.1,0,0.2,0c0.1,0.1,0.3,0.2,0.4,0.1c0,0,0-0.1,0.1-0.1
			c0.1-0.1,0.2,0.1,0.3,0.1c0.1,0,0.1,0.1,0.2,0.1c0.1,0,0.1-0.1,0.2-0.1c0.2-0.1,0.3,0,0.4,0.1c0.1,0,0.2,0,0.3,0
			c0,0,0.1,0,0.1,0.1c0,0,0,0.1,0,0.2c0,0.1,0.1,0,0.2,0.1c0.1,0.1,0.1,0.3,0.2,0.2c0.1-0.1,0.2-0.6,0.3-0.9c0-0.3,0.1-0.8,0-1
			c0-0.2-0.1-0.1-0.1-0.3c-0.2,0.1-0.4,0-0.6,0c-0.1,0-0.2-0.1-0.4-0.1c0,0-0.1,0.1-0.1,0.1c-0.1,0-0.2-0.2-0.3,0
			c-0.1,0.1-0.1,0-0.2,0c-0.1,0-0.2,0.1-0.3,0.1c-0.1-0.3-0.3-0.1-0.4-0.2c-0.3-0.2-0.7,0.2-1-0.1c-0.1,0.1-0.2,0-0.3,0
			c0,0-0.1,0.1-0.1,0.1c-0.1,0.1-0.2-0.1-0.4-0.1c0,0-0.1,0.1-0.1,0.1c0,0,0-0.1-0.1-0.1c0,0-0.1,0-0.1,0.1c-0.2,0-0.3,0.1-0.4,0
			c-0.1,0.1-0.2,0.1-0.2,0.1c-0.1,0-0.2-0.1-0.3-0.1c0,0-0.1,0.1-0.1,0.1c-0.1,0-0.2,0-0.3-0.1c-0.1,0-0.1,0.1-0.2,0.1
			c0,0,0-0.1-0.1-0.1c-0.1,0-0.1,0.1-0.2,0.1c-0.1-0.1-0.2,0-0.3,0c0,0,0,0.2-0.1,0.1c0-0.1-0.1-0.2-0.2-0.3
			c-0.1-0.1-0.3,0.1-0.4,0.1c-0.1,0-0.1-0.2-0.2,0c-0.1-0.3-0.4-0.2-0.6-0.1c-0.1,0.2-0.2,0.1-0.2,0.4c-0.1-0.1-0.3,0.6-0.3,1.2
			c0,0.1,0,0.3,0.1,0.4c0.1,0,0.2-0.2,0.2-0.2c0,0,0.1,0.1,0.1,0.1c0,0,0.1-0.1,0.2-0.1c0,0,0,0.1,0.1,0.1c0,0,0.1-0.1,0.1-0.1
			c0,0,0,0.1,0.1,0.1c0,0,0.1-0.1,0.1-0.1c0.2,0,0.3,0.3,0.5,0.1c0,0.3,0.1,0.1,0.1,0.1c0.1,0,0.1,0.2,0.2,0.2c0,0,0-0.1,0.1-0.1
			c0,0,0,0.1,0.1,0.1c0,0,0.1-0.1,0.1-0.1c0.1,0,0.1,0,0.2,0c0.2,0,0.3-0.2,0.5-0.1c0,0,0.1,0.1,0.1,0.1c0.1,0,0.2-0.1,0.3-0.1
			c0.1,0,0.1,0.1,0.2,0.1c0,0,0.1-0.1,0.1-0.1c0,0,0.1,0.1,0.1,0.1c0.1,0,0.2-0.2,0.3,0c0.1-0.2,0.1,0,0.1-0.2
			c0.1,0.2,0.2,0.2,0.4,0c0.1,0.1,0.1,0.1,0.2,0C44.8,48.7,44.9,48.5,45,48.5z"/>
		<path class="st0" d="M56,48.5c0.2,0,0.5,0.1,0.7,0.1c0.1,0,0.1,0,0.2,0c0.1,0.1,0.3,0.2,0.4,0.1c0,0,0-0.1,0.1-0.1
			c0.1-0.1,0.2,0.1,0.3,0.1c0.1,0,0.1,0.1,0.2,0.1c0.1,0,0.1-0.1,0.2-0.1c0.2-0.1,0.3,0,0.4,0.1c0.1,0,0.2,0,0.3,0
			c0,0,0.1,0,0.1,0.1c0,0,0,0.1,0,0.2c0,0.1,0.1,0,0.2,0.1c0.1,0.1,0.1,0.3,0.2,0.2c0.1-0.1,0.2-0.6,0.3-0.9c0-0.3,0.1-0.8,0-1
			c0-0.2-0.1-0.1-0.1-0.3c-0.2,0.1-0.4,0-0.6,0c-0.1,0-0.2-0.1-0.4-0.1c0,0-0.1,0.1-0.1,0.1c-0.1,0-0.2-0.2-0.3,0
			c-0.1,0.1-0.1,0-0.2,0c-0.1,0-0.2,0.1-0.3,0.1c-0.1-0.3-0.3-0.1-0.4-0.2c-0.3-0.2-0.7,0.2-1-0.1c-0.1,0.1-0.2,0-0.3,0
			c0,0-0.1,0.1-0.1,0.1c-0.1,0.1-0.2-0.1-0.4-0.1c0,0-0.1,0.1-0.1,0.1c0,0,0-0.1-0.1-0.1c0,0-0.1,0-0.1,0.1c-0.2,0-0.3,0.1-0.4,0
			c-0.1,0.1-0.2,0.1-0.2,0.1c-0.1,0-0.2-0.1-0.3-0.1c0,0-0.1,0.1-0.1,0.1c-0.1,0-0.2,0-0.3-0.1c-0.1,0-0.1,0.1-0.2,0.1
			c0,0,0-0.1-0.1-0.1c-0.1,0-0.1,0.1-0.2,0.1c-0.1-0.1-0.2,0-0.3,0c0,0,0,0.2-0.1,0.1c0-0.1-0.1-0.2-0.2-0.3
			c-0.1-0.1-0.3,0.1-0.4,0.1c-0.1,0-0.1-0.2-0.2,0c-0.1-0.3-0.4-0.2-0.6-0.1c-0.1,0.2-0.2,0.1-0.2,0.4c-0.1-0.1-0.3,0.6-0.3,1.2
			c0,0.1,0,0.3,0.1,0.4c0.1,0,0.2-0.2,0.2-0.2c0,0,0.1,0.1,0.1,0.1c0,0,0.1-0.1,0.2-0.1c0,0,0,0.1,0.1,0.1c0,0,0.1-0.1,0.1-0.1
			c0,0,0,0.1,0.1,0.1c0,0,0.1-0.1,0.1-0.1c0.2,0,0.3,0.3,0.5,0.1c0,0.3,0.1,0.1,0.1,0.1c0.1,0,0.1,0.2,0.2,0.2c0,0,0.1-0.1,0.1-0.1
			c0,0,0,0.1,0.1,0.1c0,0,0.1-0.1,0.1-0.1c0.1,0,0.1,0,0.2,0c0.2,0,0.3-0.2,0.5-0.1c0,0,0.1,0.1,0.1,0.1c0.1,0,0.2-0.1,0.3-0.1
			c0.1,0,0.1,0.1,0.2,0.1c0,0,0.1-0.1,0.1-0.1c0,0,0.1,0.1,0.1,0.1c0.1,0,0.2-0.2,0.3,0c0.1-0.2,0.1,0,0.1-0.2
			c0.1,0.2,0.2,0.2,0.4,0c0.1,0.1,0.1,0.1,0.2,0C55.7,48.7,55.9,48.5,56,48.5z"/>
		<path class="st0" d="M66.9,48.5c0.2,0,0.5,0.1,0.7,0.1c0.1,0,0.1,0,0.2,0c0.1,0.1,0.3,0.2,0.4,0.1c0,0,0-0.1,0.1-0.1
			c0.1-0.1,0.2,0.1,0.3,0.1c0.1,0,0.1,0.1,0.2,0.1c0.1,0,0.1-0.1,0.2-0.1c0.2-0.1,0.3,0,0.4,0.1c0.1,0,0.2,0,0.3,0
			c0,0,0.1,0,0.1,0.1c0,0,0,0.1,0,0.2c0,0.1,0.1,0,0.2,0.1c0.1,0.1,0.1,0.3,0.2,0.2c0.1-0.1,0.2-0.6,0.3-0.9c0-0.3,0.1-0.8,0-1
			c0-0.2-0.1-0.1-0.1-0.3c-0.2,0.1-0.4,0-0.6,0c-0.1,0-0.2-0.1-0.4-0.1c0,0-0.1,0.1-0.1,0.1c-0.1,0-0.2-0.2-0.3,0
			c-0.1,0.1-0.1,0-0.2,0c-0.1,0-0.2,0.1-0.3,0.1c-0.1-0.3-0.3-0.1-0.4-0.2c-0.3-0.2-0.7,0.2-1-0.1c-0.1,0.1-0.2,0-0.3,0
			c0,0-0.1,0.1-0.1,0.1c-0.1,0.1-0.2-0.1-0.4-0.1c0,0-0.1,0.1-0.1,0.1c0,0,0-0.1-0.1-0.1c0,0-0.1,0-0.1,0.1c-0.2,0-0.3,0.1-0.4,0
			c-0.1,0.1-0.2,0.1-0.2,0.1c-0.1,0-0.2-0.1-0.3-0.1c0,0-0.1,0.1-0.1,0.1c-0.1,0-0.2,0-0.3-0.1c-0.1,0-0.1,0.1-0.2,0.1
			c0,0,0-0.1-0.1-0.1c-0.1,0-0.1,0.1-0.2,0.1c-0.1-0.1-0.2,0-0.3,0c0,0,0,0.2-0.1,0.1c0-0.1-0.1-0.2-0.2-0.3
			c-0.1-0.1-0.3,0.1-0.4,0.1c-0.1,0-0.1-0.2-0.2,0c-0.1-0.3-0.4-0.2-0.6-0.1c-0.1,0.2-0.2,0.1-0.2,0.4c-0.1-0.1-0.3,0.6-0.3,1.2
			c0,0.1,0,0.3,0.1,0.4c0.1,0,0.2-0.2,0.2-0.2c0,0,0.1,0.1,0.1,0.1c0,0,0.1-0.1,0.2-0.1c0,0,0,0.1,0.1,0.1c0,0,0.1-0.1,0.1-0.1
			c0,0,0,0.1,0.1,0.1c0,0,0.1-0.1,0.1-0.1c0.2,0,0.3,0.3,0.5,0.1c0,0.3,0.1,0.1,0.1,0.1c0.1,0,0.1,0.2,0.2,0.2c0,0,0-0.1,0.1-0.1
			c0,0,0,0.1,0.1,0.1c0,0,0.1-0.1,0.1-0.1c0.1,0,0.1,0,0.2,0c0.2,0,0.3-0.2,0.5-0.1c0,0,0.1,0.1,0.1,0.1c0.1,0,0.2-0.1,0.3-0.1
			c0.1,0,0.1,0.1,0.2,0.1c0,0,0.1-0.1,0.1-0.1c0,0,0.1,0.1,0.1,0.1c0.1,0,0.2-0.2,0.3,0c0.1-0.2,0.1,0,0.1-0.2
			c0.1,0.2,0.2,0.2,0.4,0c0.1,0.1,0.1,0.1,0.2,0C66.7,48.7,66.8,48.5,66.9,48.5z"/>
	</g>
	<path class="st0" d="M12.9,39.2c-0.3,0-0.7-0.1-1-0.1c-0.1,0-0.2,0-0.2,0c-0.2-0.1-0.4-0.2-0.6-0.1c0,0-0.1,0.1-0.1,0.1
		c-0.2,0.1-0.3-0.1-0.5-0.1c-0.1,0-0.2-0.1-0.3-0.1c-0.1,0-0.2,0.1-0.2,0.1c-0.2,0.1-0.4,0-0.6-0.1c-0.1,0-0.3,0-0.4,0
		c-0.1,0-0.1,0-0.2-0.1c0,0,0-0.1-0.1-0.2c-0.1-0.1-0.1,0-0.2-0.1c-0.1-0.1-0.2-0.3-0.3-0.2C8.2,38.5,8,39.1,8,39.3c0,0.3,0,0.8,0,1
		c0,0.2,0.2,0.1,0.2,0.3c0.3-0.1,0.6,0,0.9,0c0.2,0,0.3,0.1,0.5,0.1c0.1,0,0.1-0.1,0.2-0.1c0.2,0,0.3,0.2,0.4,0c0.1-0.1,0.2,0,0.3,0
		c0.1,0,0.3-0.1,0.4-0.1c0.1,0.3,0.4,0.1,0.6,0.2c0.4,0.2,0.9-0.2,1.3,0.1c0.1-0.1,0.2,0,0.3,0c0.1,0,0.1-0.1,0.2-0.1
		c0.2-0.1,0.3,0.1,0.5,0.1c0,0,0.1-0.1,0.1-0.1c0,0,0.1,0.1,0.1,0.1c0.1,0,0.1,0,0.2-0.1c0.2,0,0.4-0.1,0.5,0
		c0.1-0.1,0.2-0.1,0.3-0.1c0.1,0,0.2,0.1,0.4,0.1c0,0,0.1-0.1,0.1-0.1c0.1,0,0.3,0,0.4,0.1c0.1,0,0.2-0.1,0.2-0.1
		c0,0,0.1,0.1,0.1,0.1c0.1,0,0.2-0.1,0.3-0.1c0.1,0.1,0.3,0,0.5,0c0,0,0-0.2,0.1-0.1c0.1,0.1,0.2,0.2,0.3,0.3
		c0.2,0.1,0.3-0.1,0.5-0.1c0.1,0,0.1,0.2,0.2,0c0.2,0.3,0.5,0.2,0.8,0.1c0.1-0.2,0.2-0.1,0.3-0.4c0.2,0.1,0.4-0.6,0.3-1.2
		c-0.1-0.2-0.1-0.3-0.2-0.4c-0.1,0-0.2,0.2-0.3,0.2c0,0-0.1-0.1-0.1-0.1c-0.1,0-0.2,0.1-0.2,0.1c0,0-0.1-0.1-0.1-0.1
		c0,0-0.1,0.1-0.1,0.1c0,0-0.1-0.1-0.1-0.1c0,0-0.1,0.1-0.1,0.1c-0.2,0-0.4-0.3-0.6-0.1c0-0.3-0.1-0.1-0.2-0.1
		c-0.1,0-0.2-0.2-0.3-0.2c0,0-0.1,0.1-0.1,0.1c0,0-0.1-0.1-0.1-0.1c0,0-0.1,0.1-0.1,0.1c-0.1,0-0.2,0-0.2,0c-0.2,0-0.5,0.2-0.7,0.1
		c-0.1,0-0.1-0.1-0.2-0.1c-0.1,0-0.2,0.1-0.3,0.1c-0.1,0-0.2-0.1-0.3-0.1c0,0-0.1,0.1-0.1,0.1c-0.1,0-0.1-0.1-0.2-0.1
		c-0.1,0-0.3,0.2-0.4,0c-0.1,0.2-0.1,0-0.2,0.2c-0.1-0.2-0.4-0.2-0.5,0c-0.1-0.1-0.2-0.1-0.3,0C13.3,39,13.1,39.1,12.9,39.2z"/>
	<path class="st0" d="M8.3,45.2c-0.6,0-1.2-0.1-1.6-0.1c-0.1,0-0.3,0-0.4,0C6,45.1,5.7,45,5.4,45.1c0,0-0.1,0.1-0.1,0.1
		C5,45.2,4.7,45,4.4,45.1c-0.2,0-0.3-0.1-0.5-0.1c-0.1,0-0.3,0.1-0.4,0.1c-0.4,0.1-0.7,0-1.1-0.1c-0.2,0-0.5,0-0.8,0
		c-0.1,0-0.2,0-0.3-0.1c0,0-0.1-0.1-0.1-0.2c-0.1-0.1-0.3,0-0.4-0.1c-0.2-0.1-0.4-0.3-0.5-0.2C0.3,44.6,0,45.1,0,45.4
		c0,0.3,0.1,0.8,0.1,1c0.1,0.2,0.3,0.1,0.4,0.3c0.5-0.1,1,0,1.5,0c0.3,0,0.6,0.1,0.9,0.1c0.1,0,0.2-0.1,0.3-0.1c0.3,0,0.5,0.2,0.8,0
		c0.2-0.1,0.3,0,0.5,0c0.2,0,0.4-0.1,0.6-0.1c0.3,0.3,0.7,0.1,1,0.2c0.7,0.3,1.5-0.2,2.3,0.1c0.2-0.1,0.4,0,0.6,0
		c0.1,0,0.2-0.1,0.3-0.1c0.3-0.1,0.6,0.1,0.8,0.1c0.1,0,0.1-0.1,0.2-0.1c0.1,0,0.1,0.1,0.2,0.1c0.1,0,0.2,0,0.3-0.1
		c0.4-0.1,0.6-0.1,0.9,0c0.1-0.1,0.3-0.1,0.5-0.1c0.2,0,0.4,0.1,0.6,0.1c0,0,0.1-0.1,0.2-0.1c0.2,0,0.5,0,0.7,0.1
		c0.1,0,0.3-0.1,0.4-0.1c0.1,0,0.1,0.1,0.2,0.1c0.1,0,0.3-0.1,0.5-0.1c0.2,0.1,0.5,0,0.8,0c0.1,0,0-0.2,0.1-0.1
		c0.1,0.1,0.3,0.2,0.5,0.3c0.3,0.1,0.6-0.1,0.9-0.1c0.1,0,0.3,0.2,0.4,0c0.4,0.3,0.9,0.2,1.4,0.1c0.1-0.2,0.3-0.1,0.5-0.4
		c0.3,0.1,0.6-0.6,0.4-1.2c-0.1-0.2-0.2-0.3-0.3-0.4c-0.2,0-0.3,0.2-0.5,0.2c-0.1,0-0.1-0.1-0.2-0.1c-0.1,0-0.3,0.1-0.4,0.1
		c-0.1,0-0.1-0.1-0.2-0.1c-0.1,0-0.1,0.1-0.2,0.1c-0.1,0-0.1-0.1-0.2-0.1c0,0-0.1,0.1-0.2,0.1c-0.4,0-0.8-0.3-1.1-0.1
		c-0.1-0.3-0.2-0.1-0.3-0.1c-0.2,0-0.3-0.2-0.5-0.2c0,0-0.1,0.1-0.1,0.1c-0.1,0-0.1-0.1-0.2-0.1c-0.1,0-0.1,0.1-0.2,0.1
		c-0.1,0-0.3,0-0.4,0c-0.4,0-0.8,0.2-1.2,0.1c-0.1,0-0.2-0.1-0.3-0.1c-0.2,0-0.4,0.1-0.6,0.1c-0.2,0-0.4-0.1-0.5-0.1
		c0,0-0.1,0.1-0.2,0.1c-0.1,0-0.2-0.1-0.3-0.1c-0.2,0-0.4,0.2-0.6,0c-0.1,0.2-0.2,0-0.3,0.2c-0.2-0.2-0.6-0.2-0.9,0
		c-0.1-0.1-0.4-0.1-0.5,0C8.9,45.1,8.6,45.2,8.3,45.2z"/>
	<path class="st0" d="M12.9,51.3c-0.3,0-0.7-0.1-1-0.1c-0.1,0-0.2,0-0.2,0c-0.2-0.1-0.4-0.2-0.6-0.1c0,0-0.1,0.1-0.1,0.1
		c-0.2,0.1-0.3-0.1-0.5-0.1c-0.1,0-0.2-0.1-0.3-0.1c-0.1,0-0.2,0.1-0.2,0.1c-0.2,0.1-0.4,0-0.6-0.1c-0.1,0-0.3,0-0.4,0
		c-0.1,0-0.1,0-0.2-0.1c0,0,0-0.1-0.1-0.2c-0.1-0.1-0.1,0-0.2-0.1c-0.1-0.1-0.2-0.3-0.3-0.2C8.2,50.7,8,51.2,8,51.5c0,0.3,0,0.8,0,1
		c0,0.2,0.2,0.1,0.2,0.3c0.3-0.1,0.6,0,0.9,0c0.2,0,0.3,0.1,0.5,0.1c0.1,0,0.1-0.1,0.2-0.1c0.2,0,0.3,0.2,0.4,0c0.1-0.1,0.2,0,0.3,0
		c0.1,0,0.3-0.1,0.4-0.1c0.1,0.3,0.4,0.1,0.6,0.2c0.4,0.2,0.9-0.2,1.3,0.1c0.1-0.1,0.2,0,0.3,0c0.1,0,0.1-0.1,0.2-0.1
		c0.2-0.1,0.3,0.1,0.5,0.1c0,0,0.1-0.1,0.1-0.1c0,0,0.1,0.1,0.1,0.1c0.1,0,0.1,0,0.2-0.1c0.2,0,0.4-0.1,0.5,0C14.9,53,15,53,15.1,53
		c0.1,0,0.2,0.1,0.4,0.1c0,0,0.1-0.1,0.1-0.1c0.1,0,0.3,0,0.4,0.1c0.1,0,0.2-0.1,0.2-0.1c0,0,0.1,0.1,0.1,0.1c0.1,0,0.2-0.1,0.3-0.1
		c0.1,0.1,0.3,0,0.5,0c0,0,0-0.2,0.1-0.1c0.1,0.1,0.2,0.2,0.3,0.3c0.2,0.1,0.3-0.1,0.5-0.1c0.1,0,0.1,0.2,0.2,0
		c0.2,0.3,0.5,0.2,0.8,0.1c0.1-0.2,0.2-0.1,0.3-0.4c0.2,0.1,0.4-0.6,0.3-1.2c-0.1-0.2-0.1-0.3-0.2-0.4c-0.1,0-0.2,0.2-0.3,0.2
		c0,0-0.1-0.1-0.1-0.1c-0.1,0-0.2,0.1-0.2,0.1c0,0-0.1-0.1-0.1-0.1c0,0-0.1,0.1-0.1,0.1c0,0-0.1-0.1-0.1-0.1c0,0-0.1,0.1-0.1,0.1
		c-0.2,0-0.4-0.3-0.6-0.1c0-0.3-0.1-0.1-0.2-0.1c-0.1,0-0.2-0.2-0.3-0.2c0,0-0.1,0.1-0.1,0.1c0,0-0.1-0.1-0.1-0.1
		c0,0-0.1,0.1-0.1,0.1c-0.1,0-0.2,0-0.2,0c-0.2,0-0.5,0.2-0.7,0.1c-0.1,0-0.1-0.1-0.2-0.1c-0.1,0-0.2,0.1-0.3,0.1
		c-0.1,0-0.2-0.1-0.3-0.1c0,0-0.1,0.1-0.1,0.1c-0.1,0-0.1-0.1-0.2-0.1c-0.1,0-0.3,0.2-0.4,0c-0.1,0.2-0.1,0-0.2,0.2
		c-0.1-0.2-0.4-0.2-0.5,0c-0.1-0.1-0.2-0.1-0.3,0C13.3,51.2,13.1,51.3,12.9,51.3z"/>
</g>
</svg>
