<svg xmlns="http://www.w3.org/2000/svg" width="12" height="10.957" viewBox="0 0 12 10.957">
  <path id="Icon_material-add-a-photo" data-name="Icon material-add-a-photo" d="M1.565,3.065V1.5H2.609V3.065H4.174V4.109H2.609V5.674H1.565V4.109H0V3.065ZM3.13,6.2V4.63H4.7V3.065H8.348L9.3,4.109h1.654A1.047,1.047,0,0,1,12,5.152v6.261a1.047,1.047,0,0,1-1.043,1.043H2.609a1.047,1.047,0,0,1-1.043-1.043V6.2Zm3.652,4.7A2.609,2.609,0,1,0,4.174,8.283,2.61,2.61,0,0,0,6.783,10.891ZM5.113,8.283a1.67,1.67,0,1,0,1.67-1.67A1.668,1.668,0,0,0,5.113,8.283Z" transform="translate(0 -1.5)" fill="#033451"/>
</svg>
