<?xml version="1.0" encoding="utf-8"?>
<!-- Generator: Adobe Illustrator 22.0.1, SVG Export Plug-In . SVG Version: 6.00 Build 0)  -->
<svg version="1.1" id="Layer_1" xmlns="http://www.w3.org/2000/svg" xmlns:xlink="http://www.w3.org/1999/xlink" x="0px" y="0px"
	 viewBox="0 0 363.5 295.1" style="enable-background:new 0 0 363.5 295.1;" xml:space="preserve">
<style type="text/css">
	.st0{fill:#FFFFFF;}
	.st1{fill:#1E2537;}
	.st2{fill:#86CEC8;}
	.st3{fill:#979ED3;}
</style>
<g>
	<g>
		<g>
			<rect x="1.1" y="1.3" class="st0" width="361.2" height="292.5"/>
			<path class="st1" d="M361.7,96.1c0,38.3,0,79.7,0,110.1c0,8.8,0,17.4,0,26c0,9.7-0.1,20.1-0.1,30.5c0,10.2,0,20.5,0,30.3
				c-0.7,0-1.4,0-2,0c-2.6,0-5.4,0.1-8,0.1c-16.6,0-36.5,0-54.1,0c-12.7,0-23.6,0-36,0c-9.5,0.1-17,0.1-25,0.2
				c-24.4,0.1-48.5,0-71.1,0c-16.1,0-34.6,0-51.1,0c-7.1,0-15,0-21,0c-2.3,0-5.4-0.1-8-0.2c-6.6,0-17.1,0-27,0
				c-13.4-0.1-24.5-0.2-32-0.2c-8.4,0.1-24.3,0.6-25,0.9c-0.7,0.3,6.7,0.8,13,1c7.1,0.2,19.4,0.1,26,0.3c33.2,0,68.4-0.1,100.1-0.1
				c19.6,0,40.3,0.1,61.1,0.1c5.9,0,12.2-0.1,18-0.1c19.3,0,37.2,0.1,51.1,0c9.9-0.1,19.8,0,31,0c13.8-0.1,28.1-0.1,42.1-0.2
				c2.7,0,5.6,0.1,8.8,0.1c3.5,0,7.2,0,11.1,0c0-16.2,0-35.1,0-50.6c0.2-49-0.2-102.2,0-153.2c-0.1-12.9,0-28.1,0-40
				c0-6.5-0.1-12.8-0.1-20c0-9.9,0-20.5,0-30.8c-9.9,0-19.6,0-28.4,0c-4.4,0-8.6,0.1-13,0.1c-4.1,0-8-0.1-12-0.1
				c-6.6,0-14.1,0.1-21,0.1c-23.5,0.1-42.2,0.1-61.1,0c-8.9,0.1-22.2,0.1-33.1,0.1c-14.1,0-28.5-0.1-43.1,0c-3.1,0-6.8,0.1-10,0.1
				c-14.4,0.1-33.6,0-45.1,0c-8.6,0-17.3,0.1-26,0.1c-3.6,0-7.6-0.1-11-0.1c-9.7,0-20.3,0.1-30,0.1c-9.2,0-19.1,0-29.1,0
				c0,8.5,0,17.1,0,25.4c0,3.8,0.2,1.2,0.2,5C0.5,41,0.4,52.3,0.3,64c-0.1,18.3,0.1,38.1,0.1,57.1c0,8.6-0.2,17.6,0,25
				c-0.3,25.5-0.1,63.5,0,91.1c0.2,7.7,0.2,22.5,0.4,29c-0.1,21.2,0.6,35.9,1.2,22c0.1-9,0.3-14.2,0.3-24c-0.1-10.3-0.1-21-0.2-31
				c0-5.1,0.1-10.2,0.1-15c0-8.1-0.1-17.3-0.1-26c0-4.2,0.1-8.3,0.1-12c0-3.9-0.1-7.2-0.1-11c0-4.6,0-9,0.1-14c0-3.2-0.1-6.6-0.1-10
				c0-24.6,0.3-52.3,0-73.1c0.3-6.7,0.1-15.6,0.1-23c0.1-10.5,0.1-21.3,0.2-31c0-3.2-0.1-5.9-0.1-9c0-1.3,0-2.6,0-3.9
				c0-0.6,0-1.3,0-1.9l0-0.5l0-0.1l0,0l0,0l0,0l0.1,0c0.3,0,0.6,0,0.9,0c0.7,0,1.4,0,2.1,0c3.9,0,8.1-0.1,12-0.1c8.4,0,17.7,0,27,0
				c25.2-0.1,50.7-0.2,78.1-0.2c7.4,0,14.6,0.1,22,0.1c13.1,0,24.6-0.1,37-0.2c12.1,0,24.9,0,37.1,0c3.3,0,6.7-0.1,10-0.1
				c7.1,0,13.3,0.1,20,0.1c14,0,27.4-0.2,41.1-0.1c5.5-0.2,12,0,19-0.2c7.9,0.1,17.5,0.1,26.9,0.1c4.7,0,9.4,0,13.9,0
				c4.3,0,8.3-0.1,12-0.1c0,1.1,0,2.1,0,3.1c-0.1,9.8,0,24.6,0,36.1C361.5,58.2,361.7,76.9,361.7,96.1z"/>
		</g>
		<path class="st1" d="M357.6,0.1c-1.5,0-2.9,0-4-0.1c-19.1,0-39.2,0.1-57.4,0.1c-11.2,0-23.1-0.1-35-0.1c-3.4,0-7,0.1-10.3,0.1
			c-11.1,0-21.3-0.1-29.3,0c-5.7,0.1-11.3,0-17.8,0c-7.9,0.1-16.1,0.1-24.1,0.2c-10.3-0.3-26.6,0-39.1-0.1
			c-28.1-0.2-58.6,0.2-87.9,0c-7.4,0.1-16.1,0-23,0c-3.7,0-7.4,0.1-11.5,0.1c-2.7,0-5.6,0-8.4,0c-3.2,0-6.5,0-9.7,0
			c0,5.5,0,10.9,0,15.9c1.1,0,2.1,0,3.1,0c2.5,0,4.9-0.1,7.5-0.1c2.3,0,4.6,0.1,6.9,0.1c3.8,0,8.1-0.1,12.1-0.1
			c13.5-0.1,24.2-0.1,35,0c5.1-0.1,12.7-0.1,19-0.1c8.1,0,16.3,0.1,24.7,0c1.8,0,3.9-0.1,5.7-0.1c8.2-0.1,19.3,0,25.8,0
			c4.9,0,9.9-0.1,14.9-0.1c2.1,0,4.3,0.1,6.3,0.1c5.6,0,11.6-0.1,17.2-0.1c9.5,0,20.3,0,30.4,0c2.2,0,0.7-0.2,2.9-0.2
			c5.7,0.1,12.2,0.2,18.9,0.3c10.5,0.1,21.9-0.1,32.7-0.1c4.9,0,10.1,0.2,14.4,0c14.6,0.3,36.4,0.1,52.3,0
			c4.4-0.2,12.9-0.2,16.6-0.4c5.3,0,9.9-0.1,12.7-0.3h3v-0.1c0,0,0,0.1,0,0.1c0.3,0.4,0.8-3.8,1-7.5c0-0.8,0.1-1.8,0.1-2.9
			c0-1.4,0-2.9,0-4.5C361.5,0.1,359.4,0.1,357.6,0.1z"/>
		<path class="st0" d="M12.1,8c0.2-0.1,0.1-0.3,0.2-0.4c-0.2-0.5-0.4-1-0.7-1.4c-0.2-0.2-0.4-0.5-0.6-0.7c-0.1-0.1-0.2,0-0.3-0.1
			C10.5,5.2,10.2,5,10,5C9.8,5.1,9.7,4.9,9.5,4.9C9.3,4.9,9.1,5,8.9,5.1c-0.3-0.3-0.7,0.1-1,0.1c-0.4,0.1-0.7,0.3-1,0.6
			c-0.2,0.3-0.4,0.7-0.7,1C6.2,7,6.1,7.2,6,7.4c0,0.1,0,0.2,0.1,0.3c0,0.3-0.1,0.6,0,0.8c0,0.1,0.1,0.1,0.1,0.2c0,0.1,0,0.1,0,0.2
			c0,0.1,0.1,0.2,0.2,0.3C6.5,9.5,6.6,9.7,6.7,10c0.2,0,0.3,0.2,0.4,0.3c0.1,0.2,0.2,0.4,0.5,0.4c0,0,0.1,0,0.2,0
			c0.2,0,0.4,0.2,0.6,0.3c0.1,0,0.3,0,0.4,0c0,0,0.1,0.1,0.1,0.1c0.1,0,0.3-0.1,0.4-0.1c0.2,0,0.5-0.1,0.7-0.1c0.1,0,0-0.2,0-0.2
			c0.2,0.1,0.3,0.1,0.5,0.1c0.3,0,0.4-0.4,0.6-0.5c0.1-0.1,0.3,0,0.2-0.2c0.4-0.1,0.6-0.7,0.6-1c-0.2-0.2-0.1-0.3-0.3-0.4
			c0-0.1-0.1-0.2-0.3-0.2c0,0,0,0,0-0.1c0,0,0,0,0,0c0,0,0,0,0,0C11.4,8.2,12,8.1,12.1,8z"/>
		<path class="st0" d="M18.4,7.5c0.1-0.3,0.3-0.5,0.5-0.6c0.1,0,0.1-0.1,0.1-0.1c0.2,0,0.3,0,0.4-0.1c0,0,0-0.1,0-0.1
			c0.1-0.1,0.3,0.1,0.4,0c0.1,0,0.1,0.1,0.2,0.1c0.1,0,0.2-0.1,0.2-0.1c0.2,0,0.3,0.2,0.4,0.3C20.8,7.1,21,7.2,21,7.3
			c0,0.1,0.1,0.1,0,0.2c0,0-0.1,0.1-0.1,0.1c0,0.1,0,0.1,0,0.2c0,0.1-0.2,0.2-0.2,0.2c0.1,0,0.6,0.1,0.9,0.1c0.3,0,0.8-0.1,1-0.2
			c0.2-0.1,0.1-0.3,0.2-0.4c-0.2-0.5-0.4-1-0.7-1.4c-0.2-0.2-0.4-0.5-0.6-0.7c-0.1-0.1-0.2,0-0.3-0.1C21,5.2,20.8,5,20.5,5
			c-0.2,0.1-0.3-0.1-0.5-0.1c-0.2,0-0.4,0.1-0.6,0.1c-0.3-0.3-0.7,0.1-1,0.1c-0.4,0.1-0.7,0.3-1,0.6c-0.2,0.3-0.4,0.7-0.7,1
			c0,0.2-0.1,0.4-0.2,0.6c0,0.1,0,0.2,0.1,0.3c0,0.3-0.1,0.6,0,0.8c0,0.1,0.1,0.1,0.1,0.2c0,0.1,0,0.1,0,0.2c0,0.1,0.1,0.2,0.2,0.3
			c0.2,0.3,0.4,0.5,0.4,0.8c0.2,0,0.3,0.2,0.4,0.3c0.1,0.2,0.2,0.4,0.5,0.4c0,0,0.1,0,0.2,0c0.2,0,0.4,0.2,0.6,0.3
			c0.1,0,0.3,0,0.4,0c0,0,0.1,0.1,0.1,0.1c0.1,0,0.3-0.1,0.4-0.1c0.2,0,0.5-0.1,0.7-0.1c0.1,0,0-0.2,0-0.2c0.2,0.1,0.3,0.1,0.5,0.1
			c0.3,0,0.4-0.4,0.6-0.5c0.1-0.1,0.3,0,0.2-0.2c0.4-0.1,0.6-0.7,0.6-1c-0.2-0.2-0.1-0.3-0.3-0.4c0.1-0.3-0.6-0.4-1.2-0.3
			c-0.1,0-0.3,0-0.4,0.1c0,0,0.2,0.1,0.2,0.2c0,0-0.1,0-0.1,0c0,0,0.1,0.1,0.1,0.1c0,0-0.1,0-0.1,0c0,0,0.1,0.1,0.1,0.1
			c0,0-0.1,0-0.1,0c0,0,0,0.1,0,0.1C20.3,8.9,20,8.7,20.1,9c-0.2-0.2-0.1,0-0.1,0c0,0-0.1-0.1-0.2-0.1c0,0,0,0.1,0,0.1
			c0,0,0-0.1-0.1-0.1c0,0,0,0.1,0,0.1c0,0.1-0.1,0-0.1,0c-0.1,0.1-0.3,0.2-0.4,0.1c0,0,0-0.1,0-0.2c0,0-0.2,0-0.2,0
			c-0.1,0,0-0.1-0.1-0.2c0,0-0.1,0-0.1,0c0,0,0-0.1,0-0.1c-0.1,0-0.3,0-0.2-0.2c-0.2,0,0-0.1-0.2-0.1c0.2-0.2,0.1-0.3-0.1-0.4
			c0.1-0.1,0.1-0.2,0-0.3C18.5,7.8,18.3,7.7,18.4,7.5z"/>
		<path class="st0" d="M33.2,8c0.2-0.1,0.1-0.3,0.2-0.4c-0.2-0.5-0.4-1-0.7-1.4c-0.2-0.2-0.4-0.5-0.6-0.7c-0.1-0.1-0.2,0-0.3-0.1
			C31.5,5.2,31.3,5,31.1,5c-0.2,0.1-0.3-0.1-0.5-0.1c-0.2,0-0.4,0.1-0.6,0.1c-0.3-0.3-0.7,0.1-1,0.1c-0.4,0.1-0.7,0.3-1,0.6
			c-0.2,0.3-0.4,0.7-0.7,1c0,0.2-0.1,0.4-0.2,0.6c0,0.1,0,0.2,0.1,0.3c0,0.3-0.1,0.6,0,0.8c0,0.1,0.1,0.1,0.1,0.2c0,0.1,0,0.1,0,0.2
			c0,0.1,0.1,0.2,0.2,0.3c0.2,0.3,0.4,0.5,0.4,0.8c0.2,0,0.3,0.2,0.4,0.3c0.1,0.2,0.2,0.4,0.5,0.4c0,0,0.1,0,0.2,0
			c0.2,0,0.4,0.2,0.6,0.3c0.1,0,0.3,0,0.4,0c0,0,0.1,0.1,0.1,0.1c0.1,0,0.3-0.1,0.4-0.1c0.2,0,0.5-0.1,0.7-0.1c0.1,0,0-0.2,0-0.2
			c0.2,0.1,0.3,0.1,0.5,0.1c0.3,0,0.4-0.4,0.6-0.5c0.1-0.1,0.3,0,0.2-0.2c0.4-0.1,0.6-0.7,0.6-1c-0.2-0.2-0.1-0.3-0.3-0.4
			c0-0.1-0.1-0.2-0.3-0.2c0,0,0,0,0-0.1c0,0,0,0,0,0c0,0,0,0,0,0C32.5,8.2,33.1,8.1,33.2,8z"/>
	</g>
	<path class="st1" d="M70,132.1c22.3,0,46.5,0,64.2,0c5.1,0,10.2,0,15.2,0c11.9,0,25.3,0.1,37.4,0.1c1.5,0,3.1-0.1,4.7-0.1
		c9.7,0,21.3,0,31.5,0c7.4,0,13.7,0,21,0c5.5,0,9.9-0.1,14.6-0.1c14.2-0.1,28.3,0,41.4,0c9.4,0,20.2,0,29.8,0c4.1,0,8.7,0,12.3,0
		c1.3,0,3.2,0.1,4.7,0.1c0.5,0,1,0,1.7,0c0,3.6,0,8.5,0,13.2c0,7.8-0.2,14.3-0.1,18.7c0,4.9,0.4,14.2,0.7,14.6
		c0.2,0.4,0.6-3.9,0.7-7.6c0.1-4.2,0.1-11.3,0.2-15.2c0-8.2,0-16.6,0-25.1c-12,0-23.9,0-35.2,0c-11.4,0-23.5,0-35.6-0.1
		c-3.4,0-7.1,0-10.5,0.1c-11.3,0-21.7-0.1-29.8,0c-5.8,0.1-11.5,0-18.1,0c-8,0-16.4,0.1-24.5,0.1c-10.5-0.2-27.1,0-39.7-0.1
		c-28.6-0.2-59.6,0.2-89.3,0c-7.5,0.1-16.4,0-23.3,0c-3.8,0-7.5,0.1-11.7,0.1c-5.8,0-12,0-18.1,0c0,5.8,0,11.5,0,16.8
		c0,2.6,0.1,5,0.1,7.6c0,2.4,0,4.6-0.1,7c0,3.9,0,8.2,0.1,12.3c0,1.7,0,3.4,0,4.9c6.2,0,11.9,0,17.2,0c5.2,0,10.1,0,15,0.1
		c5.2-0.1,12.9-0.1,19.3-0.1c8.2,0,16.6,0.1,25.1,0c1.8,0,4-0.1,5.8-0.1c8.4,0,19.6,0,26.3,0c5,0,10.1-0.1,15.2-0.1
		c2.1,0,4.4,0,6.4,0.1c5.7,0,11.8-0.1,17.5-0.1c9.7,0,20.6,0,30.9,0c2.2,0,0.7-0.1,2.9-0.1c5.8,0.1,12.4,0.2,19.3,0.2
		c10.7,0.1,22.2-0.1,33.3-0.1c5,0,10.3,0.1,14.6,0c14.9,0.2,37,0.1,53.1,0c4.5-0.2,13.1-0.1,16.9-0.3c12.4,0,20.9-0.5,12.8-0.9
		c-5.3-0.1-8.3-0.3-14-0.3c-6,0-12.2,0.1-18.1,0.1c-3,0-5.9-0.1-8.8-0.1c-4.7,0-10.1,0.1-15.2,0.1c-2.4,0-4.8,0-7-0.1
		c-2.3,0-4.2,0.1-6.4,0.1c-2.7,0-5.3,0-8.2-0.1c-1.9,0-3.8,0-5.8,0.1c-14.4,0-30.5-0.2-42.6,0c-3.9-0.2-9.1-0.1-13.4-0.1
		c-6.1,0-12.4-0.1-18.1-0.1c-1.9,0-3.4,0.1-5.3,0.1c-2.4,0-4.8,0-7-0.1c-2.3,0-4.7,0.1-7,0.1c-4.9,0-10.3,0-15.8,0
		c-14.7,0-29.5,0.2-45.5,0.1c-4.3,0-8.5-0.1-12.8-0.1c-7.6,0-14.4,0.1-21.6,0.1c-7,0-14.5,0-21.6,0c-1.9,0-3.9,0-5.8,0.1
		c-4.1,0-7.7,0-11.7-0.1c-6.4,0-12.5,0.1-18.6,0.1c0-1.4,0-2.7,0-4.1c-0.2-3.2,0-7-0.1-11.1c0.1-4.6,0.1-10.2,0.1-15.7
		c0-2.8,0-5.5,0-8.1c0-2.4-0.1-4.8-0.1-6.9c0.6,0,1.2,0,1.7,0c5.7,0,14.4,0,21,0C47.9,132.3,58.8,132.1,70,132.1z"/>
	<path class="st1" d="M75.7,30.4c24.6,0,51.3,0,70.8,0c5.7,0,11.2,0,16.7,0c13.1,0,27.9,0.1,41.2,0.1c1.7,0,3.5-0.1,5.1-0.1
		c10.7,0,23.5,0,34.8,0c8.2,0,15.2,0,23.2,0c6.1,0,10.9-0.1,16.1-0.1c15.7-0.1,31.2,0,45.7,0c6,0,12.6,0,19,0c0,4.5,0,9,0,13.2
		c0,4.5,0,9.6,0,13.5c0,1.5-0.1,3.5-0.1,5.1c0,4.3,0,11,0,17.4c0,8.6-0.2,15.8-0.1,20.6c0,5.4,0.4,15.6,0.7,16.1
		c0.2,0.5,0.6-4.3,0.7-8.4c0.1-4.6,0.1-12.5,0.2-16.7c0-20.6,0-42.3-0.1-62.1c-1.5,0-2.8,0-4.2,0c-12.6,0-25.9,0-39.3-0.1
		c-3.8,0-7.8,0-11.6,0.1c-12.4,0-23.9-0.1-32.8,0c-6.4,0.1-12.7,0-20,0c-8.8,0-18.1,0.1-27,0.1c-11.5-0.2-29.9,0-43.8-0.1
		c-31.5-0.2-65.7,0.2-98.5,0c-8.3,0.1-18.1,0-25.8,0c-4.2,0-8.3,0.1-12.9,0.1c-6.4,0-13.2,0-19.9,0c0,6.4,0,12.7,0,18.4
		c0,2.8,0.1,5.5,0.1,8.4c0,2.6,0,5.1-0.1,7.7c0,4.3,0,9,0.1,13.5c0,7.5,0,14.3,0.1,20.7c0,6.6,0,12.9-0.1,19.2l0.3,0
		c1.6,0,3.4,0,5.4-0.1c1.7,0,3.5,0,5.4,0c3.7,0,7.6,0,11.1,0c9.1,0,18.3,0.1,27.7,0c2,0,4.4-0.1,6.4-0.1c9.2,0,21.6,0,29,0
		c5.5,0,11.1-0.1,16.7-0.1c2.3,0,4.9,0,7.1,0.1c6.2,0,13-0.1,19.3-0.1c10.7,0,22.8,0,34.1,0c2.5,0,0.8-0.1,3.2-0.1
		c6.4,0.1,13.7,0.1,21.2,0.2c11.8,0.1,24.5-0.1,36.7-0.1c5.5,0,11.3,0.1,16.1,0c16.4,0.2,40.8,0.1,58.6,0c5-0.2,14.5-0.1,18.7-0.3
		c13.7,0,23.1-0.5,14.2-0.9c-5.8-0.1-9.1-0.3-15.4-0.3c-6.6,0-13.5,0.1-20,0.1c-3.3,0-6.5-0.1-9.7-0.1c-5.2,0-11.1,0.1-16.7,0.1
		c-2.7,0-5.3,0-7.7-0.1c-2.5,0-4.6,0.1-7.1,0.1c-3,0-5.8,0-9-0.1c-2.1,0-4.2,0-6.4,0.1c-15.8,0-33.7-0.2-47,0
		c-4.3-0.2-10.1-0.1-14.8-0.1c-6.7,0-13.7-0.1-20-0.1c-2.1,0-3.8,0.1-5.8,0.1c-2.6,0-5.3,0-7.7-0.1c-2.5,0-5.2,0.1-7.7,0.1
		c-5.4,0-11.4,0-17.4,0c-16.2,0-32.6,0.1-50.2,0.1c-4.8,0-9.4-0.1-14.2-0.1c-8.4,0-15.8,0.1-23.8,0.1c-7.8,0-16,0-23.8,0
		c-1.8,0-3.6,0-5.3,0.1l0-0.2c0-4.4,0-8.3,0.1-12.5c0-9-0.1-17.6-0.1-26.4c-0.2-3.5,0-7.7-0.1-12.2c0.1-5.1,0.1-11.2,0.1-17.3
		c0-3,0-6.1,0-8.9c0-2.7-0.1-5.3-0.1-7.6c0.7,0,1.3,0,1.9,0c6.3,0,15.8,0,23.2,0C51.3,30.6,63.3,30.5,75.7,30.4z"/>
	<g>
		<rect x="281.8" y="131.7" class="st2" width="66.9" height="46.9"/>
		<path class="st1" d="M298.3,132.1c6.7,0,13.9,0,19.2,0c1.5,0,3,0,4.5,0c3.5,0,7.6,0.1,11.2,0.1c0.5,0,0.9-0.1,1.4-0.1
			c2.9-0.1,6.4,0.1,9.4,0c0.8,0,1.6,0,2.4,0c0.6,0,1.3,0,1.9,0c0,0.4,0,0.7,0,1.1c0,1.7,0.1,3,0.1,4.4c0.1,4.3,0,8.4,0,12.4
			c0,2.8,0,6,0,8.9c0,1.2,0,2.6,0,3.7c0,0.4-0.1,0.9-0.1,1.4c0,1.2,0,3,0,4.7c0,2.3-0.2,4.3-0.1,5.6c0,1.5,0.4,4.2,0.7,4.4
			c0.2,0.1,0.6-1.2,0.7-2.3c0.1-1.2,0.1-3.4,0.2-4.5c-0.1-5.8-0.1-11.9-0.1-17.4c0-3.4,0-7,0.1-10.6c0-1,0-2.1-0.1-3.1
			c0-1.7,0-3.3,0-4.8c0-0.8,0-1.5,0-2.2c0-1,0-2,0-2.9l0,0c-0.7,0-1.5,0-2.2,0c-0.4,0-0.9,0-1.3,0c-0.9,0-1.8,0-2.8,0
			c-2.4,0-4.9,0.1-7.3,0.1c-3.1-0.2-8.1,0-11.9-0.1c-8.5-0.2-17.8,0.2-26.7,0c-2.3,0.1-4.9,0-7,0c-1.1,0-2.2,0.1-3.5,0.1
			c-0.8,0-1.7,0-2.6,0c-1.1,0-2.3,0-3.4,0c0,1.1,0,2.2,0,3.3c0,0.8,0,1.6,0,2.3c0,0.8,0.1,1.5,0.1,2.3c0,0.7-0.1,1.4-0.1,2.1
			c0,1.2,0,2.5,0.1,3.7c0.1,4.1,0.1,7.4,0,10.6c0.1,1.5,0.1,3.9,0.1,5.8c0,2.5-0.1,5,0,7.5c0,0.5,0.1,1.2,0.1,1.7c0,1.3,0,2.7,0,4.1
			c0,1.5,0,2.9,0,4l0,1.1c0.5,0,1.1,0,1.6,0l1,0l2,0c0.6,0,1.3,0.1,1.9,0.1c1.7,0,3.5-0.1,5.2-0.1c2.9,0,6.2,0,9.2,0
			c0.7,0,0.2-0.1,0.9-0.1c1.7,0.1,3.7,0.2,5.8,0.2c3.2,0.1,6.6-0.1,9.9-0.1c1.5,0,3.1,0.1,4.4,0c4.4,0.2,11.1,0.1,15.9,0
			c1.3-0.2,3.9-0.1,5.1-0.3c3.7,0,6.2-0.5,3.8-0.9c-1.6-0.1-2.5-0.3-4.2-0.3c-1.8,0-3.7,0.1-5.4,0.1c-0.9,0-1.8-0.1-2.6-0.1
			c-1.4,0-3,0.1-4.5,0.1c-0.7,0-1.4-0.1-2.1-0.1c-0.7,0-1.3,0.1-1.9,0.1c-0.8,0-1.6-0.1-2.4-0.1c-0.6,0-1.1,0.1-1.7,0.1
			c-4.3,0-9.1-0.2-12.7,0c-1.2-0.2-2.7-0.1-4-0.1c-1.8,0-3.7-0.1-5.4-0.1c-0.6,0-1,0.1-1.6,0.1c-0.7,0-1.4-0.1-2.1-0.1
			c-0.7,0-1.4,0.1-2.1,0.1c-1.5,0-3.1,0-4.7,0c-2.5,0-5.1,0.1-7.7,0.1l0-0.2l0-0.4c0-0.4,0-0.9,0-1.3c0-0.9,0-1.7,0-2.6
			c0-1.3,0.1-2.5,0.1-3.8c0-2.3-0.1-4.3-0.1-6.5c0-2.1,0.1-4.3,0-6.5c0-0.6-0.1-1.2-0.1-1.7c0-1.2,0.1-2.3,0.1-3.5
			c0-2.4-0.1-4.8-0.1-7.2c-0.2-1,0-2.1-0.1-3.3c0.1-1.4,0.1-3,0.1-4.7c0-0.8,0-1.6,0-2.4c0-0.4,0-0.8,0-1.1c0-0.2,0-0.4,0-0.6
			c0.1,0,0.2,0,0.3,0c0.2,0,0.3,0,0.5,0c0.2,0,0.5,0,0.7,0c0.5,0,1.1,0,1.6,0c1.1,0,2.3,0,3.2-0.1
			C291.7,132.3,295,132.1,298.3,132.1z"/>
	</g>
	<g>
		<rect x="14.7" y="131.7" class="st2" width="4.7" height="46.9"/>
		<path class="st1" d="M19,134.5c0,3,0,6.3,0,8.7c0,0.7,0,1.4,0,2.1c0,1.6-0.1,3.4-0.1,5.1c0,0.2,0.1,0.4,0.1,0.6
			c0.1,1.3-0.1,2.9,0,4.3c0,1,0,1.9,0,2.8c0,0.7,0.1,1.3,0.1,2c0.1,1.9,0,3.8,0,5.6c0,1.3,0,2.7,0,4c0,0.6,0,1.2,0,1.7
			c0,0.2-0.1,0.4-0.1,0.6c0,0.5,0,1.3,0,2.1c0,1.1-0.2,1.9-0.1,2.5c0,0.7,0.4,1.9,0.7,2c0.2,0.1,0.6-0.5,0.7-1
			c0.1-0.6,0.1-1.5,0.2-2.1c-0.1-2.6-0.1-5.4-0.1-7.9c0-1.5,0-3.2,0.1-4.8c0-0.5-0.1-1-0.1-1.4c0-1.5,0.1-2.9,0-4
			c-0.1-0.8,0-1.6,0-2.5c0-1.1-0.1-2.2-0.1-3.3c0.2-1.4,0-3.7,0.1-5.4c0.2-3.9-0.2-8.1,0-12.1c0-0.4-0.1-0.8-0.1-1.2
			c0-0.7,0-1.4,0-2.1c-0.5,0-1,0-1.5,0l-0.4,0l-0.2,0c-0.1,0-0.3,0-0.4,0c-0.3,0-0.5,0-0.8,0.1c-0.4,0-0.8,0-1.2,0c-0.7,0-1.3,0-2,0
			c0,0.7,0,1.3,0,1.9c0,0.4,0,0.7,0,1.1c0,0.4,0.1,0.7,0.1,1c0,0.3-0.1,0.6-0.1,0.9c0,0.5,0,1.1,0.1,1.7c0.1,1.9,0.1,3.3,0,4.8
			c0.1,0.7,0.1,1.8,0.1,2.6c0,1.1-0.1,2.2,0,3.4c0,0.2,0.1,0.5,0.1,0.8c0,1.1,0,2.7,0,3.6c0,0.7,0.1,1.4,0.1,2.1
			c0,0.3-0.1,0.6-0.1,0.9c0,0.8,0.1,1.6,0.1,2.4c0,1.3,0,2.8,0,4.2c0,0.3,0.1,0.1,0.1,0.4c-0.1,0.8-0.2,1.7-0.2,2.6
			c-0.1,1.4,0.1,3,0.1,4.5c0,0.7-0.1,1.4,0,2c-0.1,1-0.1,2.2-0.1,3.4c0,0.6,0,1.2,0,1.8c0,0.8,0,1.5,0.1,2.2c0.1,0,0.3,0,0.4,0
			c1.2-0.2,2.1-0.1,2.7-0.3c1.7,0,2.8-0.5,1.7-0.9c-0.7-0.1-1.1-0.3-1.9-0.3c-0.4,0-0.8,0-1.2,0.1c-0.3,0-0.2,0-0.3,0.1
			c0,0-0.1,0-0.1,0l0,0c0,0,0-0.1,0-0.1c0,0,0,0,0,0c0-0.1,0-0.2,0-0.3c0-0.6-0.1-1.4-0.1-2.1c0-0.3,0.1-0.7,0.1-0.9
			c0-0.3-0.1-0.6-0.1-0.9c0-0.4,0.1-0.7,0.1-1.1c0-0.3-0.1-0.5-0.1-0.8c0-1.9,0.2-4.1,0-5.8c0.2-0.5,0.1-1.2,0.1-1.8
			c0-0.8,0.1-1.7,0.1-2.5c0-0.3-0.1-0.5-0.1-0.7c0-0.3,0.1-0.6,0.1-0.9c0-0.3-0.1-0.6-0.1-0.9c0-0.7,0-1.4,0-2.1c0-2-0.2-4-0.1-6.2
			c0-0.6,0.1-1.1,0.1-1.7c0-1-0.1-1.9-0.1-2.9c0-1,0.1-2,0-2.9c0-0.3-0.1-0.5-0.1-0.8c0-0.6,0.1-1,0.1-1.6c0-1.1-0.1-2.2-0.1-3.2
			c-0.2-0.4,0-0.9-0.1-1.5c0.1-0.6,0.1-1.4,0.1-2.1c0-0.4,0-0.7,0-1.1c0-0.2,0-0.3-0.1-0.5c0,0,0.1,0,0.1,0c0.1,0,0.2,0,0.4,0
			c0.2,0,0.5,0,0.7,0c0.5,0,1,0,1.5-0.1c0.2,0,0.5,0,0.7,0.1c0.1,0,0.3,0,0.4,0C18.9,132.9,18.9,133.7,19,134.5z"/>
	</g>
	<g>
		<path class="st1" d="M30.4,152.5l0.8-1.2c0.5,0.5,1.3,1,2.2,1c0.8,0,1.2-0.4,1.2-0.8c0-1.2-4-0.4-4-3c0-1.2,1-2.1,2.7-2.1
			c1.1,0,2,0.3,2.7,1l-0.8,1.1c-0.6-0.5-1.3-0.8-2-0.8c-0.6,0-1,0.3-1,0.7c0,1.1,4,0.4,4,3c0,1.3-0.9,2.2-2.8,2.2
			C32,153.6,31.1,153.2,30.4,152.5z"/>
		<path class="st1" d="M37,150.9c0-1.5,1.1-2.7,2.6-2.7c1.5,0,2.5,1.1,2.5,2.8v0.3h-3.8c0.1,0.6,0.6,1.1,1.5,1.1
			c0.4,0,1-0.2,1.3-0.5l0.6,0.9c-0.5,0.5-1.3,0.7-2.1,0.7C38.2,153.6,37,152.6,37,150.9z M39.7,149.4c-0.8,0-1.2,0.6-1.2,1.1h2.5
			C40.9,150,40.5,149.4,39.7,149.4z"/>
		<path class="st1" d="M46.8,153.5v-3.1c0-0.7-0.4-0.9-0.9-0.9c-0.5,0-0.9,0.3-1.2,0.6v3.4h-1.3v-5.1h1.3v0.7c0.3-0.4,1-0.8,1.8-0.8
			c1.1,0,1.7,0.6,1.7,1.6v3.6H46.8z"/>
		<path class="st1" d="M53.1,153.5v-0.7c-0.4,0.5-0.9,0.8-1.6,0.8c-1.3,0-2.2-1-2.2-2.7c0-1.6,1-2.7,2.2-2.7c0.6,0,1.2,0.3,1.6,0.8
			v-2.6h1.3v7H53.1z M53.1,151.9v-1.8c-0.2-0.3-0.7-0.6-1.1-0.6c-0.8,0-1.3,0.6-1.3,1.5c0,0.9,0.5,1.5,1.3,1.5
			C52.4,152.4,52.9,152.2,53.1,151.9z"/>
		<path class="st1" d="M55.9,147.1c0-0.4,0.4-0.8,0.8-0.8c0.4,0,0.8,0.3,0.8,0.8c0,0.4-0.4,0.8-0.8,0.8
			C56.3,147.9,55.9,147.5,55.9,147.1z M56,153.5v-5.1h1.3v5.1H56z"/>
		<path class="st1" d="M62.3,153.5v-3.1c0-0.7-0.4-0.9-0.9-0.9c-0.5,0-0.9,0.3-1.2,0.6v3.4h-1.3v-5.1h1.3v0.7c0.3-0.4,1-0.8,1.8-0.8
			c1.1,0,1.7,0.6,1.7,1.6v3.6H62.3z"/>
		<path class="st1" d="M65.1,154.8l0.6-1c0.4,0.4,1,0.6,1.6,0.6c0.6,0,1.4-0.3,1.4-1.3v-0.5c-0.4,0.5-0.9,0.8-1.6,0.8
			c-1.3,0-2.2-0.9-2.2-2.6c0-1.7,1-2.6,2.2-2.6c0.6,0,1.2,0.3,1.6,0.8v-0.7H70v4.7c0,1.9-1.5,2.4-2.7,2.4
			C66.4,155.5,65.7,155.3,65.1,154.8z M68.7,151.7V150c-0.2-0.3-0.7-0.6-1.1-0.6c-0.8,0-1.3,0.5-1.3,1.4s0.5,1.4,1.3,1.4
			C68,152.3,68.4,152,68.7,151.7z"/>
	</g>
	<g>
		<path class="st1" d="M290.6,153.1v-1.3h3v1.3H290.6z"/>
		<path class="st1" d="M300.5,155.6c-1.3-0.1-2.3-0.6-3-1.3l1-1.4c0.5,0.5,1.1,0.9,2,1.1v-1.9c-1.3-0.3-2.7-0.8-2.7-2.5
			c0-1.3,1-2.3,2.7-2.5v-1.2h1.2v1.2c1,0.1,1.9,0.5,2.5,1.1l-1,1.3c-0.4-0.4-1-0.7-1.6-0.8v1.7c1.3,0.3,2.7,0.8,2.7,2.5
			c0,1.4-0.9,2.5-2.7,2.6v1.1h-1.2V155.6z M300.5,150.1v-1.5c-0.5,0.1-0.9,0.4-0.9,0.8C299.6,149.8,300,150,300.5,150.1z
			 M301.7,152.4v1.7c0.6-0.1,0.9-0.5,0.9-0.9C302.6,152.7,302.2,152.5,301.7,152.4z"/>
		<path class="st1" d="M307.4,155.5v-6l-1.4,1.4l-1-1.1l2.6-2.6h1.5v8.3H307.4z"/>
		<path class="st1" d="M311.4,157.2l-0.7-0.6c0.4-0.2,0.9-0.7,1-1.2c0,0-0.1,0-0.2,0c-0.5,0-0.9-0.4-0.9-0.9c0-0.5,0.5-1,1-1
			c0.6,0,1.1,0.5,1.1,1.3C312.6,155.8,312.1,156.7,311.4,157.2z"/>
		<path class="st1" d="M313.7,155.5v-1.4c3.4-2.5,4.4-3.4,4.4-4.4c0-0.7-0.7-1.1-1.3-1.1c-1,0-1.7,0.4-2.2,1l-1-1.2
			c0.8-0.9,2-1.4,3.2-1.4c1.8,0,3.2,1,3.2,2.7c0,1.4-1.2,2.7-3.3,4.2h3.4v1.6H313.7z"/>
		<path class="st1" d="M321.1,151.3c0-2.1,1.1-4.3,3.4-4.3s3.4,2.1,3.4,4.3s-1.1,4.3-3.4,4.3S321.1,153.5,321.1,151.3z M326.2,151.3
			c0-1.5-0.4-2.7-1.6-2.7c-1.2,0-1.6,1.2-1.6,2.7s0.4,2.7,1.6,2.7S326.2,152.9,326.2,151.3z"/>
		<path class="st1" d="M328.8,151.3c0-2.1,1.1-4.3,3.4-4.3s3.4,2.1,3.4,4.3s-1.1,4.3-3.4,4.3S328.8,153.5,328.8,151.3z M333.9,151.3
			c0-1.5-0.4-2.7-1.6-2.7c-1.2,0-1.6,1.2-1.6,2.7s0.4,2.7,1.6,2.7S333.9,152.9,333.9,151.3z"/>
	</g>
	<path class="st1" d="M41.8,161.7c0.6,0,1.2,0,1.7,0c0.1,0,0.3-0.1,0.4,0c0.3,0.1,0.7,0.2,1,0.1c0,0,0.1-0.1,0.1-0.1
		c0.3-0.1,0.6,0.1,0.8,0.1c0.2,0,0.4,0.1,0.6,0.1c0.1,0,0.3-0.1,0.4-0.1c0.4-0.1,0.8,0,1.1,0c0.3,0,0.5,0,0.8,0c0.1,0,0.2,0,0.3,0
		c0,0,0.1,0.1,0.1,0.2c0.1,0.1,0.3,0,0.4,0c0.2,0.1,0.4,0.3,0.5,0.2c0.1-0.1,0.4-0.6,0.4-0.9c0-0.3-0.1-0.8-0.2-1
		c-0.1-0.2-0.3-0.1-0.4-0.3c-0.5,0.1-1.1,0-1.6,0c-0.3,0-0.6-0.1-0.9-0.1c-0.1,0-0.2,0.1-0.3,0.1c-0.3,0-0.6-0.2-0.8,0
		c-0.2,0.1-0.3,0-0.5,0c-0.2,0-0.4,0.1-0.7,0.1c-0.3-0.3-0.7,0-1.1-0.1c-0.8-0.2-1.6,0.2-2.4-0.1c-0.2,0.1-0.4,0-0.6,0
		c-0.1,0-0.2,0.1-0.3,0.1c-0.3,0.1-0.6-0.1-0.9-0.1c-0.1,0-0.1,0.1-0.2,0.1c-0.1,0-0.1-0.1-0.2-0.1c-0.1,0-0.2,0.1-0.3,0.1
		c-0.4,0.1-0.7,0.1-1,0c-0.1,0.1-0.3,0.1-0.5,0.1c-0.2,0-0.4-0.1-0.7-0.1c0,0-0.1,0.1-0.2,0.1c-0.2,0.1-0.5,0-0.7-0.1
		c-0.1,0-0.3,0.1-0.4,0.1c-0.1,0-0.1-0.1-0.2-0.1c-0.2,0-0.3,0.1-0.5,0.1c-0.3,0-0.6,0-0.8,0c-0.1,0,0,0.2-0.1,0.2
		c-0.2-0.1-0.3-0.2-0.5-0.3c-0.3-0.1-0.6,0.1-0.9,0.1c-0.1,0-0.3-0.2-0.4,0c-0.4-0.3-1-0.2-1.4,0c-0.1,0.2-0.4,0.2-0.5,0.4
		c-0.3-0.1-0.6,0.6-0.4,1.2c0.1,0.1,0.2,0.3,0.4,0.4c0.2,0,0.3-0.2,0.5-0.2c0.1,0,0.2,0.1,0.2,0.1c0.1,0,0.3-0.1,0.4-0.1
		c0.1,0,0.1,0.1,0.2,0.1c0.1,0,0.1-0.1,0.2-0.1c0.1,0,0.1,0.1,0.2,0.1c0.1,0,0.1-0.1,0.2-0.1c0.4,0,0.8,0.3,1.1,0
		c0.1,0.3,0.2,0.1,0.4,0.1c0.2,0,0.3,0.2,0.5,0.2c0.1,0,0.1-0.1,0.1-0.1c0.1,0,0.1,0.1,0.2,0.1c0.1,0,0.1-0.1,0.2-0.1
		c0.1,0,0.3,0,0.4,0c0.4-0.1,0.8-0.2,1.2-0.2c0.1,0,0.2,0.1,0.3,0.1c0.2,0,0.4-0.1,0.6-0.1c0.2,0,0.4,0.1,0.6,0.1
		c0.1,0,0.1-0.1,0.2-0.1c0.1,0,0.2,0.1,0.3,0.1c0.2,0,0.4-0.2,0.6-0.1c0.1-0.2,0.2,0,0.3-0.2c0.3,0.2,0.6,0.2,0.9-0.1
		c0.2,0.1,0.4,0.1,0.6,0C41.2,161.8,41.5,161.7,41.8,161.7z"/>
	<path class="st1" d="M63.7,161.7c0.5,0,1.1,0,1.5,0c0.1,0,0.2-0.1,0.4,0c0.3,0.1,0.6,0.2,0.9,0.1c0,0,0.1-0.1,0.1-0.1
		c0.2-0.1,0.5,0.1,0.8,0.1c0.2,0,0.3,0.1,0.5,0.1c0.1,0,0.2-0.1,0.4-0.1c0.3-0.1,0.7,0,1,0c0.2,0,0.5,0,0.7,0c0.1,0,0.2,0,0.3,0
		c0,0,0.1,0.1,0.1,0.2c0.1,0.1,0.2,0,0.4,0c0.2,0.1,0.3,0.3,0.4,0.2c0.1-0.1,0.4-0.6,0.4-0.9c0-0.3-0.1-0.8-0.2-1
		c-0.1-0.2-0.3-0.1-0.4-0.3c-0.5,0.1-1,0-1.4,0c-0.3,0-0.6-0.1-0.9-0.1c-0.1,0-0.2,0.1-0.3,0.1c-0.3,0-0.5-0.2-0.7,0
		c-0.1,0.1-0.3,0-0.4,0c-0.2,0-0.4,0.1-0.6,0.1c-0.2-0.3-0.7,0-1-0.1c-0.7-0.2-1.4,0.2-2.1-0.1c-0.2,0.1-0.4,0-0.6,0
		c-0.1,0-0.2,0.1-0.3,0.1c-0.3,0.1-0.6-0.1-0.8-0.1c-0.1,0-0.1,0.1-0.2,0.1c-0.1,0-0.1-0.1-0.2-0.1c-0.1,0-0.2,0.1-0.3,0.1
		c-0.3,0.1-0.6,0.1-0.9,0c-0.1,0.1-0.3,0.1-0.5,0.1c-0.2,0-0.4-0.1-0.6-0.1c0,0-0.1,0.1-0.1,0.1c-0.2,0.1-0.5,0-0.6-0.1
		c-0.1,0-0.2,0.1-0.4,0.1c-0.1,0-0.1-0.1-0.2-0.1c-0.1,0-0.3,0.1-0.4,0.1c-0.2,0-0.5,0-0.7,0c-0.1,0,0,0.2-0.1,0.2
		c-0.1-0.1-0.3-0.2-0.5-0.3c-0.3-0.1-0.5,0.1-0.8,0.1c-0.1,0-0.2-0.2-0.4,0c-0.4-0.3-0.9-0.2-1.3,0c-0.1,0.2-0.3,0.2-0.4,0.4
		c-0.3-0.1-0.5,0.6-0.3,1.2c0.1,0.1,0.2,0.3,0.3,0.4c0.1,0,0.3-0.2,0.4-0.2c0.1,0,0.1,0.1,0.2,0.1c0.1,0,0.2-0.1,0.4-0.1
		c0.1,0,0.1,0.1,0.2,0.1c0.1,0,0.1-0.1,0.2-0.1c0.1,0,0.1,0.1,0.2,0.1c0,0,0.1-0.1,0.1-0.1c0.3,0,0.7,0.3,1,0
		c0.1,0.3,0.2,0.1,0.3,0.1c0.1,0,0.3,0.2,0.4,0.2c0,0,0.1-0.1,0.1-0.1c0.1,0,0.1,0.1,0.2,0.1c0.1,0,0.1-0.1,0.2-0.1
		c0.1,0,0.2,0,0.4,0c0.4-0.1,0.7-0.2,1.1-0.2c0.1,0,0.2,0.1,0.3,0.1c0.2,0,0.3-0.1,0.5-0.1c0.2,0,0.3,0.1,0.5,0.1
		c0,0,0.1-0.1,0.1-0.1c0.1,0,0.2,0.1,0.3,0.1c0.2,0,0.4-0.2,0.6-0.1c0.1-0.2,0.2,0,0.3-0.2c0.2,0.2,0.6,0.2,0.8-0.1
		c0.1,0.1,0.3,0.1,0.5,0C63.2,161.8,63.5,161.7,63.7,161.7z"/>
	<path class="st1" d="M135.6,149.4c1.6-0.1,3.4,0,4.7,0c0.4,0,0.7-0.1,1.1,0c0.9,0.1,1.8,0.2,2.7,0.1c0.1,0,0.2-0.1,0.3-0.1
		c0.7-0.1,1.6,0.1,2.3,0c0.5-0.1,1,0.1,1.5,0c0.4,0,0.7-0.1,1.1-0.2c1-0.1,2.1,0,3,0c0.7,0,1.5,0,2.2,0c0.3,0,0.6,0,0.9,0
		c0.1,0,0.2,0.1,0.3,0.2c0.3,0.1,0.7,0,1.2,0c0.6,0.1,1,0.2,1.4,0.2c0.4-0.1,1-0.6,1.1-0.9c0-0.3-0.3-0.8-0.6-1
		c-0.3-0.2-0.8-0.1-1.1-0.3c-1.4,0.1-2.9,0.1-4.3,0.1c-0.8,0-1.7,0-2.6-0.1c-0.3,0-0.5,0.1-0.8,0.1c-0.8,0-1.6-0.1-2.2,0
		c-0.4,0.1-0.8,0-1.3,0c-0.6,0-1.2,0.1-1.8,0.2c-0.8-0.3-2,0-2.9-0.1c-2.1-0.2-4.4,0.2-6.5,0c-0.6,0.1-1.2,0-1.7,0
		c-0.3,0-0.5,0.1-0.9,0.1c-0.8,0.1-1.7-0.1-2.4,0c-0.2,0-0.4,0.1-0.6,0.1c-0.2,0-0.3-0.1-0.5-0.1c-0.3,0-0.6,0.1-0.9,0.1
		c-1,0.1-1.8,0.1-2.6,0c-0.4,0.1-0.9,0.1-1.4,0.1c-0.6,0-1.2-0.1-1.8,0c-0.1,0-0.3,0.1-0.4,0.1c-0.6,0.1-1.4,0-1.9,0
		c-0.4,0-0.7,0.1-1.1,0.1c-0.2,0-0.3-0.1-0.5-0.1c-0.4,0-0.9,0.1-1.3,0.1c-0.7,0-1.5,0-2.3,0c-0.2,0-0.1,0.2-0.2,0.2
		c-0.4-0.1-0.9-0.2-1.4-0.3c-0.8-0.1-1.6,0.1-2.4,0.1c-0.4,0-0.8-0.2-1.1,0c-1.1-0.3-2.7-0.1-3.9,0c-0.3,0.2-1,0.2-1.2,0.4
		c-0.9-0.1-1.5,0.6-0.9,1.2c0.4,0.1,0.6,0.3,1,0.3c0.4,0,0.9-0.2,1.3-0.2c0.2,0,0.4,0.1,0.6,0.1c0.3,0,0.7-0.1,1.1-0.1
		c0.2,0,0.4,0.1,0.5,0.1c0.2,0,0.3-0.1,0.5-0.1c0.2,0,0.4,0.1,0.6,0.1c0.1,0,0.3-0.1,0.4-0.1c1.1,0,2.2,0.3,3.1,0
		c0.3,0.3,0.7,0.1,1,0.1c0.4,0,0.9,0.2,1.3,0.2c0.1,0,0.2-0.1,0.4-0.1c0.2,0,0.3,0.1,0.5,0.1c0.2,0,0.3-0.1,0.5-0.1
		c0.4-0.1,0.8,0,1.2,0c1.1-0.1,2.2-0.2,3.3-0.2c0.3,0,0.6,0.1,0.9,0.1c0.6,0,1-0.1,1.6-0.2c0.5,0,1.1,0.1,1.6,0
		c0.1,0,0.3-0.1,0.4-0.1c0.3,0,0.6,0.1,0.9,0.1c0.6,0,1.2-0.2,1.7-0.1c0.2-0.2,0.5,0,0.8-0.2c0.7,0.2,1.8,0.1,2.4-0.1
		c0.4,0.1,1.1,0,1.5,0C134,149.6,134.8,149.4,135.6,149.4z"/>
	<path class="st1" d="M125.1,158.4c1.1-0.1,2.3,0,3.2,0c0.3,0,0.5-0.1,0.7,0c0.6,0.1,1.2,0.2,1.8,0.1c0.1,0,0.2-0.1,0.2-0.1
		c0.5-0.1,1,0.1,1.5,0c0.4-0.1,0.7,0.1,1,0c0.3,0,0.5-0.1,0.7-0.2c0.7-0.1,1.4,0,2,0c0.5,0,1,0,1.5,0c0.2,0,0.4,0,0.6,0
		c0.1,0,0.2,0.1,0.2,0.2c0.2,0.1,0.5,0,0.8,0c0.4,0.1,0.7,0.2,0.9,0.2c0.2-0.1,0.7-0.6,0.7-0.9c0-0.3-0.2-0.8-0.4-1
		c-0.2-0.2-0.6-0.1-0.7-0.3c-1,0.1-2,0.1-2.9,0.1c-0.6,0-1.2,0-1.7-0.1c-0.2,0-0.3,0.1-0.5,0.1c-0.6,0-1.1-0.1-1.5,0
		c-0.3,0.1-0.6,0-0.9,0c-0.4,0-0.8,0.1-1.2,0.2c-0.5-0.3-1.3,0-1.9-0.1c-1.4-0.2-2.9,0.2-4.4,0c-0.4,0.1-0.8,0-1.1,0
		c-0.2,0-0.4,0.1-0.6,0.1c-0.5,0.1-1.1-0.1-1.6,0c-0.1,0-0.2,0.1-0.4,0.1c-0.1,0-0.2-0.1-0.3-0.1c-0.2,0-0.4,0.1-0.6,0.1
		c-0.7,0.1-1.2,0.1-1.7,0c-0.3,0.1-0.6,0.1-0.9,0.1c-0.4,0-0.8-0.1-1.2,0c-0.1,0-0.2,0.1-0.3,0.1c-0.4,0.1-1,0-1.3,0
		c-0.2,0-0.5,0.1-0.7,0.1c-0.1,0-0.2-0.1-0.3-0.1c-0.3,0-0.6,0.1-0.9,0.1c-0.5,0-1,0-1.5,0c-0.1,0,0,0.2-0.1,0.2
		c-0.3-0.1-0.6-0.2-0.9-0.3c-0.5-0.1-1.1,0.1-1.6,0.1c-0.2,0-0.5-0.2-0.7,0c-0.7-0.3-1.8-0.1-2.6,0c-0.2,0.2-0.6,0.2-0.8,0.4
		c-0.6-0.1-1,0.6-0.6,1.2c0.3,0.1,0.4,0.3,0.7,0.3c0.3,0,0.6-0.2,0.9-0.2c0.1,0,0.3,0.1,0.4,0.1c0.2,0,0.5-0.1,0.7-0.1
		c0.1,0,0.2,0.1,0.3,0.1c0.1,0,0.2-0.1,0.3-0.1c0.1,0,0.3,0.1,0.4,0.1c0.1,0,0.2-0.1,0.3-0.1c0.7,0,1.5,0.3,2.1,0
		c0.2,0.3,0.4,0.1,0.7,0.1c0.3,0,0.6,0.2,0.9,0.2c0.1,0,0.2-0.1,0.3-0.1c0.1,0,0.2,0.1,0.3,0.1c0.1,0,0.2-0.1,0.3-0.1
		c0.2-0.1,0.5,0,0.8,0c0.7-0.1,1.5-0.2,2.2-0.2c0.2,0,0.4,0.1,0.6,0.1c0.4,0,0.7-0.1,1.1-0.2c0.3,0,0.7,0.1,1.1,0
		c0.1,0,0.2-0.1,0.3-0.1c0.2,0,0.4,0.1,0.6,0.1c0.4,0,0.8-0.2,1.2-0.1c0.2-0.2,0.3,0,0.5-0.2c0.5,0.2,1.2,0.1,1.6-0.1
		c0.3,0.1,0.7,0,1,0C124,158.6,124.6,158.4,125.1,158.4z"/>
	<path class="st1" d="M224.9,149.4c1.6-0.1,3.4,0,4.7,0c0.4,0,0.7-0.1,1.1,0c0.9,0.1,1.8,0.2,2.7,0.1c0.1,0,0.2-0.1,0.3-0.1
		c0.7-0.1,1.6,0.1,2.3,0c0.5-0.1,1,0.1,1.5,0c0.4,0,0.7-0.1,1.1-0.2c1-0.1,2.1,0,3,0c0.7,0,1.5,0,2.2,0c0.3,0,0.6,0,0.9,0
		c0.1,0,0.2,0.1,0.3,0.2c0.3,0.1,0.7,0,1.2,0c0.6,0.1,1,0.2,1.4,0.2c0.4-0.1,1-0.6,1.1-0.9c0-0.3-0.3-0.8-0.6-1
		c-0.3-0.2-0.8-0.1-1.1-0.3c-1.4,0.1-2.9,0.1-4.3,0.1c-0.8,0-1.7,0-2.6-0.1c-0.3,0-0.5,0.1-0.8,0.1c-0.8,0-1.6-0.1-2.2,0
		c-0.4,0.1-0.8,0-1.3,0c-0.6,0-1.2,0.1-1.8,0.2c-0.8-0.3-2,0-2.9-0.1c-2.1-0.2-4.4,0.2-6.5,0c-0.6,0.1-1.2,0-1.7,0
		c-0.3,0-0.5,0.1-0.9,0.1c-0.8,0.1-1.7-0.1-2.4,0c-0.2,0-0.4,0.1-0.6,0.1c-0.2,0-0.3-0.1-0.5-0.1c-0.3,0-0.6,0.1-0.9,0.1
		c-1,0.1-1.8,0.1-2.6,0c-0.4,0.1-0.9,0.1-1.4,0.1c-0.6,0-1.2-0.1-1.8,0c-0.1,0-0.3,0.1-0.4,0.1c-0.6,0.1-1.4,0-1.9,0
		c-0.4,0-0.7,0.1-1.1,0.1c-0.2,0-0.3-0.1-0.5-0.1c-0.4,0-0.9,0.1-1.3,0.1c-0.7,0-1.5,0-2.3,0c-0.2,0-0.1,0.2-0.2,0.2
		c-0.4-0.1-0.9-0.2-1.4-0.3c-0.8-0.1-1.6,0.1-2.4,0.1c-0.4,0-0.8-0.2-1.1,0c-1.1-0.3-2.7-0.1-3.9,0c-0.3,0.2-1,0.2-1.2,0.4
		c-0.9-0.1-1.5,0.6-0.9,1.2c0.4,0.1,0.6,0.3,1,0.3c0.4,0,0.9-0.2,1.3-0.2c0.2,0,0.4,0.1,0.6,0.1c0.3,0,0.7-0.1,1.1-0.1
		c0.2,0,0.4,0.1,0.5,0.1c0.2,0,0.3-0.1,0.5-0.1c0.2,0,0.4,0.1,0.6,0.1c0.1,0,0.3-0.1,0.4-0.1c1.1,0,2.2,0.3,3.1,0
		c0.3,0.3,0.7,0.1,1,0.1c0.4,0,0.9,0.2,1.3,0.2c0.1,0,0.2-0.1,0.4-0.1c0.2,0,0.3,0.1,0.5,0.1c0.2,0,0.3-0.1,0.5-0.1
		c0.4-0.1,0.8,0,1.2,0c1.1-0.1,2.2-0.2,3.3-0.2c0.3,0,0.6,0.1,0.9,0.1c0.6,0,1-0.1,1.6-0.2c0.5,0,1.1,0.1,1.6,0
		c0.1,0,0.3-0.1,0.4-0.1c0.3,0,0.6,0.1,0.9,0.1c0.6,0,1.2-0.2,1.7-0.1c0.2-0.2,0.5,0,0.8-0.2c0.7,0.2,1.8,0.1,2.4-0.1
		c0.4,0.1,1.1,0,1.5,0C223.2,149.6,224,149.4,224.9,149.4z"/>
	<path class="st1" d="M229.4,158.4c1.9-0.1,3.9,0,5.4,0c0.4,0,0.8-0.1,1.3,0c1,0.1,2.1,0.2,3.1,0.1c0.1,0,0.3-0.1,0.4-0.1
		c0.8-0.1,1.8,0.1,2.6,0c0.6-0.1,1.1,0.1,1.8,0c0.5,0,0.8-0.1,1.2-0.2c1.2-0.1,2.4,0,3.5,0c0.8,0,1.7,0,2.5,0c0.3,0,0.7,0,1,0
		c0.1,0,0.3,0.1,0.4,0.2c0.3,0.1,0.8,0,1.3,0c0.7,0.1,1.2,0.2,1.6,0.2c0.4-0.1,1.2-0.6,1.2-0.9c0-0.3-0.3-0.8-0.6-1
		c-0.3-0.2-0.9-0.1-1.3-0.3c-1.6,0.1-3.3,0.1-4.9,0.1c-1,0-2,0-3-0.1c-0.3,0-0.6,0.1-0.9,0.1c-0.9,0-1.8-0.1-2.5,0
		c-0.5,0.1-1,0-1.5,0c-0.7,0-1.4,0.1-2,0.2c-0.9-0.3-2.3,0-3.3-0.1c-2.4-0.2-5,0.2-7.5,0c-0.6,0.1-1.4,0-1.9,0c-0.3,0-0.6,0.1-1,0.1
		c-0.9,0.1-1.9-0.1-2.8,0c-0.2,0-0.4,0.1-0.6,0.1c-0.2,0-0.4-0.1-0.6-0.1c-0.3,0-0.7,0.1-1,0.1c-1.1,0.1-2.1,0.1-3,0
		c-0.4,0.1-1.1,0.1-1.6,0.1c-0.7,0-1.4-0.1-2.1,0c-0.2,0-0.3,0.1-0.5,0.1c-0.7,0.1-1.6,0-2.2,0c-0.4,0-0.8,0.1-1.3,0.1
		c-0.2,0-0.4-0.1-0.5-0.1c-0.5,0-1,0.1-1.5,0.1c-0.8,0-1.7,0-2.6,0c-0.2,0-0.1,0.2-0.2,0.2c-0.5-0.1-1-0.2-1.6-0.3
		c-0.9-0.1-1.9,0.1-2.8,0.1c-0.4,0-0.9-0.2-1.2,0c-1.2-0.3-3.1-0.1-4.4,0c-0.4,0.2-1.1,0.2-1.4,0.4c-1-0.1-1.7,0.6-1.1,1.2
		c0.4,0.1,0.7,0.3,1.2,0.3c0.5,0,1-0.2,1.5-0.2c0.2,0,0.5,0.1,0.7,0.1c0.4,0,0.8-0.1,1.3-0.1c0.2,0,0.4,0.1,0.6,0.1
		c0.2,0,0.4-0.1,0.5-0.1c0.2,0,0.4,0.1,0.7,0.1c0.2,0,0.3-0.1,0.5-0.1c1.2,0,2.5,0.3,3.6,0c0.3,0.3,0.8,0.1,1.1,0.1
		c0.5,0,1,0.2,1.5,0.2c0.2,0,0.3-0.1,0.4-0.1c0.2,0,0.4,0.1,0.6,0.1c0.2,0,0.4-0.1,0.6-0.1c0.4-0.1,0.9,0,1.3,0
		c1.2-0.1,2.5-0.2,3.8-0.2c0.4,0,0.7,0.1,1.1,0.1c0.6,0,1.2-0.1,1.8-0.2c0.6,0,1.2,0.1,1.8,0c0.2,0,0.3-0.1,0.5-0.1
		c0.3,0,0.6,0.1,1,0.1c0.7,0,1.3-0.2,2-0.1c0.3-0.2,0.6,0,0.9-0.2c0.8,0.2,2,0.1,2.8-0.1c0.5,0.1,1.2,0,1.8,0
		C227.5,158.6,228.4,158.4,229.4,158.4z"/>
	<path class="st1" d="M264.7,44.5c2.6-0.1,5.4,0,7.5,0c0.6,0,1.2-0.1,1.8,0c1.4,0.1,2.9,0.2,4.4,0.1c0.2,0,0.4-0.1,0.5-0.1
		c1.1-0.1,2.5,0.1,3.7,0c0.9-0.1,1.6,0.1,2.4,0c0.6,0,1.2-0.1,1.7-0.2c1.7-0.1,3.3,0,4.8,0c1.1,0,2.3,0,3.5,0c0.5,0,1,0,1.4,0
		c0.2,0,0.4,0.1,0.5,0.2c0.5,0.1,1.2,0,1.8,0c0.9,0.1,1.7,0.2,2.2,0.2c0.6-0.1,1.6-0.6,1.7-0.9c0-0.3-0.5-0.8-0.9-1
		c-0.5-0.2-1.3-0.1-1.8-0.3c-2.3,0.1-4.6,0.1-6.8,0.1c-1.3,0-2.7,0-4.1-0.1c-0.4,0-0.8,0.1-1.2,0.1c-1.3,0-2.5-0.1-3.5,0
		c-0.7,0.1-1.3,0-2.1,0c-0.9,0-1.9,0.1-2.9,0.2c-1.2-0.3-3.2,0-4.6-0.1c-3.3-0.2-6.9,0.2-10.4,0c-0.9,0.1-1.9,0-2.7,0
		c-0.4,0-0.9,0.1-1.4,0.1c-1.3,0.1-2.7-0.1-3.9,0c-0.3,0-0.6,0.1-0.9,0.1c-0.3,0-0.5-0.1-0.8-0.1c-0.5,0-1,0.1-1.4,0.1
		c-1.6,0.1-2.9,0.1-4.1,0c-0.6,0.1-1.5,0.1-2.2,0.1c-1,0-1.9-0.1-2.9,0c-0.2,0-0.5,0.1-0.7,0.1c-1,0.1-2.3,0-3.1,0
		c-0.6,0-1.2,0.1-1.8,0.1c-0.2,0-0.5-0.1-0.7-0.1c-0.7,0-1.4,0.1-2,0.1c-1.1,0-2.4,0-3.6,0c-0.3,0-0.1,0.2-0.3,0.2
		c-0.7-0.1-1.4-0.2-2.2-0.3c-1.2-0.1-2.6,0.1-3.9,0.1c-0.6,0-1.2-0.2-1.7,0c-1.7-0.3-4.3-0.1-6.2,0c-0.5,0.2-1.5,0.2-2,0.4
		c-1.4-0.1-2.4,0.6-1.5,1.2c0.6,0.1,1,0.3,1.6,0.3c0.7,0,1.4-0.2,2.1-0.2c0.3,0,0.7,0.1,1,0.1c0.6,0,1.2-0.1,1.8-0.1
		c0.3,0,0.6,0.1,0.8,0.1c0.3,0,0.5-0.1,0.7-0.1c0.3,0,0.6,0.1,1,0.1c0.2,0,0.4-0.1,0.7-0.1c1.7,0,3.6,0.3,5,0
		c0.5,0.3,1.1,0.1,1.6,0.1c0.7,0,1.4,0.2,2.1,0.2c0.2,0,0.4-0.1,0.6-0.1c0.3,0,0.6,0.1,0.8,0.1c0.3,0,0.6-0.1,0.8-0.1
		c0.6-0.1,1.2,0,1.8,0c1.7-0.1,3.4-0.2,5.3-0.2c0.5,0,1,0.1,1.5,0.1c0.9,0,1.7-0.1,2.5-0.2c0.8,0,1.7,0.1,2.5,0
		c0.2,0,0.5-0.1,0.7-0.1c0.5,0,0.9,0.1,1.4,0.1c1,0,1.9-0.2,2.8-0.1c0.4-0.2,0.8,0,1.3-0.2c1.2,0.2,2.8,0.1,3.9-0.1
		c0.7,0.1,1.7,0,2.4,0C262.2,44.7,263.4,44.6,264.7,44.5z"/>
	<path class="st1" d="M271.9,54.2c3-0.1,6.2,0,8.5,0c0.7,0,1.3-0.1,2,0c1.6,0.1,3.4,0.2,5,0.1c0.2,0,0.4-0.1,0.6-0.1
		c1.3-0.1,2.8,0.1,4.2,0c1-0.1,1.8,0.1,2.8,0c0.7,0,1.3-0.1,1.9-0.2c1.9-0.1,3.8,0,5.5,0c1.3,0,2.7,0,4,0c0.5,0,1.2,0,1.6,0
		c0.2,0,0.4,0.1,0.6,0.2c0.5,0.1,1.3,0,2.1,0c1,0.1,1.9,0.2,2.5,0.2c0.7-0.1,1.9-0.6,1.9-0.9c0.1-0.3-0.5-0.8-1-1
		c-0.6-0.2-1.5-0.1-2-0.3c-2.6,0.1-5.3,0.1-7.8,0.1c-1.5,0-3.1,0-4.7-0.1c-0.5,0-0.9,0.1-1.4,0.1c-1.5,0-2.9-0.1-4,0
		c-0.8,0.1-1.5,0-2.4,0c-1.1,0-2.2,0.1-3.3,0.2c-1.4-0.3-3.6,0-5.3-0.1c-3.8-0.2-7.9,0.2-11.9,0c-1,0.1-2.2,0-3.1,0
		c-0.5,0-1,0.1-1.6,0.1c-1.4,0.1-3.1-0.1-4.4,0c-0.3,0-0.7,0.1-1,0.1c-0.3,0-0.6-0.1-0.9-0.1c-0.5,0-1.1,0.1-1.6,0.1
		c-1.8,0.1-3.3,0.1-4.7,0c-0.7,0.1-1.7,0.1-2.6,0.1c-1.1,0-2.2-0.1-3.3,0c-0.2,0-0.5,0.1-0.8,0.1c-1.1,0.1-2.6,0-3.5,0
		c-0.7,0-1.3,0.1-2,0.1c-0.3,0-0.6-0.1-0.9-0.1c-0.8,0-1.6,0.1-2.3,0.1c-1.3,0-2.7,0-4.1,0c-0.3,0-0.1,0.2-0.4,0.2
		c-0.8-0.1-1.7-0.2-2.6-0.3c-1.4-0.1-3,0.1-4.4,0.1c-0.7,0-1.4-0.2-1.9,0c-2-0.3-4.9-0.1-7.1,0c-0.6,0.2-1.7,0.2-2.2,0.4
		c-1.6-0.1-2.8,0.6-1.7,1.2c0.7,0.1,1.1,0.3,1.9,0.3c0.8,0,1.6-0.2,2.4-0.2c0.4,0,0.8,0.1,1.2,0.1c0.6,0,1.3-0.1,2-0.1
		c0.3,0,0.6,0.1,0.9,0.1c0.3,0,0.6-0.1,0.9-0.1c0.4,0,0.7,0.1,1.1,0.1c0.3,0,0.5-0.1,0.8-0.1c1.9,0,4.1,0.3,5.7,0
		c0.5,0.3,1.2,0.1,1.8,0.1c0.8,0,1.6,0.2,2.4,0.2c0.3,0,0.5-0.1,0.7-0.1c0.3,0,0.6,0.1,0.9,0.1c0.3,0,0.6-0.1,0.9-0.1
		c0.7-0.1,1.4,0,2.1,0c2-0.1,3.9-0.2,6.1-0.2c0.6,0,1.1,0.1,1.7,0.1c1,0,1.9-0.1,2.9-0.2c0.9,0,1.9,0.1,2.9,0c0.3,0,0.5-0.1,0.8-0.1
		c0.5,0,1,0.1,1.6,0.1c1.1,0,2.1-0.2,3.2-0.1c0.4-0.2,0.9,0,1.5-0.2c1.3,0.2,3.2,0.1,4.4-0.1c0.8,0.1,1.9,0,2.8,0
		C269,54.4,270.5,54.2,271.9,54.2z"/>
	<path class="st1" d="M271.9,63.8c3-0.1,6.2,0,8.5,0c0.7,0,1.3-0.1,2,0c1.6,0.1,3.4,0.2,5,0.1c0.2,0,0.4-0.1,0.6-0.1
		c1.3-0.1,2.8,0.1,4.2,0c1-0.1,1.8,0.1,2.8,0c0.7,0,1.3-0.1,1.9-0.2c1.9-0.1,3.8,0,5.5,0c1.3,0,2.7,0,4,0c0.5,0,1.2,0,1.6,0
		c0.2,0,0.4,0.1,0.6,0.2c0.5,0.1,1.3,0,2.1,0c1,0.1,1.9,0.2,2.5,0.2c0.7-0.1,1.9-0.6,1.9-0.9c0.1-0.3-0.5-0.8-1-1
		c-0.6-0.2-1.5-0.1-2-0.3c-2.6,0.1-5.3,0.1-7.8,0.1c-1.5,0-3.1,0-4.7-0.1c-0.5,0-0.9,0.1-1.4,0.1c-1.5,0-2.9-0.1-4,0
		c-0.8,0.1-1.5,0-2.4,0c-1.1,0-2.2,0.1-3.3,0.2c-1.4-0.3-3.6,0-5.3-0.1c-3.8-0.2-7.9,0.2-11.9,0c-1,0.1-2.2,0-3.1,0
		c-0.5,0-1,0.1-1.6,0.1c-1.4,0.1-3.1-0.1-4.4,0c-0.3,0-0.7,0.1-1,0.1c-0.3,0-0.6-0.1-0.9-0.1c-0.5,0-1.1,0.1-1.6,0.1
		c-1.8,0.1-3.3,0.1-4.7,0c-0.7,0.1-1.7,0.1-2.6,0.1c-1.1,0-2.2-0.1-3.3,0c-0.2,0-0.5,0.1-0.8,0.1c-1.1,0.1-2.6,0-3.5,0
		c-0.7,0-1.3,0.1-2,0.1c-0.3,0-0.6-0.1-0.9-0.1c-0.8,0-1.6,0.1-2.3,0.1c-1.3,0-2.7,0-4.1,0c-0.3,0-0.1,0.2-0.4,0.2
		c-0.8-0.1-1.7-0.2-2.6-0.3c-1.4-0.1-3,0.1-4.4,0.1c-0.7,0-1.4-0.2-1.9,0c-2-0.3-4.9-0.1-7.1,0c-0.6,0.2-1.7,0.2-2.2,0.4
		c-1.6-0.1-2.8,0.6-1.7,1.2c0.7,0.1,1.1,0.3,1.9,0.3c0.8,0,1.6-0.2,2.4-0.2c0.4,0,0.8,0.1,1.2,0.1c0.6,0,1.3-0.1,2-0.1
		c0.3,0,0.6,0.1,0.9,0.1c0.3,0,0.6-0.1,0.9-0.1c0.4,0,0.7,0.1,1.1,0.1c0.3,0,0.5-0.1,0.8-0.1c1.9,0,4.1,0.3,5.7,0
		c0.5,0.3,1.2,0.1,1.8,0.1c0.8,0,1.6,0.2,2.4,0.2c0.3,0,0.5-0.1,0.7-0.1c0.3,0,0.6,0.1,0.9,0.1c0.3,0,0.6-0.1,0.9-0.1
		c0.7-0.1,1.4,0,2.1,0c2-0.1,3.9-0.2,6.1-0.2c0.6,0,1.1,0.1,1.7,0.1c1,0,1.9-0.1,2.9-0.2c0.9,0,1.9,0.1,2.9,0c0.3,0,0.5-0.1,0.8-0.1
		c0.5,0,1,0.1,1.6,0.1c1.1,0,2.1-0.2,3.2-0.1c0.4-0.2,0.9,0,1.5-0.2c1.3,0.2,3.2,0.1,4.4-0.1c0.8,0.1,1.9,0,2.8,0
		C269,64,270.5,63.8,271.9,63.8z"/>
	<path class="st1" d="M70,193.5c22.3,0,46.5,0,64.2,0c5.1,0,10.2,0,15.2,0c11.9,0.1,25.3,0.2,37.4,0.1c1.5,0,3.1-0.1,4.7-0.1
		c9.7-0.1,21.3,0.1,31.5,0c7.4-0.1,13.7,0.1,21,0c5.5-0.1,9.9-0.1,14.6-0.2c14.2-0.1,28.3,0,41.4,0c9.4,0,20.2,0,29.8,0
		c4.1,0,8.7,0,12.3,0c1.3,0,3.2,0.1,4.7,0.2c0.4,0,0.9,0,1.5,0c0,3.5,0,8.4,0,13c-0.1,7.8-0.2,14.3-0.2,18.7
		c0.1,4.9,0.6,14.2,0.9,14.6c0.3,0.4,0.8-3.9,1-7.6c0.2-4.2,0.1-11.3,0.3-15.2c0-8.3,0-16.9-0.1-25.4c-12.1,0-24.1,0-35.5,0
		c-11.4,0-23.5-0.1-35.6-0.1c-3.4,0-7.1,0.1-10.5,0.1c-11.3,0-21.7-0.1-29.8,0c-5.8,0.1-11.5,0-18.1,0c-8,0.1-16.4,0.1-24.5,0.2
		c-10.5-0.3-27.1,0-39.7-0.1c-28.6-0.2-59.6,0.2-89.3,0c-7.5,0.1-16.4,0-23.3,0c-3.8,0-7.5,0.1-11.7,0.1c-2.8,0-5.7,0-8.6,0
		c-3.3,0-6.6,0-9.8,0c0,5.9,0,11.7,0,17c0,2.6,0.1,5,0.1,7.6c0,2.4-0.1,4.6-0.1,7c0,3.9,0.1,8.2,0.1,12.3c0,1.8,0,3.5,0,5.1
		c6.3,0,12,0,17.5-0.1c5.2,0,10.1,0,15,0.1c5.2-0.1,12.9-0.1,19.3-0.1c8.2,0,16.6,0.1,25.1,0c1.8,0,4-0.1,5.8-0.1
		c8.4-0.1,19.6,0,26.3,0c5,0,10.1-0.1,15.2-0.1c2.1,0,4.4,0.1,6.4,0.1c5.7,0,11.8-0.1,17.5-0.1c9.7,0,20.6,0,30.9,0
		c2.2,0,0.7-0.2,2.9-0.2c5.8,0.1,12.4,0.2,19.3,0.3c10.7,0.1,22.2-0.1,33.3-0.1c5,0,10.3,0.2,14.6,0c14.9,0.3,37,0.1,53.1,0
		c4.5-0.2,13.1-0.2,16.9-0.4c12.4,0.1,20.9-0.6,12.8-1.2c-5.3-0.1-8.3-0.3-14-0.3c-6,0-12.2,0.2-18.1,0.2c-3,0-5.9-0.1-8.8-0.1
		c-4.7,0-10.1,0.1-15.2,0.1c-2.4,0-4.8-0.1-7-0.1c-2.3,0-4.2,0.1-6.4,0.1c-2.7,0-5.3,0-8.2-0.1c-1.9,0-3.8,0.1-5.8,0.1
		c-14.4,0-30.5-0.3-42.6,0c-3.9-0.3-9.1-0.1-13.4-0.1c-6.1-0.1-12.4-0.1-18.1-0.2c-1.9,0-3.4,0.1-5.3,0.1c-2.4,0-4.8-0.1-7-0.1
		c-2.3,0-4.7,0.1-7,0.1c-4.9,0-10.3,0-15.8,0c-14.7,0.1-29.5,0.2-45.5,0.2c-4.3,0-8.5-0.1-12.8-0.1c-7.6,0-14.4,0.1-21.6,0.2
		c-7,0-14.5,0-21.6,0c-1.9,0-3.9,0.1-5.8,0.1c-4.1,0-7.7-0.1-11.7-0.1c-3.3,0-6.5,0.1-9.7,0.1c-2.9,0-5.8,0-8.7,0c0-1.3,0-2.6,0-3.9
		c-0.2-3.2,0-7-0.2-11.1c0.1-4.6,0.1-10.2,0.1-15.7c0-2.8,0-5.5,0-8.1c0-1.3,0-2.6,0-3.8c0-0.6,0-1.2,0-1.8c0-0.4,0-0.7,0-1.1
		c0.6,0,1,0,1.5,0c5.7,0.1,14.4,0,21,0C47.9,193.7,58.8,193.5,70,193.5z"/>
	<g>
		<path class="st1" d="M30.4,213.7l0.8-1.2c0.5,0.5,1.3,1,2.2,1c0.8,0,1.2-0.4,1.2-0.8c0-1.2-4-0.4-4-3c0-1.2,1-2.1,2.7-2.1
			c1.1,0,2,0.3,2.7,1l-0.8,1.1c-0.6-0.5-1.3-0.8-2-0.8c-0.6,0-1,0.3-1,0.7c0,1.1,4,0.4,4,3c0,1.3-0.9,2.2-2.8,2.2
			C32,214.8,31.1,214.4,30.4,213.7z"/>
		<path class="st1" d="M37,212.2c0-1.5,1.1-2.7,2.6-2.7c1.5,0,2.5,1.1,2.5,2.8v0.3h-3.8c0.1,0.6,0.6,1.1,1.5,1.1
			c0.4,0,1-0.2,1.3-0.5l0.6,0.9c-0.5,0.5-1.3,0.7-2.1,0.7C38.2,214.8,37,213.8,37,212.2z M39.7,210.6c-0.8,0-1.2,0.6-1.2,1.1h2.5
			C40.9,211.2,40.5,210.6,39.7,210.6z"/>
		<path class="st1" d="M46.8,214.7v-3.1c0-0.7-0.4-0.9-0.9-0.9c-0.5,0-0.9,0.3-1.2,0.6v3.4h-1.3v-5.1h1.3v0.7c0.3-0.4,1-0.8,1.8-0.8
			c1.1,0,1.7,0.6,1.7,1.6v3.6H46.8z"/>
		<path class="st1" d="M49.9,213.4v-2.6h-0.8v-1.2h0.8v-1.4h1.3v1.4h1v1.2h-1v2.3c0,0.3,0.2,0.6,0.5,0.6c0.2,0,0.4-0.1,0.5-0.2
			l0.3,1c-0.2,0.2-0.6,0.3-1.1,0.3C50.4,214.8,49.9,214.4,49.9,213.4z"/>
	</g>
	<g>
		<path class="st1" d="M290.6,214.4V213h3v1.3H290.6z"/>
		<path class="st1" d="M300.5,216.8c-1.3-0.1-2.3-0.6-3-1.3l1-1.4c0.5,0.5,1.1,0.9,2,1.1v-1.9c-1.3-0.3-2.7-0.8-2.7-2.5
			c0-1.3,1-2.3,2.7-2.5v-1.2h1.2v1.2c1,0.1,1.9,0.5,2.5,1.1l-1,1.3c-0.4-0.4-1-0.7-1.6-0.8v1.7c1.3,0.3,2.7,0.8,2.7,2.5
			c0,1.4-0.9,2.5-2.7,2.6v1.1h-1.2V216.8z M300.5,211.4v-1.5c-0.5,0.1-0.9,0.4-0.9,0.8C299.6,211,300,211.2,300.5,211.4z
			 M301.7,213.6v1.7c0.6-0.1,0.9-0.5,0.9-0.9C302.6,214,302.2,213.8,301.7,213.6z"/>
		<path class="st1" d="M307.4,216.7v-6l-1.4,1.4l-1-1.1l2.6-2.6h1.5v8.3H307.4z"/>
		<path class="st1" d="M311.4,218.4l-0.7-0.6c0.4-0.2,0.9-0.7,1-1.2c0,0-0.1,0-0.2,0c-0.5,0-0.9-0.4-0.9-0.9c0-0.5,0.5-1,1-1
			c0.6,0,1.1,0.5,1.1,1.3C312.6,217,312.1,217.9,311.4,218.4z"/>
		<path class="st1" d="M313.7,216.7v-1.4c3.4-2.5,4.4-3.4,4.4-4.4c0-0.7-0.7-1.1-1.3-1.1c-1,0-1.7,0.4-2.2,1l-1-1.2
			c0.8-0.9,2-1.4,3.2-1.4c1.8,0,3.2,1,3.2,2.7c0,1.4-1.2,2.7-3.3,4.2h3.4v1.6H313.7z"/>
		<path class="st1" d="M321.1,212.6c0-2.1,1.1-4.3,3.4-4.3s3.4,2.1,3.4,4.3s-1.1,4.3-3.4,4.3S321.1,214.7,321.1,212.6z M326.2,212.6
			c0-1.5-0.4-2.7-1.6-2.7c-1.2,0-1.6,1.2-1.6,2.7s0.4,2.7,1.6,2.7S326.2,214.1,326.2,212.6z"/>
		<path class="st1" d="M328.8,212.6c0-2.1,1.1-4.3,3.4-4.3s3.4,2.1,3.4,4.3s-1.1,4.3-3.4,4.3S328.8,214.7,328.8,212.6z M333.9,212.6
			c0-1.5-0.4-2.7-1.6-2.7c-1.2,0-1.6,1.2-1.6,2.7s0.4,2.7,1.6,2.7S333.9,214.1,333.9,212.6z"/>
	</g>
	<path class="st1" d="M41.8,222.9c0.6,0,1.2,0,1.7,0c0.1,0,0.3-0.1,0.4,0c0.3,0.1,0.7,0.2,1,0.1c0,0,0.1-0.1,0.1-0.1
		c0.3-0.1,0.6,0.1,0.8,0.1c0.2,0,0.4,0.1,0.6,0.1c0.1,0,0.3-0.1,0.4-0.1c0.4-0.1,0.8,0,1.1,0c0.3,0,0.5,0,0.8,0c0.1,0,0.2,0,0.3,0
		c0,0,0.1,0.1,0.1,0.2c0.1,0.1,0.3,0,0.4,0c0.2,0.1,0.4,0.3,0.5,0.2c0.1-0.1,0.4-0.6,0.4-0.9c0-0.3-0.1-0.8-0.2-1
		c-0.1-0.2-0.3-0.1-0.4-0.3c-0.5,0.1-1.1,0-1.6,0c-0.3,0-0.6-0.1-0.9-0.1c-0.1,0-0.2,0.1-0.3,0.1c-0.3,0-0.6-0.2-0.8,0
		c-0.2,0.1-0.3,0-0.5,0c-0.2,0-0.4,0.1-0.7,0.1c-0.3-0.3-0.7,0-1.1-0.1c-0.8-0.2-1.6,0.2-2.4-0.1c-0.2,0.1-0.4,0-0.6,0
		c-0.1,0-0.2,0.1-0.3,0.1c-0.3,0.1-0.6-0.1-0.9-0.1c-0.1,0-0.1,0.1-0.2,0.1c-0.1,0-0.1-0.1-0.2-0.1c-0.1,0-0.2,0.1-0.3,0.1
		c-0.4,0.1-0.7,0.1-1,0c-0.1,0.1-0.3,0.1-0.5,0.1c-0.2,0-0.4-0.1-0.7-0.1c0,0-0.1,0.1-0.2,0.1c-0.2,0.1-0.5,0-0.7-0.1
		c-0.1,0-0.3,0.1-0.4,0.1c-0.1,0-0.1-0.1-0.2-0.1c-0.2,0-0.3,0.1-0.5,0.1c-0.3,0-0.6,0-0.8,0c-0.1,0,0,0.2-0.1,0.2
		c-0.2-0.1-0.3-0.2-0.5-0.3c-0.3-0.1-0.6,0.1-0.9,0.1c-0.1,0-0.3-0.2-0.4,0c-0.4-0.3-1-0.2-1.4,0c-0.1,0.2-0.4,0.2-0.5,0.4
		c-0.3-0.1-0.6,0.6-0.4,1.2c0.1,0.1,0.2,0.3,0.4,0.4c0.2,0,0.3-0.2,0.5-0.2c0.1,0,0.2,0.1,0.2,0.1c0.1,0,0.3-0.1,0.4-0.1
		c0.1,0,0.1,0.1,0.2,0.1c0.1,0,0.1-0.1,0.2-0.1c0.1,0,0.1,0.1,0.2,0.1c0.1,0,0.1-0.1,0.2-0.1c0.4,0,0.8,0.3,1.1,0
		c0.1,0.3,0.2,0.1,0.4,0.1c0.2,0,0.3,0.2,0.5,0.2c0.1,0,0.1-0.1,0.1-0.1c0.1,0,0.1,0.1,0.2,0.1c0.1,0,0.1-0.1,0.2-0.1
		c0.1,0,0.3,0,0.4,0c0.4-0.1,0.8-0.2,1.2-0.2c0.1,0,0.2,0.1,0.3,0.1c0.2,0,0.4-0.1,0.6-0.1c0.2,0,0.4,0.1,0.6,0.1
		c0.1,0,0.1-0.1,0.2-0.1c0.1,0,0.2,0.1,0.3,0.1c0.2,0,0.4-0.2,0.6-0.1c0.1-0.2,0.2,0,0.3-0.2c0.3,0.2,0.6,0.2,0.9-0.1
		c0.2,0.1,0.4,0.1,0.6,0C41.2,223.1,41.5,222.9,41.8,222.9z"/>
	<path class="st1" d="M63.7,222.9c0.5,0,1.1,0,1.5,0c0.1,0,0.2-0.1,0.4,0c0.3,0.1,0.6,0.2,0.9,0.1c0,0,0.1-0.1,0.1-0.1
		c0.2-0.1,0.5,0.1,0.8,0.1c0.2,0,0.3,0.1,0.5,0.1c0.1,0,0.2-0.1,0.4-0.1c0.3-0.1,0.7,0,1,0c0.2,0,0.5,0,0.7,0c0.1,0,0.2,0,0.3,0
		c0,0,0.1,0.1,0.1,0.2c0.1,0.1,0.2,0,0.4,0c0.2,0.1,0.3,0.3,0.4,0.2c0.1-0.1,0.4-0.6,0.4-0.9c0-0.3-0.1-0.8-0.2-1
		c-0.1-0.2-0.3-0.1-0.4-0.3c-0.5,0.1-1,0-1.4,0c-0.3,0-0.6-0.1-0.9-0.1c-0.1,0-0.2,0.1-0.3,0.1c-0.3,0-0.5-0.2-0.7,0
		c-0.1,0.1-0.3,0-0.4,0c-0.2,0-0.4,0.1-0.6,0.1c-0.2-0.3-0.7,0-1-0.1c-0.7-0.2-1.4,0.2-2.1-0.1c-0.2,0.1-0.4,0-0.6,0
		c-0.1,0-0.2,0.1-0.3,0.1c-0.3,0.1-0.6-0.1-0.8-0.1c-0.1,0-0.1,0.1-0.2,0.1c-0.1,0-0.1-0.1-0.2-0.1c-0.1,0-0.2,0.1-0.3,0.1
		c-0.3,0.1-0.6,0.1-0.9,0c-0.1,0.1-0.3,0.1-0.5,0.1c-0.2,0-0.4-0.1-0.6-0.1c0,0-0.1,0.1-0.1,0.1c-0.2,0.1-0.5,0-0.6-0.1
		c-0.1,0-0.2,0.1-0.4,0.1c-0.1,0-0.1-0.1-0.2-0.1c-0.1,0-0.3,0.1-0.4,0.1c-0.2,0-0.5,0-0.7,0c-0.1,0,0,0.2-0.1,0.2
		c-0.1-0.1-0.3-0.2-0.5-0.3c-0.3-0.1-0.5,0.1-0.8,0.1c-0.1,0-0.2-0.2-0.4,0c-0.4-0.3-0.9-0.2-1.3,0c-0.1,0.2-0.3,0.2-0.4,0.4
		c-0.3-0.1-0.5,0.6-0.3,1.2c0.1,0.1,0.2,0.3,0.3,0.4c0.1,0,0.3-0.2,0.4-0.2c0.1,0,0.1,0.1,0.2,0.1c0.1,0,0.2-0.1,0.4-0.1
		c0.1,0,0.1,0.1,0.2,0.1c0.1,0,0.1-0.1,0.2-0.1c0.1,0,0.1,0.1,0.2,0.1c0,0,0.1-0.1,0.1-0.1c0.3,0,0.7,0.3,1,0
		c0.1,0.3,0.2,0.1,0.3,0.1c0.1,0,0.3,0.2,0.4,0.2c0,0,0.1-0.1,0.1-0.1c0.1,0,0.1,0.1,0.2,0.1c0.1,0,0.1-0.1,0.2-0.1
		c0.1,0,0.2,0,0.4,0c0.4-0.1,0.7-0.2,1.1-0.2c0.1,0,0.2,0.1,0.3,0.1c0.2,0,0.3-0.1,0.5-0.1c0.2,0,0.3,0.1,0.5,0.1
		c0,0,0.1-0.1,0.1-0.1c0.1,0,0.2,0.1,0.3,0.1c0.2,0,0.4-0.2,0.6-0.1c0.1-0.2,0.2,0,0.3-0.2c0.2,0.2,0.6,0.2,0.8-0.1
		c0.1,0.1,0.3,0.1,0.5,0C63.2,223.1,63.5,222.9,63.7,222.9z"/>
	<path class="st1" d="M135.6,210.6c1.6-0.1,3.4,0,4.7,0c0.4,0,0.7-0.1,1.1,0c0.9,0.1,1.8,0.2,2.7,0.1c0.1,0,0.2-0.1,0.3-0.1
		c0.7-0.1,1.6,0.1,2.3,0c0.5-0.1,1,0.1,1.5,0c0.4,0,0.7-0.1,1.1-0.2c1-0.1,2.1,0,3,0c0.7,0,1.5,0,2.2,0c0.3,0,0.6,0,0.9,0
		c0.1,0,0.2,0.1,0.3,0.2c0.3,0.1,0.7,0,1.2,0c0.6,0.1,1,0.2,1.4,0.2c0.4-0.1,1-0.6,1.1-0.9c0-0.3-0.3-0.8-0.6-1
		c-0.3-0.2-0.8-0.1-1.1-0.3c-1.4,0.1-2.9,0.1-4.3,0.1c-0.8,0-1.7,0-2.6-0.1c-0.3,0-0.5,0.1-0.8,0.1c-0.8,0-1.6-0.1-2.2,0
		c-0.4,0.1-0.8,0-1.3,0c-0.6,0-1.2,0.1-1.8,0.2c-0.8-0.3-2,0-2.9-0.1c-2.1-0.2-4.4,0.2-6.5,0c-0.6,0.1-1.2,0-1.7,0
		c-0.3,0-0.5,0.1-0.9,0.1c-0.8,0.1-1.7-0.1-2.4,0c-0.2,0-0.4,0.1-0.6,0.1c-0.2,0-0.3-0.1-0.5-0.1c-0.3,0-0.6,0.1-0.9,0.1
		c-1,0.1-1.8,0.1-2.6,0c-0.4,0.1-0.9,0.1-1.4,0.1c-0.6,0-1.2-0.1-1.8,0c-0.1,0-0.3,0.1-0.4,0.1c-0.6,0.1-1.4,0-1.9,0
		c-0.4,0-0.7,0.1-1.1,0.1c-0.2,0-0.3-0.1-0.5-0.1c-0.4,0-0.9,0.1-1.3,0.1c-0.7,0-1.5,0-2.3,0c-0.2,0-0.1,0.2-0.2,0.2
		c-0.4-0.1-0.9-0.2-1.4-0.3c-0.8-0.1-1.6,0.1-2.4,0.1c-0.4,0-0.8-0.2-1.1,0c-1.1-0.3-2.7-0.1-3.9,0c-0.3,0.2-1,0.2-1.2,0.4
		c-0.9-0.1-1.5,0.6-0.9,1.2c0.4,0.1,0.6,0.3,1,0.3c0.4,0,0.9-0.2,1.3-0.2c0.2,0,0.4,0.1,0.6,0.1c0.3,0,0.7-0.1,1.1-0.1
		c0.2,0,0.4,0.1,0.5,0.1c0.2,0,0.3-0.1,0.5-0.1c0.2,0,0.4,0.1,0.6,0.1c0.1,0,0.3-0.1,0.4-0.1c1.1,0,2.2,0.3,3.1,0
		c0.3,0.3,0.7,0.1,1,0.1c0.4,0,0.9,0.2,1.3,0.2c0.1,0,0.2-0.1,0.4-0.1c0.2,0,0.3,0.1,0.5,0.1c0.2,0,0.3-0.1,0.5-0.1
		c0.4-0.1,0.8,0,1.2,0c1.1-0.1,2.2-0.2,3.3-0.2c0.3,0,0.6,0.1,0.9,0.1c0.6,0,1-0.1,1.6-0.2c0.5,0,1.1,0.1,1.6,0
		c0.1,0,0.3-0.1,0.4-0.1c0.3,0,0.6,0.1,0.9,0.1c0.6,0,1.2-0.2,1.7-0.1c0.2-0.2,0.5,0,0.8-0.2c0.7,0.2,1.8,0.1,2.4-0.1
		c0.4,0.1,1.1,0,1.5,0C134,210.8,134.8,210.6,135.6,210.6z"/>
	<path class="st1" d="M125.1,219.6c1.1-0.1,2.3,0,3.2,0c0.3,0,0.5-0.1,0.7,0c0.6,0.1,1.2,0.2,1.8,0.1c0.1,0,0.2-0.1,0.2-0.1
		c0.5-0.1,1,0.1,1.5,0c0.4-0.1,0.7,0.1,1,0c0.3,0,0.5-0.1,0.7-0.2c0.7-0.1,1.4,0,2,0c0.5,0,1,0,1.5,0c0.2,0,0.4,0,0.6,0
		c0.1,0,0.2,0.1,0.2,0.2c0.2,0.1,0.5,0,0.8,0c0.4,0.1,0.7,0.2,0.9,0.2c0.2-0.1,0.7-0.6,0.7-0.9c0-0.3-0.2-0.8-0.4-1
		c-0.2-0.2-0.6-0.1-0.7-0.3c-1,0.1-2,0.1-2.9,0.1c-0.6,0-1.2,0-1.7-0.1c-0.2,0-0.3,0.1-0.5,0.1c-0.6,0-1.1-0.1-1.5,0
		c-0.3,0.1-0.6,0-0.9,0c-0.4,0-0.8,0.1-1.2,0.2c-0.5-0.3-1.3,0-1.9-0.1c-1.4-0.2-2.9,0.2-4.4,0c-0.4,0.1-0.8,0-1.1,0
		c-0.2,0-0.4,0.1-0.6,0.1c-0.5,0.1-1.1-0.1-1.6,0c-0.1,0-0.2,0.1-0.4,0.1c-0.1,0-0.2-0.1-0.3-0.1c-0.2,0-0.4,0.1-0.6,0.1
		c-0.7,0.1-1.2,0.1-1.7,0c-0.3,0.1-0.6,0.1-0.9,0.1c-0.4,0-0.8-0.1-1.2,0c-0.1,0-0.2,0.1-0.3,0.1c-0.4,0.1-1,0-1.3,0
		c-0.2,0-0.5,0.1-0.7,0.1c-0.1,0-0.2-0.1-0.3-0.1c-0.3,0-0.6,0.1-0.9,0.1c-0.5,0-1,0-1.5,0c-0.1,0,0,0.2-0.1,0.2
		c-0.3-0.1-0.6-0.2-0.9-0.3c-0.5-0.1-1.1,0.1-1.6,0.1c-0.2,0-0.5-0.2-0.7,0c-0.7-0.3-1.8-0.1-2.6,0c-0.2,0.2-0.6,0.2-0.8,0.4
		c-0.6-0.1-1,0.6-0.6,1.2c0.3,0.1,0.4,0.3,0.7,0.3c0.3,0,0.6-0.2,0.9-0.2c0.1,0,0.3,0.1,0.4,0.1c0.2,0,0.5-0.1,0.7-0.1
		c0.1,0,0.2,0.1,0.3,0.1c0.1,0,0.2-0.1,0.3-0.1c0.1,0,0.3,0.1,0.4,0.1c0.1,0,0.2-0.1,0.3-0.1c0.7,0,1.5,0.3,2.1,0
		c0.2,0.3,0.4,0.1,0.7,0.1c0.3,0,0.6,0.2,0.9,0.2c0.1,0,0.2-0.1,0.3-0.1c0.1,0,0.2,0.1,0.3,0.1c0.1,0,0.2-0.1,0.3-0.1
		c0.2-0.1,0.5,0,0.8,0c0.7-0.1,1.5-0.2,2.2-0.2c0.2,0,0.4,0.1,0.6,0.1c0.4,0,0.7-0.1,1.1-0.2c0.3,0,0.7,0.1,1.1,0
		c0.1,0,0.2-0.1,0.3-0.1c0.2,0,0.4,0.1,0.6,0.1c0.4,0,0.8-0.2,1.2-0.1c0.2-0.2,0.3,0,0.5-0.2c0.5,0.2,1.2,0.1,1.6-0.1
		c0.3,0.1,0.7,0,1,0C124,219.8,124.6,219.6,125.1,219.6z"/>
	<path class="st1" d="M228.3,210.6c1.8-0.1,3.8,0,5.2,0c0.4,0,0.8-0.1,1.2,0c1,0.1,2,0.2,3,0.1c0.1,0,0.3-0.1,0.4-0.1
		c0.8-0.1,1.7,0.1,2.6,0c0.6-0.1,1.1,0.1,1.7,0c0.4,0,0.8-0.1,1.2-0.2c1.2-0.1,2.3,0,3.4,0c0.8,0,1.6,0,2.4,0c0.3,0,0.7,0,1,0
		c0.1,0,0.3,0.1,0.4,0.2c0.3,0.1,0.8,0,1.3,0c0.6,0.1,1.2,0.2,1.5,0.2c0.4-0.1,1.1-0.6,1.2-0.9c0-0.3-0.3-0.8-0.6-1
		c-0.3-0.2-0.9-0.1-1.2-0.3c-1.6,0.1-3.2,0.1-4.7,0.1c-0.9,0-1.9,0-2.9-0.1c-0.3,0-0.6,0.1-0.9,0.1c-0.9,0-1.8-0.1-2.4,0
		c-0.5,0.1-0.9,0-1.5,0c-0.6,0-1.3,0.1-2,0.2c-0.8-0.3-2.2,0-3.2-0.1c-2.3-0.2-4.8,0.2-7.2,0c-0.6,0.1-1.3,0-1.9,0
		c-0.3,0-0.6,0.1-0.9,0.1c-0.9,0.1-1.9-0.1-2.7,0c-0.2,0-0.4,0.1-0.6,0.1c-0.2,0-0.4-0.1-0.6-0.1c-0.3,0-0.7,0.1-1,0.1
		c-1.1,0.1-2,0.1-2.9,0c-0.4,0.1-1,0.1-1.6,0.1c-0.7,0-1.3-0.1-2,0c-0.1,0-0.3,0.1-0.5,0.1c-0.7,0.1-1.6,0-2.1,0
		c-0.4,0-0.8,0.1-1.2,0.1c-0.2,0-0.4-0.1-0.5-0.1c-0.5,0-1,0.1-1.4,0.1c-0.8,0-1.7,0-2.5,0c-0.2,0-0.1,0.2-0.2,0.2
		c-0.5-0.1-1-0.2-1.6-0.3c-0.9-0.1-1.8,0.1-2.7,0.1c-0.4,0-0.8-0.2-1.2,0c-1.2-0.3-3-0.1-4.3,0c-0.4,0.2-1.1,0.2-1.4,0.4
		c-1-0.1-1.7,0.6-1,1.2c0.4,0.1,0.7,0.3,1.1,0.3c0.5,0,1-0.2,1.5-0.2c0.2,0,0.5,0.1,0.7,0.1c0.4,0,0.8-0.1,1.2-0.1
		c0.2,0,0.4,0.1,0.6,0.1c0.2,0,0.3-0.1,0.5-0.1c0.2,0,0.4,0.1,0.7,0.1c0.2,0,0.3-0.1,0.5-0.1c1.2,0,2.5,0.3,3.5,0
		c0.3,0.3,0.7,0.1,1.1,0.1c0.5,0,1,0.2,1.5,0.2c0.2,0,0.3-0.1,0.4-0.1c0.2,0,0.4,0.1,0.6,0.1c0.2,0,0.4-0.1,0.6-0.1
		c0.4-0.1,0.8,0,1.3,0c1.2-0.1,2.4-0.2,3.7-0.2c0.4,0,0.7,0.1,1,0.1c0.6,0,1.2-0.1,1.7-0.2c0.6,0,1.2,0.1,1.7,0
		c0.2,0,0.3-0.1,0.5-0.1c0.3,0,0.6,0.1,0.9,0.1c0.7,0,1.3-0.2,1.9-0.1c0.3-0.2,0.6,0,0.9-0.2c0.8,0.2,2,0.1,2.7-0.1
		c0.5,0.1,1.2,0,1.7,0C226.5,210.8,227.4,210.6,228.3,210.6z"/>
	<path class="st1" d="M229.4,219.6c1.9-0.1,3.9,0,5.4,0c0.4,0,0.8-0.1,1.3,0c1,0.1,2.1,0.2,3.1,0.1c0.1,0,0.3-0.1,0.4-0.1
		c0.8-0.1,1.8,0.1,2.6,0c0.6-0.1,1.1,0.1,1.8,0c0.5,0,0.8-0.1,1.2-0.2c1.2-0.1,2.4,0,3.5,0c0.8,0,1.7,0,2.5,0c0.3,0,0.7,0,1,0
		c0.1,0,0.3,0.1,0.4,0.2c0.3,0.1,0.8,0,1.3,0c0.7,0.1,1.2,0.2,1.6,0.2c0.4-0.1,1.2-0.6,1.2-0.9c0-0.3-0.3-0.8-0.6-1
		c-0.3-0.2-0.9-0.1-1.3-0.3c-1.6,0.1-3.3,0.1-4.9,0.1c-1,0-2,0-3-0.1c-0.3,0-0.6,0.1-0.9,0.1c-0.9,0-1.8-0.1-2.5,0
		c-0.5,0.1-1,0-1.5,0c-0.7,0-1.4,0.1-2,0.2c-0.9-0.3-2.3,0-3.3-0.1c-2.4-0.2-5,0.2-7.5,0c-0.6,0.1-1.4,0-1.9,0c-0.3,0-0.6,0.1-1,0.1
		c-0.9,0.1-1.9-0.1-2.8,0c-0.2,0-0.4,0.1-0.6,0.1c-0.2,0-0.4-0.1-0.6-0.1c-0.3,0-0.7,0.1-1,0.1c-1.1,0.1-2.1,0.1-3,0
		c-0.4,0.1-1.1,0.1-1.6,0.1c-0.7,0-1.4-0.1-2.1,0c-0.2,0-0.3,0.1-0.5,0.1c-0.7,0.1-1.6,0-2.2,0c-0.4,0-0.8,0.1-1.3,0.1
		c-0.2,0-0.4-0.1-0.5-0.1c-0.5,0-1,0.1-1.5,0.1c-0.8,0-1.7,0-2.6,0c-0.2,0-0.1,0.2-0.2,0.2c-0.5-0.1-1-0.2-1.6-0.3
		c-0.9-0.1-1.9,0.1-2.8,0.1c-0.4,0-0.9-0.2-1.2,0c-1.2-0.3-3.1-0.1-4.4,0c-0.4,0.2-1.1,0.2-1.4,0.4c-1-0.1-1.7,0.6-1.1,1.2
		c0.4,0.1,0.7,0.3,1.2,0.3c0.5,0,1-0.2,1.5-0.2c0.2,0,0.5,0.1,0.7,0.1c0.4,0,0.8-0.1,1.3-0.1c0.2,0,0.4,0.1,0.6,0.1
		c0.2,0,0.4-0.1,0.5-0.1c0.2,0,0.4,0.1,0.7,0.1c0.2,0,0.3-0.1,0.5-0.1c1.2,0,2.5,0.3,3.6,0c0.3,0.3,0.8,0.1,1.1,0.1
		c0.5,0,1,0.2,1.5,0.2c0.2,0,0.3-0.1,0.4-0.1c0.2,0,0.4,0.1,0.6,0.1c0.2,0,0.4-0.1,0.6-0.1c0.4-0.1,0.9,0,1.3,0
		c1.2-0.1,2.5-0.2,3.8-0.2c0.4,0,0.7,0.1,1.1,0.1c0.6,0,1.2-0.1,1.8-0.2c0.6,0,1.2,0.1,1.8,0c0.2,0,0.3-0.1,0.5-0.1
		c0.3,0,0.6,0.1,1,0.1c0.7,0,1.3-0.2,2-0.1c0.3-0.2,0.6,0,0.9-0.2c0.8,0.2,2,0.1,2.8-0.1c0.5,0.1,1.2,0,1.8,0
		C227.5,219.8,228.4,219.6,229.4,219.6z"/>
	<g>
		<path class="st0" d="M62.3,214.3c-1.8,0-3.2-1.4-3.2-3.2c0-1.8,1.4-3.2,3.2-3.2c1.8,0,3.2,1.4,3.2,3.2"/>
		<g>
			<path d="M63.1,210.7l2.3,2l1.7-1.6c0.2-0.1,0.1-0.4-0.2-0.4H63.1z"/>
			<path class="st1" d="M67.8,210.7c-0.1-0.2-0.2-0.4-0.5-0.5c-0.1-0.1-0.3-0.1-0.3-0.1l-0.1,0c-0.1,0-0.2,0-0.3,0
				c-0.1-0.4-0.3-0.8-0.5-1.1c-0.2-0.3-0.3-0.6-0.5-0.8c-0.1-0.1-0.2-0.1-0.3-0.2c-0.2-0.2-0.4-0.5-0.6-0.5c-0.2,0-0.3-0.2-0.4-0.3
				c-0.2-0.1-0.5-0.1-0.7-0.1c-0.2-0.4-0.7-0.2-1-0.3c-0.4-0.1-0.8-0.1-1.2,0.1c-0.4,0.1-0.7,0.3-1.2,0.4c-0.1,0.2-0.4,0.2-0.5,0.3
				c-0.1,0.1-0.1,0.2-0.2,0.3c-0.2,0.2-0.5,0.4-0.7,0.6c0,0.1,0,0.2,0,0.2c0,0.1-0.1,0.1-0.2,0.1c-0.1,0.1-0.1,0.2-0.1,0.3
				c-0.1,0.3-0.2,0.6-0.4,0.8c0.1,0.2,0,0.3,0,0.5c-0.1,0.2-0.2,0.4-0.1,0.6c0,0,0.1,0.1,0.1,0.1c0.1,0.2,0,0.5,0,0.7
				c0,0.1,0.2,0.2,0.2,0.3c0,0,0,0.1,0,0.2c0,0.1,0.2,0.2,0.3,0.4c0.1,0.2,0.2,0.4,0.4,0.6c0,0.1,0.2-0.1,0.2,0c0,0.2,0,0.4,0.1,0.5
				c0.1,0.3,0.5,0.3,0.7,0.4c0.1,0.1,0.1,0.3,0.3,0.2c0.2,0.4,0.8,0.5,1.2,0.5c0.1-0.2,0.3-0.1,0.4-0.4c0.3,0.1,0.4-0.6,0.3-1.2
				c-0.1-0.1-0.1-0.3-0.2-0.4c-0.1,0-0.2,0.2-0.2,0.2c0,0,0-0.1-0.1-0.1c-0.1,0-0.1,0.1-0.2,0.1c0,0,0-0.1-0.1-0.1
				c0,0-0.1,0.1-0.1,0.1c0,0,0-0.1-0.1-0.1c0,0-0.1,0-0.1,0c-0.2-0.1-0.1-0.4-0.4-0.3c0.2-0.2,0-0.1-0.1-0.2c0-0.1,0-0.2,0-0.3
				c0,0-0.1,0-0.1,0c0,0,0-0.1,0-0.1c0,0-0.1,0-0.1,0c-0.1,0-0.1-0.1-0.1-0.2c-0.1-0.1-0.3-0.3-0.3-0.5c0-0.1,0.1-0.1,0.1-0.2
				c0-0.1-0.1-0.2-0.1-0.3c0-0.1,0.1-0.2,0.1-0.3c0,0-0.1-0.1-0.1-0.1c0-0.1,0.1-0.1,0.1-0.1c0-0.1-0.1-0.3,0.1-0.3
				c-0.2-0.2,0.1-0.1-0.1-0.2c0.3,0,0.3-0.2,0.3-0.5c0.1,0,0.2-0.1,0.2-0.2c0.3,0.1,0.3-0.1,0.5-0.2c0.3-0.2,0.7-0.2,1-0.2
				c0.1,0,0.2-0.1,0.2,0c0.2,0.1,0.4,0.2,0.6,0.2c0,0,0.1-0.1,0.1-0.1c0.2,0,0.3,0.2,0.5,0.2c0.1,0,0.2,0.2,0.3,0.2
				c0.1,0,0.2,0,0.3,0c0.3,0.1,0.3,0.3,0.5,0.5c0.1,0.1,0.2,0.3,0.2,0.4c0,0.1,0,0.1,0,0.2c0,0,0,0-0.1,0.1c-0.1,0-0.3,0-0.4,0
				c-0.1,0-0.3,0-0.4,0c-0.1,0-0.1,0-0.2,0c0,0,0-0.1-0.1-0.2c0-0.1-0.1,0-0.2,0c-0.1-0.1-0.2-0.2-0.2-0.2c-0.1,0.1-0.2,0.6-0.2,0.9
				c0,0,0,0,0,0c-0.2,0.2-0.4,0.4-0.6,0.7c0,0.2-0.1,0.3-0.1,0.4c0.1,0.1,0.2,0,0.3,0c0,0,0,0.1,0,0.2c0,0.1,0.2,0,0.2,0
				c0,0,0,0.1,0,0.1c0,0,0.1,0,0.1,0c0,0,0,0.1,0,0.1c0,0,0.1,0,0.1,0c0.1,0.1,0.1,0.5,0.4,0.4c-0.1,0.2,0,0.1,0.1,0.2
				c0,0,0.1,0.3,0.2,0.4c0,0,0.1,0,0.2,0c0,0,0,0.2,0.1,0.2c0,0,0.1,0,0.2,0c0.1,0,0.2,0.1,0.3,0.2c0.3,0.2,0.5,0.2,0.8,0.4l0.1,0
				c0.1-0.1,0.1,0,0.2,0c0.1-0.1,0.2-0.4,0.3-0.5c0.1-0.1,0.3-0.1,0.4-0.3c0,0,0-0.1,0.1-0.2c0.1-0.1,0.2,0,0.2-0.1
				c0.1-0.2,0.1-0.4,0.3-0.3c-0.1-0.2,0.1-0.1,0-0.2c0.2,0.1,0.3-0.1,0.3-0.3c0.1,0,0.2-0.1,0.2-0.2c0.1,0,0.1,0,0.1,0c0,0,0,0,0,0
				c0,0,0,0,0.1-0.1C67.8,211.3,67.9,211,67.8,210.7z"/>
		</g>
	</g>
	<path class="st1" d="M211.4,256.4c12,0,25,0,34.5,0c2.8,0,5.5-0.1,8.2,0c6.4,0.1,13.6,0.2,20.1,0.1c0.8,0,1.7-0.1,2.5-0.1
		c5.2-0.1,11.5,0.1,17,0c4-0.1,7.4,0.1,11.3,0c3,0,5.3-0.1,7.9-0.2c7.7-0.1,15.2,0,22.3,0c4.2,0,8.8,0,13.1,0c0,0.7,0,1.4,0,2.1
		c0,2.2,0,4.7,0,6.6c0,0.7-0.1,1.7-0.2,2.5c-0.1,2.1,0,5.4,0,8.5c-0.1,4.2-0.2,7.7-0.2,10c0.1,2.6,0.6,7.6,0.9,7.9
		c0.3,0.2,0.8-2.1,1-4.1c0.2-2.2,0.1-6.1,0.3-8.2c0-4.3,0-8.6-0.1-12.9c0-4.7,0-9.5,0-14c-2.4,0-4.7,0-6.9,0
		c-6.1,0-12.6-0.1-19.2-0.1c-1.9,0-3.8,0.1-5.7,0.1c-6.1,0-11.7-0.1-16,0c-3.1,0.1-6.2,0-9.7,0c-4.3,0.1-8.8,0.1-13.2,0.2
		c-5.6-0.3-14.6,0-21.4-0.1c-15.4-0.2-32.1,0.2-48.1,0c-4.1,0.1-8.8,0-12.6,0c-2,0-4,0.1-6.3,0.1c-5.8,0.1-12.4-0.1-17.9,0
		c-1.4,0-2.7,0.1-4.1,0.1c-1.3,0-2.5-0.1-3.8-0.1c-2.1,0-4.4,0.1-6.6,0.1c-7.4,0.1-13.2,0.1-19.2,0c-2.8,0.1-7,0.1-10.4,0.1
		c-4.4,0-8.9-0.1-13.5,0c-1,0-2.1,0.1-3.1,0.1c-4.5,0.1-10.6,0-14.1,0c-2.7,0-5.4,0.1-8.2,0.1c-1.1,0-2.4-0.1-3.5-0.1
		c-3,0-6.4,0.1-9.4,0.1c-5.2,0-11.1,0-16.6,0c-1.2,0-0.4,0.2-1.6,0.2c-3.1-0.1-6.7-0.2-10.4-0.3c-5.8-0.1-12,0.1-17.9,0.1
		c-2.7,0-5.5-0.2-7.9,0c-1.2,0-2.6-0.1-3.9-0.1c-1.7,0-3.4,0-5.2,0c0,2,0,4,0,6c0,1.7,0,3.5,0,5.2c0,3.5,0.1,6.9,0.1,9.9
		c0.2,2.4,0.2,7.1,0.4,9.1c-0.1,6.7,0.6,11.3,1.2,6.9c0.1-2.8,0.3-4.4,0.3-7.5c0-3.2-0.2-6.6-0.2-9.7c0-1.6,0.1-3.2,0.1-4.7
		c0-2.6-0.1-5.4-0.1-8.2c0-1.3,0.1-2.6,0.1-3.8c0-0.2,0-0.4,0-0.6l0-0.3l0-0.1l0,0c0,0,0-0.1-0.1-0.2c0,0,0.1,0,0.2,0
		c1.4,0,2.7,0,4.2,0.1c1,0,2.1-0.1,3.1-0.1c7.7,0,16.4,0.3,22.9,0c2.1,0.3,4.9,0.1,7.2,0.1c3.3,0,6.7,0.2,9.7,0.2
		c1,0,1.8-0.1,2.8-0.1c1.3,0,2.6,0.1,3.8,0.1c1.2,0,2.5-0.1,3.8-0.1c2.6-0.1,5.5,0,8.5,0c7.9-0.1,15.9-0.2,24.5-0.2
		c2.3,0,4.6,0.1,6.9,0.1c4.1,0,7.7-0.1,11.6-0.2c3.8,0,7.8,0.1,11.6,0c1,0,2.1-0.1,3.1-0.1c2.2,0,4.2,0.1,6.3,0.1
		c4.4,0,8.6-0.2,12.9-0.1c1.7-0.2,3.8,0,6-0.2c5.4,0.2,13.1,0.1,17.9-0.1c3.1,0.1,7.7,0,11.3,0C199.6,256.6,205.4,256.4,211.4,256.4
		z"/>
	<g>
		<path class="st1" d="M30.4,276.6l0.8-1.2c0.5,0.5,1.3,1,2.2,1c0.8,0,1.2-0.4,1.2-0.8c0-1.2-4-0.4-4-3c0-1.2,1-2.1,2.7-2.1
			c1.1,0,2,0.3,2.7,1l-0.8,1.1c-0.6-0.5-1.3-0.8-2-0.8c-0.6,0-1,0.3-1,0.7c0,1.1,4,0.4,4,3c0,1.3-0.9,2.2-2.8,2.2
			C32,277.7,31.1,277.3,30.4,276.6z"/>
		<path class="st1" d="M37,275.1c0-1.5,1.1-2.7,2.6-2.7c1.5,0,2.5,1.1,2.5,2.8v0.3h-3.8c0.1,0.6,0.6,1.1,1.5,1.1
			c0.4,0,1-0.2,1.3-0.5l0.6,0.9c-0.5,0.5-1.3,0.7-2.1,0.7C38.2,277.7,37,276.7,37,275.1z M39.7,273.5c-0.8,0-1.2,0.6-1.2,1.1h2.5
			C40.9,274.1,40.5,273.5,39.7,273.5z"/>
		<path class="st1" d="M46.8,277.6v-3.1c0-0.7-0.4-0.9-0.9-0.9c-0.5,0-0.9,0.3-1.2,0.6v3.4h-1.3v-5.1h1.3v0.7c0.3-0.4,1-0.8,1.8-0.8
			c1.1,0,1.7,0.6,1.7,1.6v3.6H46.8z"/>
		<path class="st1" d="M49.9,276.3v-2.6h-0.8v-1.2h0.8v-1.4h1.3v1.4h1v1.2h-1v2.3c0,0.3,0.2,0.6,0.5,0.6c0.2,0,0.4-0.1,0.5-0.2
			l0.3,1c-0.2,0.2-0.6,0.3-1.1,0.3C50.4,277.7,49.9,277.2,49.9,276.3z"/>
	</g>
	<g>
		<path class="st1" d="M290.6,277.3v-1.3h3v1.3H290.6z"/>
		<path class="st1" d="M300.5,279.7c-1.3-0.1-2.3-0.6-3-1.3l1-1.4c0.5,0.5,1.1,0.9,2,1.1v-1.9c-1.3-0.3-2.7-0.8-2.7-2.5
			c0-1.3,1-2.3,2.7-2.5V270h1.2v1.2c1,0.1,1.9,0.5,2.5,1.1l-1,1.3c-0.4-0.4-1-0.7-1.6-0.8v1.7c1.3,0.3,2.7,0.8,2.7,2.5
			c0,1.4-0.9,2.5-2.7,2.6v1.1h-1.2V279.7z M300.5,274.3v-1.5c-0.5,0.1-0.9,0.4-0.9,0.8C299.6,273.9,300,274.1,300.5,274.3z
			 M301.7,276.5v1.7c0.6-0.1,0.9-0.5,0.9-0.9C302.6,276.8,302.2,276.6,301.7,276.5z"/>
		<path class="st1" d="M307.4,279.6v-6L306,275l-1-1.1l2.6-2.6h1.5v8.3H307.4z"/>
		<path class="st1" d="M311.4,281.3l-0.7-0.6c0.4-0.2,0.9-0.7,1-1.2c0,0-0.1,0-0.2,0c-0.5,0-0.9-0.4-0.9-0.9c0-0.5,0.5-1,1-1
			c0.6,0,1.1,0.5,1.1,1.3C312.6,279.9,312.1,280.8,311.4,281.3z"/>
		<path class="st1" d="M313.7,279.6v-1.4c3.4-2.5,4.4-3.4,4.4-4.4c0-0.7-0.7-1.1-1.3-1.1c-1,0-1.7,0.4-2.2,1l-1-1.2
			c0.8-0.9,2-1.4,3.2-1.4c1.8,0,3.2,1,3.2,2.7c0,1.4-1.2,2.7-3.3,4.2h3.4v1.6H313.7z"/>
		<path class="st1" d="M321.1,275.4c0-2.1,1.1-4.3,3.4-4.3s3.4,2.1,3.4,4.3s-1.1,4.3-3.4,4.3S321.1,277.6,321.1,275.4z M326.2,275.4
			c0-1.5-0.4-2.7-1.6-2.7c-1.2,0-1.6,1.2-1.6,2.7s0.4,2.7,1.6,2.7S326.2,277,326.2,275.4z"/>
		<path class="st1" d="M328.8,275.4c0-2.1,1.1-4.3,3.4-4.3s3.4,2.1,3.4,4.3s-1.1,4.3-3.4,4.3S328.8,277.6,328.8,275.4z M333.9,275.4
			c0-1.5-0.4-2.7-1.6-2.7c-1.2,0-1.6,1.2-1.6,2.7s0.4,2.7,1.6,2.7S333.9,277,333.9,275.4z"/>
	</g>
	<path class="st1" d="M41.8,285.8c0.6,0,1.2,0,1.7,0c0.1,0,0.3-0.1,0.4,0c0.3,0.1,0.7,0.2,1,0.1c0,0,0.1-0.1,0.1-0.1
		c0.3-0.1,0.6,0.1,0.8,0.1c0.2,0,0.4,0.1,0.6,0.1c0.1,0,0.3-0.1,0.4-0.1c0.4-0.1,0.8,0,1.1,0c0.3,0,0.5,0,0.8,0c0.1,0,0.2,0,0.3,0
		c0,0,0.1,0.1,0.1,0.2c0.1,0.1,0.3,0,0.4,0c0.2,0.1,0.4,0.3,0.5,0.2c0.1-0.1,0.4-0.6,0.4-0.9c0-0.3-0.1-0.8-0.2-1
		c-0.1-0.2-0.3-0.1-0.4-0.3c-0.5,0.1-1.1,0-1.6,0c-0.3,0-0.6-0.1-0.9-0.1c-0.1,0-0.2,0.1-0.3,0.1c-0.3,0-0.6-0.2-0.8,0
		c-0.2,0.1-0.3,0-0.5,0c-0.2,0-0.4,0.1-0.7,0.1c-0.3-0.3-0.7,0-1.1-0.1c-0.8-0.2-1.6,0.2-2.4-0.1c-0.2,0.1-0.4,0-0.6,0
		c-0.1,0-0.2,0.1-0.3,0.1c-0.3,0.1-0.6-0.1-0.9-0.1c-0.1,0-0.1,0.1-0.2,0.1c-0.1,0-0.1-0.1-0.2-0.1c-0.1,0-0.2,0.1-0.3,0.1
		c-0.4,0.1-0.7,0.1-1,0c-0.1,0.1-0.3,0.1-0.5,0.1c-0.2,0-0.4-0.1-0.7-0.1c0,0-0.1,0.1-0.2,0.1c-0.2,0.1-0.5,0-0.7-0.1
		c-0.1,0-0.3,0.1-0.4,0.1c-0.1,0-0.1-0.1-0.2-0.1c-0.2,0-0.3,0.1-0.5,0.1c-0.3,0-0.6,0-0.8,0c-0.1,0,0,0.2-0.1,0.2
		c-0.2-0.1-0.3-0.2-0.5-0.3c-0.3-0.1-0.6,0.1-0.9,0.1c-0.1,0-0.3-0.2-0.4,0c-0.4-0.3-1-0.2-1.4,0c-0.1,0.2-0.4,0.2-0.5,0.4
		c-0.3-0.1-0.6,0.6-0.4,1.2c0.1,0.1,0.2,0.3,0.4,0.4c0.2,0,0.3-0.2,0.5-0.2c0.1,0,0.2,0.1,0.2,0.1c0.1,0,0.3-0.1,0.4-0.1
		c0.1,0,0.1,0.1,0.2,0.1c0.1,0,0.1-0.1,0.2-0.1c0.1,0,0.1,0.1,0.2,0.1c0.1,0,0.1-0.1,0.2-0.1c0.4,0,0.8,0.3,1.1,0
		c0.1,0.3,0.2,0.1,0.4,0.1c0.2,0,0.3,0.2,0.5,0.2c0.1,0,0.1-0.1,0.1-0.1c0.1,0,0.1,0.1,0.2,0.1c0.1,0,0.1-0.1,0.2-0.1
		c0.1,0,0.3,0,0.4,0c0.4-0.1,0.8-0.2,1.2-0.2c0.1,0,0.2,0.1,0.3,0.1c0.2,0,0.4-0.1,0.6-0.1c0.2,0,0.4,0.1,0.6,0.1
		c0.1,0,0.1-0.1,0.2-0.1c0.1,0,0.2,0.1,0.3,0.1c0.2,0,0.4-0.2,0.6-0.1c0.1-0.2,0.2,0,0.3-0.2c0.3,0.2,0.6,0.2,0.9-0.1
		c0.2,0.1,0.4,0.1,0.6,0C41.2,286,41.5,285.8,41.8,285.8z"/>
	<path class="st1" d="M63.7,285.8c0.5,0,1.1,0,1.5,0c0.1,0,0.2-0.1,0.4,0c0.3,0.1,0.6,0.2,0.9,0.1c0,0,0.1-0.1,0.1-0.1
		c0.2-0.1,0.5,0.1,0.8,0.1c0.2,0,0.3,0.1,0.5,0.1c0.1,0,0.2-0.1,0.4-0.1c0.3-0.1,0.7,0,1,0c0.2,0,0.5,0,0.7,0c0.1,0,0.2,0,0.3,0
		c0,0,0.1,0.1,0.1,0.2c0.1,0.1,0.2,0,0.4,0c0.2,0.1,0.3,0.3,0.4,0.2c0.1-0.1,0.4-0.6,0.4-0.9c0-0.3-0.1-0.8-0.2-1
		c-0.1-0.2-0.3-0.1-0.4-0.3c-0.5,0.1-1,0-1.4,0c-0.3,0-0.6-0.1-0.9-0.1c-0.1,0-0.2,0.1-0.3,0.1c-0.3,0-0.5-0.2-0.7,0
		c-0.1,0.1-0.3,0-0.4,0c-0.2,0-0.4,0.1-0.6,0.1c-0.2-0.3-0.7,0-1-0.1c-0.7-0.2-1.4,0.2-2.1-0.1c-0.2,0.1-0.4,0-0.6,0
		c-0.1,0-0.2,0.1-0.3,0.1c-0.3,0.1-0.6-0.1-0.8-0.1c-0.1,0-0.1,0.1-0.2,0.1c-0.1,0-0.1-0.1-0.2-0.1c-0.1,0-0.2,0.1-0.3,0.1
		c-0.3,0.1-0.6,0.1-0.9,0c-0.1,0.1-0.3,0.1-0.5,0.1c-0.2,0-0.4-0.1-0.6-0.1c0,0-0.1,0.1-0.1,0.1c-0.2,0.1-0.5,0-0.6-0.1
		c-0.1,0-0.2,0.1-0.4,0.1c-0.1,0-0.1-0.1-0.2-0.1c-0.1,0-0.3,0.1-0.4,0.1c-0.2,0-0.5,0-0.7,0c-0.1,0,0,0.2-0.1,0.2
		c-0.1-0.1-0.3-0.2-0.5-0.3c-0.3-0.1-0.5,0.1-0.8,0.1c-0.1,0-0.2-0.2-0.4,0c-0.4-0.3-0.9-0.2-1.3,0c-0.1,0.2-0.3,0.2-0.4,0.4
		c-0.3-0.1-0.5,0.6-0.3,1.2c0.1,0.1,0.2,0.3,0.3,0.4c0.1,0,0.3-0.2,0.4-0.2c0.1,0,0.1,0.1,0.2,0.1c0.1,0,0.2-0.1,0.4-0.1
		c0.1,0,0.1,0.1,0.2,0.1c0.1,0,0.1-0.1,0.2-0.1c0.1,0,0.1,0.1,0.2,0.1c0,0,0.1-0.1,0.1-0.1c0.3,0,0.7,0.3,1,0
		c0.1,0.3,0.2,0.1,0.3,0.1c0.1,0,0.3,0.2,0.4,0.2c0,0,0.1-0.1,0.1-0.1c0.1,0,0.1,0.1,0.2,0.1c0.1,0,0.1-0.1,0.2-0.1
		c0.1,0,0.2,0,0.4,0c0.4-0.1,0.7-0.2,1.1-0.2c0.1,0,0.2,0.1,0.3,0.1c0.2,0,0.3-0.1,0.5-0.1c0.2,0,0.3,0.1,0.5,0.1
		c0,0,0.1-0.1,0.1-0.1c0.1,0,0.2,0.1,0.3,0.1c0.2,0,0.4-0.2,0.6-0.1c0.1-0.2,0.2,0,0.3-0.2c0.2,0.2,0.6,0.2,0.8-0.1
		c0.1,0.1,0.3,0.1,0.5,0C63.2,286,63.5,285.8,63.7,285.8z"/>
	<path class="st1" d="M135.6,273.5c1.6-0.1,3.4,0,4.7,0c0.4,0,0.7-0.1,1.1,0c0.9,0.1,1.8,0.2,2.7,0.1c0.1,0,0.2-0.1,0.3-0.1
		c0.7-0.1,1.6,0.1,2.3,0c0.5-0.1,1,0.1,1.5,0c0.4,0,0.7-0.1,1.1-0.2c1-0.1,2.1,0,3,0c0.7,0,1.5,0,2.2,0c0.3,0,0.6,0,0.9,0
		c0.1,0,0.2,0.1,0.3,0.2c0.3,0.1,0.7,0,1.2,0c0.6,0.1,1,0.2,1.4,0.2c0.4-0.1,1-0.6,1.1-0.9c0-0.3-0.3-0.8-0.6-1
		c-0.3-0.2-0.8-0.1-1.1-0.3c-1.4,0.1-2.9,0.1-4.3,0.1c-0.8,0-1.7,0-2.6-0.1c-0.3,0-0.5,0.1-0.8,0.1c-0.8,0-1.6-0.1-2.2,0
		c-0.4,0.1-0.8,0-1.3,0c-0.6,0-1.2,0.1-1.8,0.2c-0.8-0.3-2,0-2.9-0.1c-2.1-0.2-4.4,0.2-6.5,0c-0.6,0.1-1.2,0-1.7,0
		c-0.3,0-0.5,0.1-0.9,0.1c-0.8,0.1-1.7-0.1-2.4,0c-0.2,0-0.4,0.1-0.6,0.1c-0.2,0-0.3-0.1-0.5-0.1c-0.3,0-0.6,0.1-0.9,0.1
		c-1,0.1-1.8,0.1-2.6,0c-0.4,0.1-0.9,0.1-1.4,0.1c-0.6,0-1.2-0.1-1.8,0c-0.1,0-0.3,0.1-0.4,0.1c-0.6,0.1-1.4,0-1.9,0
		c-0.4,0-0.7,0.1-1.1,0.1c-0.2,0-0.3-0.1-0.5-0.1c-0.4,0-0.9,0.1-1.3,0.1c-0.7,0-1.5,0-2.3,0c-0.2,0-0.1,0.2-0.2,0.2
		c-0.4-0.1-0.9-0.2-1.4-0.3c-0.8-0.1-1.6,0.1-2.4,0.1c-0.4,0-0.8-0.2-1.1,0c-1.1-0.3-2.7-0.1-3.9,0c-0.3,0.2-1,0.2-1.2,0.4
		c-0.9-0.1-1.5,0.6-0.9,1.2c0.4,0.1,0.6,0.3,1,0.3c0.4,0,0.9-0.2,1.3-0.2c0.2,0,0.4,0.1,0.6,0.1c0.3,0,0.7-0.1,1.1-0.1
		c0.2,0,0.4,0.1,0.5,0.1c0.2,0,0.3-0.1,0.5-0.1c0.2,0,0.4,0.1,0.6,0.1c0.1,0,0.3-0.1,0.4-0.1c1.1,0,2.2,0.3,3.1,0
		c0.3,0.3,0.7,0.1,1,0.1c0.4,0,0.9,0.2,1.3,0.2c0.1,0,0.2-0.1,0.4-0.1c0.2,0,0.3,0.1,0.5,0.1c0.2,0,0.3-0.1,0.5-0.1
		c0.4-0.1,0.8,0,1.2,0c1.1-0.1,2.2-0.2,3.3-0.2c0.3,0,0.6,0.1,0.9,0.1c0.6,0,1-0.1,1.6-0.2c0.5,0,1.1,0.1,1.6,0
		c0.1,0,0.3-0.1,0.4-0.1c0.3,0,0.6,0.1,0.9,0.1c0.6,0,1.2-0.2,1.7-0.1c0.2-0.2,0.5,0,0.8-0.2c0.7,0.2,1.8,0.1,2.4-0.1
		c0.4,0.1,1.1,0,1.5,0C134,273.7,134.8,273.5,135.6,273.5z"/>
	<path class="st1" d="M125.1,282.5c1.1-0.1,2.3,0,3.2,0c0.3,0,0.5-0.1,0.7,0c0.6,0.1,1.2,0.2,1.8,0.1c0.1,0,0.2-0.1,0.2-0.1
		c0.5-0.1,1,0.1,1.5,0c0.4-0.1,0.7,0.1,1,0c0.3,0,0.5-0.1,0.7-0.2c0.7-0.1,1.4,0,2,0c0.5,0,1,0,1.5,0c0.2,0,0.4,0,0.6,0
		c0.1,0,0.2,0.1,0.2,0.2c0.2,0.1,0.5,0,0.8,0c0.4,0.1,0.7,0.2,0.9,0.2c0.2-0.1,0.7-0.6,0.7-0.9c0-0.3-0.2-0.8-0.4-1
		c-0.2-0.2-0.6-0.1-0.7-0.3c-1,0.1-2,0.1-2.9,0.1c-0.6,0-1.2,0-1.7-0.1c-0.2,0-0.3,0.1-0.5,0.1c-0.6,0-1.1-0.1-1.5,0
		c-0.3,0.1-0.6,0-0.9,0c-0.4,0-0.8,0.1-1.2,0.2c-0.5-0.3-1.3,0-1.9-0.1c-1.4-0.2-2.9,0.2-4.4,0c-0.4,0.1-0.8,0-1.1,0
		c-0.2,0-0.4,0.1-0.6,0.1c-0.5,0.1-1.1-0.1-1.6,0c-0.1,0-0.2,0.1-0.4,0.1c-0.1,0-0.2-0.1-0.3-0.1c-0.2,0-0.4,0.1-0.6,0.1
		c-0.7,0.1-1.2,0.1-1.7,0c-0.3,0.1-0.6,0.1-0.9,0.1c-0.4,0-0.8-0.1-1.2,0c-0.1,0-0.2,0.1-0.3,0.1c-0.4,0.1-1,0-1.3,0
		c-0.2,0-0.5,0.1-0.7,0.1c-0.1,0-0.2-0.1-0.3-0.1c-0.3,0-0.6,0.1-0.9,0.1c-0.5,0-1,0-1.5,0c-0.1,0,0,0.2-0.1,0.2
		c-0.3-0.1-0.6-0.2-0.9-0.3c-0.5-0.1-1.1,0.1-1.6,0.1c-0.2,0-0.5-0.2-0.7,0c-0.7-0.3-1.8-0.1-2.6,0c-0.2,0.2-0.6,0.2-0.8,0.4
		c-0.6-0.1-1,0.6-0.6,1.2c0.3,0.1,0.4,0.3,0.7,0.3c0.3,0,0.6-0.2,0.9-0.2c0.1,0,0.3,0.1,0.4,0.1c0.2,0,0.5-0.1,0.7-0.1
		c0.1,0,0.2,0.1,0.3,0.1c0.1,0,0.2-0.1,0.3-0.1c0.1,0,0.3,0.1,0.4,0.1c0.1,0,0.2-0.1,0.3-0.1c0.7,0,1.5,0.3,2.1,0
		c0.2,0.3,0.4,0.1,0.7,0.1c0.3,0,0.6,0.2,0.9,0.2c0.1,0,0.2-0.1,0.3-0.1c0.1,0,0.2,0.1,0.3,0.1c0.1,0,0.2-0.1,0.3-0.1
		c0.2-0.1,0.5,0,0.8,0c0.7-0.1,1.5-0.2,2.2-0.2c0.2,0,0.4,0.1,0.6,0.1c0.4,0,0.7-0.1,1.1-0.2c0.3,0,0.7,0.1,1.1,0
		c0.1,0,0.2-0.1,0.3-0.1c0.2,0,0.4,0.1,0.6,0.1c0.4,0,0.8-0.2,1.2-0.1c0.2-0.2,0.3,0,0.5-0.2c0.5,0.2,1.2,0.1,1.6-0.1
		c0.3,0.1,0.7,0,1,0C124,282.7,124.6,282.5,125.1,282.5z"/>
	<path class="st1" d="M228.3,273.5c1.8-0.1,3.8,0,5.2,0c0.4,0,0.8-0.1,1.2,0c1,0.1,2,0.2,3,0.1c0.1,0,0.3-0.1,0.4-0.1
		c0.8-0.1,1.7,0.1,2.6,0c0.6-0.1,1.1,0.1,1.7,0c0.4,0,0.8-0.1,1.2-0.2c1.2-0.1,2.3,0,3.4,0c0.8,0,1.6,0,2.4,0c0.3,0,0.7,0,1,0
		c0.1,0,0.3,0.1,0.4,0.2c0.3,0.1,0.8,0,1.3,0c0.6,0.1,1.2,0.2,1.5,0.2c0.4-0.1,1.1-0.6,1.2-0.9c0-0.3-0.3-0.8-0.6-1
		c-0.3-0.2-0.9-0.1-1.2-0.3c-1.6,0.1-3.2,0.1-4.7,0.1c-0.9,0-1.9,0-2.9-0.1c-0.3,0-0.6,0.1-0.9,0.1c-0.9,0-1.8-0.1-2.4,0
		c-0.5,0.1-0.9,0-1.5,0c-0.6,0-1.3,0.1-2,0.2c-0.8-0.3-2.2,0-3.2-0.1c-2.3-0.2-4.8,0.2-7.2,0c-0.6,0.1-1.3,0-1.9,0
		c-0.3,0-0.6,0.1-0.9,0.1c-0.9,0.1-1.9-0.1-2.7,0c-0.2,0-0.4,0.1-0.6,0.1c-0.2,0-0.4-0.1-0.6-0.1c-0.3,0-0.7,0.1-1,0.1
		c-1.1,0.1-2,0.1-2.9,0c-0.4,0.1-1,0.1-1.6,0.1c-0.7,0-1.3-0.1-2,0c-0.1,0-0.3,0.1-0.5,0.1c-0.7,0.1-1.6,0-2.1,0
		c-0.4,0-0.8,0.1-1.2,0.1c-0.2,0-0.4-0.1-0.5-0.1c-0.5,0-1,0.1-1.4,0.1c-0.8,0-1.7,0-2.5,0c-0.2,0-0.1,0.2-0.2,0.2
		c-0.5-0.1-1-0.2-1.6-0.3c-0.9-0.1-1.8,0.1-2.7,0.1c-0.4,0-0.8-0.2-1.2,0c-1.2-0.3-3-0.1-4.3,0c-0.4,0.2-1.1,0.2-1.4,0.4
		c-1-0.1-1.7,0.6-1,1.2c0.4,0.1,0.7,0.3,1.1,0.3c0.5,0,1-0.2,1.5-0.2c0.2,0,0.5,0.1,0.7,0.1c0.4,0,0.8-0.1,1.2-0.1
		c0.2,0,0.4,0.1,0.6,0.1c0.2,0,0.3-0.1,0.5-0.1c0.2,0,0.4,0.1,0.7,0.1c0.2,0,0.3-0.1,0.5-0.1c1.2,0,2.5,0.3,3.5,0
		c0.3,0.3,0.7,0.1,1.1,0.1c0.5,0,1,0.2,1.5,0.2c0.2,0,0.3-0.1,0.4-0.1c0.2,0,0.4,0.1,0.6,0.1c0.2,0,0.4-0.1,0.6-0.1
		c0.4-0.1,0.8,0,1.3,0c1.2-0.1,2.4-0.2,3.7-0.2c0.4,0,0.7,0.1,1,0.1c0.6,0,1.2-0.1,1.7-0.2c0.6,0,1.2,0.1,1.7,0
		c0.2,0,0.3-0.1,0.5-0.1c0.3,0,0.6,0.1,0.9,0.1c0.7,0,1.3-0.2,1.9-0.1c0.3-0.2,0.6,0,0.9-0.2c0.8,0.2,2,0.1,2.7-0.1
		c0.5,0.1,1.2,0,1.7,0C226.5,273.7,227.4,273.5,228.3,273.5z"/>
	<path class="st1" d="M229.4,282.5c1.9-0.1,3.9,0,5.4,0c0.4,0,0.8-0.1,1.3,0c1,0.1,2.1,0.2,3.1,0.1c0.1,0,0.3-0.1,0.4-0.1
		c0.8-0.1,1.8,0.1,2.6,0c0.6-0.1,1.1,0.1,1.8,0c0.5,0,0.8-0.1,1.2-0.2c1.2-0.1,2.4,0,3.5,0c0.8,0,1.7,0,2.5,0c0.3,0,0.7,0,1,0
		c0.1,0,0.3,0.1,0.4,0.2c0.3,0.1,0.8,0,1.3,0c0.7,0.1,1.2,0.2,1.6,0.2c0.4-0.1,1.2-0.6,1.2-0.9c0-0.3-0.3-0.8-0.6-1
		c-0.3-0.2-0.9-0.1-1.3-0.3c-1.6,0.1-3.3,0.1-4.9,0.1c-1,0-2,0-3-0.1c-0.3,0-0.6,0.1-0.9,0.1c-0.9,0-1.8-0.1-2.5,0
		c-0.5,0.1-1,0-1.5,0c-0.7,0-1.4,0.1-2,0.2c-0.9-0.3-2.3,0-3.3-0.1c-2.4-0.2-5,0.2-7.5,0c-0.6,0.1-1.4,0-1.9,0c-0.3,0-0.6,0.1-1,0.1
		c-0.9,0.1-1.9-0.1-2.8,0c-0.2,0-0.4,0.1-0.6,0.1c-0.2,0-0.4-0.1-0.6-0.1c-0.3,0-0.7,0.1-1,0.1c-1.1,0.1-2.1,0.1-3,0
		c-0.4,0.1-1.1,0.1-1.6,0.1c-0.7,0-1.4-0.1-2.1,0c-0.2,0-0.3,0.1-0.5,0.1c-0.7,0.1-1.6,0-2.2,0c-0.4,0-0.8,0.1-1.3,0.1
		c-0.2,0-0.4-0.1-0.5-0.1c-0.5,0-1,0.1-1.5,0.1c-0.8,0-1.7,0-2.6,0c-0.2,0-0.1,0.2-0.2,0.2c-0.5-0.1-1-0.2-1.6-0.3
		c-0.9-0.1-1.9,0.1-2.8,0.1c-0.4,0-0.9-0.2-1.2,0c-1.2-0.3-3.1-0.1-4.4,0c-0.4,0.2-1.1,0.2-1.4,0.4c-1-0.1-1.7,0.6-1.1,1.2
		c0.4,0.1,0.7,0.3,1.2,0.3c0.5,0,1-0.2,1.5-0.2c0.2,0,0.5,0.1,0.7,0.1c0.4,0,0.8-0.1,1.3-0.1c0.2,0,0.4,0.1,0.6,0.1
		c0.2,0,0.4-0.1,0.5-0.1c0.2,0,0.4,0.1,0.7,0.1c0.2,0,0.3-0.1,0.5-0.1c1.2,0,2.5,0.3,3.6,0c0.3,0.3,0.8,0.1,1.1,0.1
		c0.5,0,1,0.2,1.5,0.2c0.2,0,0.3-0.1,0.4-0.1c0.2,0,0.4,0.1,0.6,0.1c0.2,0,0.4-0.1,0.6-0.1c0.4-0.1,0.9,0,1.3,0
		c1.2-0.1,2.5-0.2,3.8-0.2c0.4,0,0.7,0.1,1.1,0.1c0.6,0,1.2-0.1,1.8-0.2c0.6,0,1.2,0.1,1.8,0c0.2,0,0.3-0.1,0.5-0.1
		c0.3,0,0.6,0.1,1,0.1c0.7,0,1.3-0.2,2-0.1c0.3-0.2,0.6,0,0.9-0.2c0.8,0.2,2,0.1,2.8-0.1c0.5,0.1,1.2,0,1.8,0
		C227.5,282.7,228.4,282.5,229.4,282.5z"/>
	<g>
		<path class="st0" d="M62.3,277.2c-1.8,0-3.2-1.4-3.2-3.2s1.4-3.2,3.2-3.2c1.8,0,3.2,1.4,3.2,3.2"/>
		<g>
			<path d="M63.1,273.6l2.3,2l1.7-1.6c0.2-0.1,0.1-0.4-0.2-0.4H63.1z"/>
			<path class="st1" d="M67.8,273.6c-0.1-0.2-0.2-0.4-0.5-0.5C67.2,273,67,273,67,273l-0.1,0c-0.1,0-0.2,0-0.3,0
				c-0.1-0.4-0.3-0.8-0.5-1.1c-0.2-0.3-0.3-0.6-0.5-0.8c-0.1-0.1-0.2-0.1-0.3-0.2c-0.2-0.2-0.4-0.5-0.6-0.5c-0.2,0-0.3-0.2-0.4-0.3
				c-0.2-0.1-0.5-0.1-0.7-0.1c-0.2-0.4-0.7-0.2-1-0.3c-0.4-0.1-0.8-0.1-1.2,0.1c-0.4,0.1-0.7,0.3-1.2,0.4c-0.1,0.2-0.4,0.2-0.5,0.3
				c-0.1,0.1-0.1,0.2-0.2,0.3c-0.2,0.2-0.5,0.4-0.7,0.6c0,0.1,0,0.2,0,0.2c0,0.1-0.1,0.1-0.2,0.1c-0.1,0.1-0.1,0.2-0.1,0.3
				c-0.1,0.3-0.2,0.6-0.4,0.8c0.1,0.2,0,0.3,0,0.5c-0.1,0.2-0.2,0.4-0.1,0.6c0,0,0.1,0.1,0.1,0.1c0.1,0.2,0,0.5,0,0.7
				c0,0.1,0.2,0.2,0.2,0.3c0,0,0,0.1,0,0.2c0,0.1,0.2,0.2,0.3,0.4c0.1,0.2,0.2,0.4,0.4,0.6c0,0.1,0.2-0.1,0.2,0c0,0.2,0,0.4,0.1,0.5
				c0.1,0.3,0.5,0.3,0.7,0.4c0.1,0.1,0.1,0.3,0.3,0.2c0.2,0.4,0.8,0.5,1.2,0.5c0.1-0.2,0.3-0.1,0.4-0.4c0.3,0.1,0.4-0.6,0.3-1.2
				c-0.1-0.1-0.1-0.3-0.2-0.4c-0.1,0-0.2,0.2-0.2,0.2c0,0,0-0.1-0.1-0.1c-0.1,0-0.1,0.1-0.2,0.1c0,0,0-0.1-0.1-0.1
				c0,0-0.1,0.1-0.1,0.1c0,0,0-0.1-0.1-0.1c0,0-0.1,0-0.1,0c-0.2-0.1-0.1-0.4-0.4-0.3c0.2-0.2,0-0.1-0.1-0.2c0-0.1,0-0.2,0-0.3
				c0,0-0.1,0-0.1,0c0,0,0-0.1,0-0.1c0,0-0.1,0-0.1,0c-0.1,0-0.1-0.1-0.1-0.2c-0.1-0.1-0.3-0.3-0.3-0.5c0-0.1,0.1-0.1,0.1-0.2
				c0-0.1-0.1-0.2-0.1-0.3c0-0.1,0.1-0.2,0.1-0.3c0,0-0.1-0.1-0.1-0.1c0-0.1,0.1-0.1,0.1-0.1c0-0.1-0.1-0.3,0.1-0.3
				c-0.2-0.2,0.1-0.1-0.1-0.2c0.3,0,0.3-0.2,0.3-0.5c0.1,0,0.2-0.1,0.2-0.2c0.3,0.1,0.3-0.1,0.5-0.2c0.3-0.2,0.7-0.2,1-0.2
				c0.1,0,0.2-0.1,0.2,0c0.2,0.1,0.4,0.2,0.6,0.2c0,0,0.1-0.1,0.1-0.1c0.2,0,0.3,0.2,0.5,0.2c0.1,0,0.2,0.2,0.3,0.2
				c0.1,0,0.2,0,0.3,0c0.3,0.1,0.3,0.3,0.5,0.5c0.1,0.1,0.2,0.3,0.2,0.4c0,0.1,0,0.1,0,0.2c0,0,0,0-0.1,0.1c-0.1,0-0.3,0-0.4,0
				c-0.1,0-0.3,0-0.4,0c-0.1,0-0.1,0-0.2,0c0,0,0-0.1-0.1-0.2c0-0.1-0.1,0-0.2,0c-0.1-0.1-0.2-0.2-0.2-0.2c-0.1,0.1-0.2,0.6-0.2,0.9
				c0,0,0,0,0,0c-0.2,0.2-0.4,0.4-0.6,0.7c0,0.2-0.1,0.3-0.1,0.4c0.1,0.1,0.2,0,0.3,0c0,0,0,0.1,0,0.2c0,0.1,0.2,0,0.2,0
				c0,0,0,0.1,0,0.1c0,0,0.1,0,0.1,0c0,0,0,0.1,0,0.1c0,0,0.1,0,0.1,0c0.1,0.1,0.1,0.5,0.4,0.4c-0.1,0.2,0,0.1,0.1,0.2
				c0,0,0.1,0.3,0.2,0.4c0,0,0.1,0,0.2,0c0,0,0,0.2,0.1,0.2c0,0,0.1,0,0.2,0c0.1,0,0.2,0.1,0.3,0.2c0.3,0.2,0.5,0.2,0.8,0.4l0.1,0
				c0.1-0.1,0.1,0,0.2,0c0.1-0.1,0.2-0.4,0.3-0.5c0.1-0.1,0.3-0.1,0.4-0.3c0,0,0-0.1,0.1-0.2c0.1-0.1,0.2,0,0.2-0.1
				c0.1-0.2,0.1-0.4,0.3-0.3c-0.1-0.2,0.1-0.1,0-0.2c0.2,0.1,0.3-0.1,0.3-0.3c0.1,0,0.2-0.1,0.2-0.2c0.1,0,0.1,0,0.1,0c0,0,0,0,0,0
				c0,0,0,0,0.1-0.1C67.8,274.2,67.9,273.9,67.8,273.6z"/>
		</g>
	</g>
	<g>
		<g>
			<path class="st1" d="M27.9,49.1v-8h3.2c2.5,0,4.2,1.6,4.2,4c0,2.4-1.7,4-4.2,4H27.9z M33.6,45.1c0-1.4-0.9-2.5-2.5-2.5h-1.5v5
				h1.5C32.6,47.6,33.6,46.5,33.6,45.1z"/>
			<path class="st1" d="M40.4,49.1v-0.7c-0.4,0.4-1.1,0.9-2,0.9c-1.3,0-1.9-0.7-1.9-1.8v-4.1H38v3.5c0,0.8,0.4,1.1,1.1,1.1
				c0.6,0,1.1-0.3,1.3-0.7v-3.9h1.5v5.8H40.4z"/>
			<path class="st1" d="M43.1,46.2c0-1.7,1.2-3,3-3c1.7,0,2.9,1.3,2.9,3.2v0.4h-4.3c0.1,0.7,0.7,1.3,1.7,1.3c0.5,0,1.2-0.2,1.5-0.6
				l0.7,1C48,49,47,49.2,46.1,49.2C44.4,49.2,43.1,48.1,43.1,46.2z M46.1,44.4c-0.9,0-1.4,0.7-1.4,1.2h2.9
				C47.4,45.1,47.1,44.4,46.1,44.4z"/>
			<path class="st1" d="M55,49.1v-6.5h-2.3v-1.5h6.4v1.5h-2.3v6.5H55z"/>
			<path class="st1" d="M58.6,46.2c0-1.6,1.2-3,3.1-3c1.9,0,3.1,1.4,3.1,3c0,1.6-1.2,3-3.1,3C59.7,49.2,58.6,47.8,58.6,46.2z
				 M63.1,46.2c0-0.9-0.5-1.7-1.5-1.7c-0.9,0-1.5,0.8-1.5,1.7c0,0.9,0.5,1.7,1.5,1.7C62.6,47.9,63.1,47.1,63.1,46.2z"/>
			<path class="st1" d="M69.8,49.1v-0.7c-0.5,0.6-1.1,0.9-1.8,0.9c-1.5,0-2.6-1.1-2.6-3c0-1.9,1.1-3,2.6-3c0.7,0,1.3,0.3,1.8,0.9v-3
				h1.5v8H69.8z M69.8,47.2v-2.1c-0.3-0.4-0.8-0.7-1.3-0.7c-0.9,0-1.5,0.7-1.5,1.7c0,1,0.6,1.7,1.5,1.7C69,47.9,69.6,47.6,69.8,47.2
				z"/>
			<path class="st1" d="M76.4,49.1v-0.6c-0.4,0.5-1.1,0.8-1.8,0.8c-0.9,0-2-0.6-2-1.9c0-1.4,1.1-1.9,2-1.9c0.8,0,1.5,0.3,1.8,0.7
				v-0.7c0-0.6-0.5-1-1.3-1c-0.6,0-1.2,0.2-1.7,0.7l-0.6-1.1c0.7-0.6,1.6-0.9,2.5-0.9c1.3,0,2.5,0.5,2.5,2.2v3.7H76.4z M76.4,47.7
				V47c-0.3-0.3-0.7-0.5-1.2-0.5c-0.6,0-1.1,0.3-1.1,0.9s0.5,0.9,1.1,0.9C75.6,48.2,76.1,48,76.4,47.7z"/>
			<path class="st1" d="M79.4,50c0.1,0.1,0.3,0.1,0.5,0.1c0.4,0,0.7-0.1,0.8-0.4l0.2-0.5l-2.4-5.9h1.6l1.5,4l1.5-4h1.6L82.1,50
				c-0.4,1.1-1.2,1.4-2.2,1.4c-0.2,0-0.6,0-0.7-0.1L79.4,50z"/>
			<path class="st1" d="M85.4,44.2c0-0.5,0.4-1,1-1s1,0.4,1,1s-0.4,1-1,1S85.4,44.7,85.4,44.2z M85.4,48.3c0-0.5,0.4-1,1-1
				s1,0.4,1,1c0,0.5-0.4,1-1,1S85.4,48.8,85.4,48.3z"/>
		</g>
	</g>
	<g>
		<g>
			<path class="st1" d="M31.9,71.9c-1.9-0.2-3.3-0.9-4.3-1.9l1.4-2c0.7,0.7,1.7,1.3,2.9,1.5v-2.8c-1.9-0.5-3.9-1.2-3.9-3.6
				c0-1.8,1.4-3.4,3.9-3.6v-1.7h1.7v1.7c1.5,0.2,2.7,0.7,3.7,1.6l-1.4,1.9c-0.6-0.6-1.4-1-2.3-1.2v2.5c1.9,0.5,4,1.2,4,3.7
				c0,2-1.3,3.5-4,3.8v1.6h-1.7V71.9z M31.9,64.1v-2.2c-0.8,0.1-1.2,0.5-1.2,1.2C30.7,63.6,31.2,63.8,31.9,64.1z M33.6,67.2v2.4
				c0.9-0.2,1.4-0.7,1.4-1.3C35,67.8,34.4,67.5,33.6,67.2z"/>
			<path class="st1" d="M41.8,71.8v-8.7l-2,2l-1.5-1.5l3.8-3.8h2.2v12H41.8z"/>
			<path class="st1" d="M47.6,74.2l-1-0.8c0.6-0.3,1.2-1.1,1.4-1.7c-0.1,0-0.2,0.1-0.3,0.1c-0.7,0-1.2-0.5-1.2-1.3
				c0-0.8,0.6-1.4,1.4-1.4c0.8,0,1.6,0.7,1.6,1.8C49.4,72.2,48.7,73.4,47.6,74.2z"/>
			<path class="st1" d="M51,71.8v-2c4.9-3.6,6.4-4.9,6.4-6.3c0-1.1-1-1.6-1.9-1.6c-1.4,0-2.4,0.5-3.2,1.4l-1.5-1.7
				c1.2-1.3,3-2,4.6-2c2.6,0,4.6,1.4,4.6,3.8c0,2.1-1.7,3.8-4.8,6.1H60v2.3H51z"/>
			<path class="st1" d="M61.6,65.8c0-3.1,1.5-6.2,5-6.2c3.4,0,5,3.1,5,6.2c0,3.1-1.5,6.2-5,6.2C63.1,72,61.6,68.9,61.6,65.8z
				 M68.9,65.8c0-2.2-0.6-3.9-2.4-3.9c-1.7,0-2.4,1.7-2.4,3.9c0,2.2,0.6,3.9,2.4,3.9C68.2,69.7,68.9,68,68.9,65.8z"/>
			<path class="st1" d="M72.7,65.8c0-3.1,1.5-6.2,5-6.2c3.4,0,5,3.1,5,6.2c0,3.1-1.5,6.2-5,6.2C74.2,72,72.7,68.9,72.7,65.8z
				 M80,65.8c0-2.2-0.6-3.9-2.4-3.9c-1.7,0-2.4,1.7-2.4,3.9c0,2.2,0.6,3.9,2.4,3.9C79.4,69.7,80,68,80,65.8z"/>
			<path class="st1" d="M83.7,70.5c0-0.8,0.7-1.5,1.5-1.5s1.5,0.7,1.5,1.5c0,0.8-0.7,1.5-1.5,1.5S83.7,71.3,83.7,70.5z"/>
			<path class="st1" d="M87.7,65.8c0-3.1,1.5-6.2,5-6.2c3.4,0,5,3.1,5,6.2c0,3.1-1.5,6.2-5,6.2C89.3,72,87.7,68.9,87.7,65.8z
				 M95.1,65.8c0-2.2-0.6-3.9-2.4-3.9c-1.7,0-2.4,1.7-2.4,3.9c0,2.2,0.6,3.9,2.4,3.9C94.4,69.7,95.1,68,95.1,65.8z"/>
			<path class="st1" d="M98.9,65.8c0-3.1,1.5-6.2,5-6.2c3.4,0,5,3.1,5,6.2c0,3.1-1.5,6.2-5,6.2C100.4,72,98.9,68.9,98.9,65.8z
				 M106.2,65.8c0-2.2-0.6-3.9-2.4-3.9c-1.7,0-2.4,1.7-2.4,3.9c0,2.2,0.6,3.9,2.4,3.9C105.6,69.7,106.2,68,106.2,65.8z"/>
		</g>
	</g>
	<g>
		<rect x="28.3" y="87.5" class="st3" width="31.5" height="12.8"/>
		<path class="st1" d="M59.4,93.9c0,1.1,0,2.2,0,3.3c0,0.9,0,1.8,0,2.6c-0.3,0-0.5,0-0.7,0c-0.6,0-1.2,0-1.8,0
			c-1.4,0-2.9-0.1-4.3-0.1c-0.2,0-0.4,0.1-0.5,0.1c-1.1,0.1-2.5-0.1-3.7,0c-0.9,0-1.6,0-2.4,0c-0.6,0-1.2,0.1-1.7,0.1
			c-1.7,0.1-3.3,0-4.8,0c-1.1,0-2.3,0-3.5,0c-0.5,0-1,0-1.4,0c-0.2,0-0.4-0.1-0.5-0.1c-0.5,0-1.2,0-1.8,0c-0.9,0-1.7-0.2-2.2-0.1
			c-0.6,0-1.6,0.4-1.7,0.7c0,0.2,0.5,0.6,0.9,0.7c0.5,0.1,1.3,0.1,1.8,0.2c2.3-0.1,4.6-0.1,6.8-0.1c1.3,0,2.7,0,4.1,0.1
			c0.4,0,0.8-0.1,1.2-0.1c1.3,0,2.5,0.1,3.5,0c0.7-0.1,1.3,0,2.1,0c0.9,0,1.9-0.1,2.8-0.1c1.2,0.2,3.1,0,4.6,0.1c0.6,0,1.2,0,1.8,0
			c0.9,0,1.8,0,2.8,0c0-1.4,0-2.8-0.1-4.3c0-1.1,0-2.2,0-3.4c-0.1-0.9,0-1.9,0-2.7c0-0.4-0.1-0.9-0.1-1.4c0-0.3,0-0.7,0-1
			c0-0.6,0-1.2,0-1.8c-0.6,0-1.2,0-1.7,0c-0.3,0-0.6,0-0.9,0c-0.3,0-0.6,0.1-0.9,0.1c-0.3,0-0.5-0.1-0.8-0.1c-0.5,0-1,0-1.4,0.1
			c-1.6,0.1-2.9,0.1-4.1,0c-0.6,0.1-1.5,0.1-2.2,0.1c-1,0-1.9-0.1-2.9,0c-0.2,0-0.5,0.1-0.7,0.1c-1,0-2.3,0-3.1,0
			c-0.6,0-1.2,0.1-1.8,0.1c-0.2,0-0.5-0.1-0.7-0.1c-0.7,0-1.4,0.1-2,0.1c-1.1,0-2.4,0-3.6,0c-0.3,0-0.1,0.1-0.3,0.1
			c-0.7-0.1-1.4-0.2-2.2-0.2c-0.4,0-0.9,0-1.4,0c-0.6,0-1.3,0-1.9,0.1c0,0.6,0,1.1,0,1.6c0,0.6-0.1,1.2,0,1.7
			c-0.2,1.7-0.1,4.3,0,6.2c0.2,0.5,0.1,1.5,0.3,2c0,1.4,0.5,2.4,0.9,1.5c0.1-0.6,0.3-1,0.3-1.6c0-0.7-0.1-1.4-0.1-2.1
			c0-0.3,0.1-0.7,0.1-1c0-0.6-0.1-1.2-0.1-1.8c0-0.3,0.1-0.6,0.1-0.8c0-0.3-0.1-0.5-0.1-0.7c0-0.3,0.1-0.6,0.1-0.9
			c0-0.2-0.1-0.4-0.1-0.7c0-0.4,0-0.9,0-1.4l0-0.3c0-0.1,0-0.1,0-0.1l0-0.1l0.1,0l0.2,0c0.4,0,0.7,0,1.1-0.1
			c0.5,0.2,1.1,0.1,1.6,0.1c0.7,0,1.4,0.1,2.1,0.1c0.2,0,0.4-0.1,0.6-0.1c0.3,0,0.6,0.1,0.8,0.1c0.3,0,0.5-0.1,0.8-0.1
			c0.6,0,1.2,0,1.8,0c1.7,0,3.4-0.2,5.3-0.1c0.5,0,1,0.1,1.5,0.1c0.9,0,1.7-0.1,2.5-0.1c0.8,0,1.7,0.1,2.5,0c0.2,0,0.5-0.1,0.7-0.1
			c0.5,0,0.9,0.1,1.4,0.1c1,0,1.9-0.1,2.8-0.1c0.4-0.2,0.8,0,1.3-0.1c0.5,0.1,1.2,0.1,1.8,0.1l0.5,0c0.1,0,0.4,0,0.4,0
			c0.2,0,0.3-0.1,0.5-0.1c0,0,0,0.1,0,0.1c0,0.2,0,1.4,0,2.1C59.2,91.4,59.4,92.6,59.4,93.9z"/>
	</g>
	<path class="st1" d="M44,94.5c0.5-0.1,1,0,1.4,0c0.1,0,0.2-0.1,0.3,0c0.3,0.1,0.6,0.2,0.8,0.1c0,0,0.1-0.1,0.1-0.1
		c0.2-0.1,0.5,0.1,0.7,0c0.2-0.1,0.3,0.1,0.5,0c0.1,0,0.2-0.1,0.3-0.2c0.3-0.1,0.6,0,0.9,0c0.2,0,0.4,0,0.6,0c0.1,0,0.2,0,0.3,0
		c0,0,0.1,0.1,0.1,0.2c0.1,0.1,0.2,0,0.3,0c0.2,0.1,0.3,0.2,0.4,0.2c0.1-0.1,0.3-0.6,0.3-0.9c0-0.3-0.1-0.8-0.2-1
		c-0.1-0.2-0.2-0.1-0.3-0.3c-0.4,0.1-0.9,0.1-1.3,0.1c-0.2,0-0.5,0-0.8-0.1c-0.1,0-0.2,0.1-0.2,0.1c-0.2,0-0.5-0.1-0.6,0
		c-0.1,0.1-0.3,0-0.4,0c-0.2,0-0.4,0.1-0.5,0.2c-0.2-0.3-0.6,0-0.9-0.1c-0.6-0.2-1.3,0.2-1.9,0c-0.2,0.1-0.4,0-0.5,0
		c-0.1,0-0.2,0.1-0.3,0.1c-0.2,0.1-0.5-0.1-0.7,0c-0.1,0-0.1,0.1-0.2,0.1c-0.1,0-0.1-0.1-0.2-0.1c-0.1,0-0.2,0.1-0.3,0.1
		c-0.3,0.1-0.5,0.1-0.8,0C40.9,93,40.8,93,40.6,93c-0.2,0-0.4-0.1-0.5,0c0,0-0.1,0.1-0.1,0.1c-0.2,0.1-0.4,0-0.6,0
		c-0.1,0-0.2,0.1-0.3,0.1c0,0-0.1-0.1-0.1-0.1c-0.1,0-0.3,0.1-0.4,0.1c-0.2,0-0.5,0-0.7,0c0,0,0,0.2-0.1,0.2
		c-0.1-0.1-0.3-0.2-0.4-0.3c-0.2-0.1-0.5,0.1-0.7,0.1c-0.1,0-0.2-0.2-0.3,0c-0.3-0.3-0.8-0.1-1.2,0c-0.1,0.2-0.3,0.2-0.4,0.4
		c-0.3-0.1-0.5,0.6-0.3,1.2c0.1,0.1,0.2,0.3,0.3,0.3c0.1,0,0.3-0.2,0.4-0.2c0.1,0,0.1,0.1,0.2,0.1c0.1,0,0.2-0.1,0.3-0.1
		c0.1,0,0.1,0.1,0.2,0.1c0,0,0.1-0.1,0.1-0.1c0.1,0,0.1,0.1,0.2,0.1c0,0,0.1-0.1,0.1-0.1c0.3,0,0.7,0.3,0.9,0
		c0.1,0.3,0.2,0.1,0.3,0.1c0.1,0,0.3,0.2,0.4,0.2c0,0,0.1-0.1,0.1-0.1c0.1,0,0.1,0.1,0.2,0.1c0.1,0,0.1-0.1,0.2-0.1
		c0.1-0.1,0.2,0,0.3,0c0.3-0.1,0.6-0.2,1-0.2c0.1,0,0.2,0.1,0.3,0.1c0.2,0,0.3-0.1,0.5-0.2c0.2,0,0.3,0.1,0.5,0c0,0,0.1-0.1,0.1-0.1
		c0.1,0,0.2,0.1,0.3,0.1c0.2,0,0.3-0.2,0.5-0.1c0.1-0.2,0.2,0,0.2-0.2c0.2,0.2,0.5,0.1,0.7-0.1c0.1,0.1,0.3,0,0.5,0
		C43.5,94.7,43.7,94.5,44,94.5z"/>
	<g>
		<rect x="67.7" y="87.5" class="st0" width="31.5" height="12.8"/>
		<path class="st1" d="M98.8,93.9c0,1.1,0,2.2,0,3.3c0,0.9,0,1.8,0,2.6c-0.3,0-0.5,0-0.7,0c-0.6,0-1.2,0-1.8,0
			c-1.4,0-2.9-0.1-4.3-0.1c-0.2,0-0.4,0.1-0.5,0.1c-1.1,0.1-2.5-0.1-3.7,0c-0.9,0-1.6,0-2.4,0c-0.6,0-1.2,0.1-1.7,0.1
			c-1.7,0.1-3.3,0-4.8,0c-1.1,0-2.3,0-3.5,0c-0.5,0-1,0-1.4,0c-0.2,0-0.4-0.1-0.5-0.1c-0.5,0-1.2,0-1.8,0c-0.9,0-1.7-0.2-2.2-0.1
			c-0.6,0-1.6,0.4-1.7,0.7c0,0.2,0.5,0.6,0.9,0.7c0.5,0.1,1.3,0.1,1.8,0.2c2.3-0.1,4.6-0.1,6.8-0.1c1.3,0,2.7,0,4.1,0.1
			c0.4,0,0.8-0.1,1.2-0.1c1.3,0,2.5,0.1,3.5,0c0.7-0.1,1.3,0,2.1,0c0.9,0,1.9-0.1,2.8-0.1c1.2,0.2,3.1,0,4.6,0.1c0.6,0,1.2,0,1.8,0
			c0.9,0,1.8,0,2.8,0c0-1.4,0-2.8-0.1-4.3c0-1.1,0-2.2,0-3.4c-0.1-0.9,0-1.9,0-2.7c0-0.4-0.1-0.9-0.1-1.4c0-0.3,0-0.7,0-1
			c0-0.6,0-1.2,0-1.8c-0.6,0-1.2,0-1.7,0c-0.3,0-0.6,0-0.9,0c-0.3,0-0.6,0.1-0.9,0.1c-0.3,0-0.5-0.1-0.8-0.1c-0.5,0-1,0-1.4,0.1
			c-1.6,0.1-2.9,0.1-4.1,0c-0.6,0.1-1.5,0.1-2.2,0.1c-1,0-1.9-0.1-2.9,0c-0.2,0-0.5,0.1-0.7,0.1c-1,0-2.3,0-3.1,0
			c-0.6,0-1.2,0.1-1.8,0.1c-0.2,0-0.5-0.1-0.7-0.1c-0.7,0-1.4,0.1-2,0.1c-1.1,0-2.4,0-3.6,0c-0.3,0-0.1,0.1-0.3,0.1
			c-0.7-0.1-1.4-0.2-2.2-0.2c-0.4,0-0.9,0-1.4,0c-0.6,0-1.3,0-1.9,0.1c0,0.6,0,1.1,0,1.6c0,0.6-0.1,1.2,0,1.7
			c-0.2,1.7-0.1,4.3,0,6.2c0.2,0.5,0.1,1.5,0.3,2c0,1.4,0.5,2.4,0.9,1.5c0.1-0.6,0.3-1,0.3-1.6c0-0.7-0.1-1.4-0.1-2.1
			c0-0.3,0.1-0.7,0.1-1c0-0.6-0.1-1.2-0.1-1.8c0-0.3,0.1-0.6,0.1-0.8c0-0.3-0.1-0.5-0.1-0.7c0-0.3,0.1-0.6,0.1-0.9
			c0-0.2-0.1-0.4-0.1-0.7c0-0.4,0-0.9,0-1.4l0-0.3c0-0.1,0-0.1,0-0.1l0-0.1l0.1,0l0.2,0c0.4,0,0.7,0,1.1-0.1
			c0.5,0.2,1.1,0.1,1.6,0.1c0.7,0,1.4,0.1,2.1,0.1c0.2,0,0.4-0.1,0.6-0.1c0.3,0,0.6,0.1,0.8,0.1c0.3,0,0.5-0.1,0.8-0.1
			c0.6,0,1.2,0,1.8,0c1.7,0,3.4-0.2,5.3-0.1c0.5,0,1,0.1,1.5,0.1c0.9,0,1.7-0.1,2.5-0.1c0.8,0,1.7,0.1,2.5,0c0.2,0,0.5-0.1,0.7-0.1
			c0.5,0,0.9,0.1,1.4,0.1c1,0,1.9-0.1,2.8-0.1c0.4-0.2,0.8,0,1.3-0.1c0.5,0.1,1.2,0.1,1.8,0.1l0.5,0c0.1,0,0.4,0,0.4,0
			c0.2,0,0.3-0.1,0.5-0.1c0,0,0,0.1,0,0.1c0,0.2,0,1.4,0,2.1C98.6,91.4,98.7,92.6,98.8,93.9z"/>
	</g>
	<path class="st1" d="M83.3,94.5c0.5-0.1,1,0,1.4,0c0.1,0,0.2-0.1,0.3,0c0.3,0.1,0.6,0.2,0.8,0.1c0,0,0.1-0.1,0.1-0.1
		c0.2-0.1,0.5,0.1,0.7,0c0.2-0.1,0.3,0.1,0.5,0c0.1,0,0.2-0.1,0.3-0.2c0.3-0.1,0.6,0,0.9,0c0.2,0,0.4,0,0.6,0c0.1,0,0.2,0,0.3,0
		c0,0,0.1,0.1,0.1,0.2c0.1,0.1,0.2,0,0.3,0c0.2,0.1,0.3,0.2,0.4,0.2c0.1-0.1,0.3-0.6,0.3-0.9c0-0.3-0.1-0.8-0.2-1
		c-0.1-0.2-0.2-0.1-0.3-0.3c-0.4,0.1-0.9,0.1-1.3,0.1c-0.2,0-0.5,0-0.8-0.1c-0.1,0-0.2,0.1-0.2,0.1c-0.2,0-0.5-0.1-0.6,0
		c-0.1,0.1-0.3,0-0.4,0c-0.2,0-0.4,0.1-0.5,0.2c-0.2-0.3-0.6,0-0.9-0.1c-0.6-0.2-1.3,0.2-1.9,0c-0.2,0.1-0.4,0-0.5,0
		c-0.1,0-0.2,0.1-0.3,0.1c-0.2,0.1-0.5-0.1-0.7,0c-0.1,0-0.1,0.1-0.2,0.1c-0.1,0-0.1-0.1-0.2-0.1c-0.1,0-0.2,0.1-0.3,0.1
		c-0.3,0.1-0.5,0.1-0.8,0C80.3,93,80.1,93,80,93c-0.2,0-0.4-0.1-0.5,0c0,0-0.1,0.1-0.1,0.1c-0.2,0.1-0.4,0-0.6,0
		c-0.1,0-0.2,0.1-0.3,0.1c0,0-0.1-0.1-0.1-0.1c-0.1,0-0.3,0.1-0.4,0.1c-0.2,0-0.5,0-0.7,0c0,0,0,0.2-0.1,0.2
		c-0.1-0.1-0.3-0.2-0.4-0.3c-0.2-0.1-0.5,0.1-0.7,0.1c-0.1,0-0.2-0.2-0.3,0c-0.3-0.3-0.8-0.1-1.2,0c-0.1,0.2-0.3,0.2-0.4,0.4
		c-0.3-0.1-0.5,0.6-0.3,1.2c0.1,0.1,0.2,0.3,0.3,0.3c0.1,0,0.3-0.2,0.4-0.2c0.1,0,0.1,0.1,0.2,0.1c0.1,0,0.2-0.1,0.3-0.1
		c0.1,0,0.1,0.1,0.2,0.1c0,0,0.1-0.1,0.1-0.1c0.1,0,0.1,0.1,0.2,0.1c0,0,0.1-0.1,0.1-0.1c0.3,0,0.7,0.3,0.9,0
		c0.1,0.3,0.2,0.1,0.3,0.1c0.1,0,0.3,0.2,0.4,0.2c0,0,0.1-0.1,0.1-0.1c0.1,0,0.1,0.1,0.2,0.1c0.1,0,0.1-0.1,0.2-0.1
		c0.1-0.1,0.2,0,0.3,0c0.3-0.1,0.6-0.2,1-0.2c0.1,0,0.2,0.1,0.3,0.1c0.2,0,0.3-0.1,0.5-0.2c0.2,0,0.3,0.1,0.5,0c0,0,0.1-0.1,0.1-0.1
		c0.1,0,0.2,0.1,0.3,0.1c0.2,0,0.3-0.2,0.5-0.1c0.1-0.2,0.2,0,0.2-0.2c0.2,0.2,0.5,0.1,0.7-0.1c0.1,0.1,0.3,0,0.5,0
		C82.9,94.7,83.1,94.5,83.3,94.5z"/>
	<g>
		<rect x="99.1" y="87.5" class="st0" width="31.5" height="12.8"/>
		<path class="st1" d="M130.2,93.9c0,1.1,0,2.2,0,3.3c0,0.9,0,1.8,0,2.6c-0.3,0-0.5,0-0.7,0c-0.6,0-1.2,0-1.8,0
			c-1.4,0-2.9-0.1-4.3-0.1c-0.2,0-0.4,0.1-0.5,0.1c-1.1,0.1-2.5-0.1-3.7,0c-0.9,0-1.6,0-2.4,0c-0.6,0-1.2,0.1-1.7,0.1
			c-1.7,0.1-3.3,0-4.8,0c-1.1,0-2.3,0-3.5,0c-0.5,0-1,0-1.4,0c-0.2,0-0.4-0.1-0.5-0.1c-0.5,0-1.2,0-1.8,0c-0.9,0-1.7-0.2-2.2-0.1
			c-0.6,0-1.6,0.4-1.7,0.7c0,0.2,0.5,0.6,0.9,0.7c0.5,0.1,1.3,0.1,1.8,0.2c2.3-0.1,4.6-0.1,6.8-0.1c1.3,0,2.7,0,4.1,0.1
			c0.4,0,0.8-0.1,1.2-0.1c1.3,0,2.5,0.1,3.5,0c0.7-0.1,1.3,0,2.1,0c0.9,0,1.9-0.1,2.8-0.1c1.2,0.2,3.1,0,4.6,0.1c0.6,0,1.2,0,1.8,0
			c0.9,0,1.8,0,2.8,0c0-1.4,0-2.8-0.1-4.3c0-1.1,0-2.2,0-3.4c-0.1-0.9,0-1.9,0-2.7c0-0.4-0.1-0.9-0.1-1.4c0-0.3,0-0.7,0-1
			c0-0.6,0-1.2,0-1.8c-0.6,0-1.2,0-1.7,0c-0.3,0-0.6,0-0.9,0c-0.3,0-0.6,0.1-0.9,0.1c-0.3,0-0.5-0.1-0.8-0.1c-0.5,0-1,0-1.4,0.1
			c-1.6,0.1-2.9,0.1-4.1,0c-0.6,0.1-1.5,0.1-2.2,0.1c-1,0-1.9-0.1-2.9,0c-0.2,0-0.5,0.1-0.7,0.1c-1,0-2.3,0-3.1,0
			c-0.6,0-1.2,0.1-1.8,0.1c-0.2,0-0.5-0.1-0.7-0.1c-0.7,0-1.4,0.1-2,0.1c-1.1,0-2.4,0-3.6,0c-0.3,0-0.1,0.1-0.3,0.1
			c-0.7-0.1-1.4-0.2-2.2-0.2c-0.4,0-0.9,0-1.4,0c-0.6,0-1.3,0-1.9,0.1c0,0.6,0,1.1,0,1.6c0,0.6-0.1,1.2,0,1.7
			c-0.2,1.7-0.1,4.3,0,6.2c0.2,0.5,0.1,1.5,0.3,2c0,1.4,0.5,2.4,0.9,1.5c0.1-0.6,0.3-1,0.3-1.6c0-0.7-0.1-1.4-0.1-2.1
			c0-0.3,0.1-0.7,0.1-1c0-0.6-0.1-1.2-0.1-1.8c0-0.3,0.1-0.6,0.1-0.8c0-0.3-0.1-0.5-0.1-0.7c0-0.3,0.1-0.6,0.1-0.9
			c0-0.2-0.1-0.4-0.1-0.7c0-0.4,0-0.9,0-1.4l0-0.3c0-0.1,0-0.1,0-0.1l0-0.1l0.1,0l0.2,0c0.4,0,0.7,0,1.1-0.1
			c0.5,0.2,1.1,0.1,1.6,0.1c0.7,0,1.4,0.1,2.1,0.1c0.2,0,0.4-0.1,0.6-0.1c0.3,0,0.6,0.1,0.8,0.1c0.3,0,0.5-0.1,0.8-0.1
			c0.6,0,1.2,0,1.8,0c1.7,0,3.4-0.2,5.3-0.1c0.5,0,1,0.1,1.5,0.1c0.9,0,1.7-0.1,2.5-0.1c0.8,0,1.7,0.1,2.5,0c0.2,0,0.5-0.1,0.7-0.1
			c0.5,0,0.9,0.1,1.4,0.1c1,0,1.9-0.1,2.8-0.1c0.4-0.2,0.8,0,1.3-0.1c0.5,0.1,1.2,0.1,1.8,0.1l0.5,0c0.1,0,0.4,0,0.4,0
			c0.2,0,0.3-0.1,0.5-0.1c0,0,0,0.1,0,0.1c0,0.2,0,1.4,0,2.1C130,91.4,130.1,92.6,130.2,93.9z"/>
	</g>
	<g>
		<rect x="214" y="87.5" class="st0" width="31.5" height="12.8"/>
		<path class="st1" d="M245,93.9c0,1.1,0,2.2,0,3.3c0,0.9,0,1.8,0,2.6c-0.3,0-0.5,0-0.7,0c-0.6,0-1.2,0-1.8,0
			c-1.4,0-2.9-0.1-4.3-0.1c-0.2,0-0.4,0.1-0.5,0.1c-1.1,0.1-2.5-0.1-3.7,0c-0.9,0-1.6,0-2.4,0c-0.6,0-1.2,0.1-1.7,0.1
			c-1.7,0.1-3.3,0-4.8,0c-1.1,0-2.3,0-3.5,0c-0.5,0-1,0-1.4,0c-0.2,0-0.4-0.1-0.5-0.1c-0.5,0-1.2,0-1.8,0c-0.9,0-1.7-0.2-2.2-0.1
			c-0.6,0-1.6,0.4-1.7,0.7c0,0.2,0.5,0.6,0.9,0.7c0.5,0.1,1.3,0.1,1.8,0.2c2.3-0.1,4.6-0.1,6.8-0.1c1.3,0,2.7,0,4.1,0.1
			c0.4,0,0.8-0.1,1.2-0.1c1.3,0,2.5,0.1,3.5,0c0.7-0.1,1.3,0,2.1,0c0.9,0,1.9-0.1,2.8-0.1c1.2,0.2,3.1,0,4.6,0.1c0.6,0,1.2,0,1.8,0
			c0.9,0,1.8,0,2.8,0c0-1.4,0-2.8-0.1-4.3c0-1.1,0-2.2,0-3.4c-0.1-0.9,0-1.9,0-2.7c0-0.4-0.1-0.9-0.1-1.4c0-0.3,0-0.7,0-1
			c0-0.6,0-1.2,0-1.8c-0.6,0-1.2,0-1.7,0c-0.3,0-0.6,0-0.9,0c-0.3,0-0.6,0.1-0.9,0.1c-0.3,0-0.5-0.1-0.8-0.1c-0.5,0-1,0-1.4,0.1
			c-1.6,0.1-2.9,0.1-4.1,0c-0.6,0.1-1.5,0.1-2.2,0.1c-1,0-1.9-0.1-2.9,0c-0.2,0-0.5,0.1-0.7,0.1c-1,0-2.3,0-3.1,0
			c-0.6,0-1.2,0.1-1.8,0.1c-0.2,0-0.5-0.1-0.7-0.1c-0.7,0-1.4,0.1-2,0.1c-1.1,0-2.4,0-3.6,0c-0.3,0-0.1,0.1-0.3,0.1
			c-0.7-0.1-1.4-0.2-2.2-0.2c-0.4,0-0.9,0-1.4,0c-0.6,0-1.3,0-1.9,0.1c0,0.6,0,1.1,0,1.6c0,0.6-0.1,1.2,0,1.7
			c-0.2,1.7-0.1,4.3,0,6.2c0.2,0.5,0.1,1.5,0.3,2c0,1.4,0.5,2.4,0.9,1.5c0.1-0.6,0.3-1,0.3-1.6c0-0.7-0.1-1.4-0.1-2.1
			c0-0.3,0.1-0.7,0.1-1c0-0.6-0.1-1.2-0.1-1.8c0-0.3,0.1-0.6,0.1-0.8c0-0.3-0.1-0.5-0.1-0.7c0-0.3,0.1-0.6,0.1-0.9
			c0-0.2-0.1-0.4-0.1-0.7c0-0.4,0-0.9,0-1.4l0-0.3c0-0.1,0-0.1,0-0.1l0-0.1l0.1,0l0.2,0c0.4,0,0.7,0,1.1-0.1
			c0.5,0.2,1.1,0.1,1.6,0.1c0.7,0,1.4,0.1,2.1,0.1c0.2,0,0.4-0.1,0.6-0.1c0.3,0,0.6,0.1,0.8,0.1c0.3,0,0.5-0.1,0.8-0.1
			c0.6,0,1.2,0,1.8,0c1.7,0,3.4-0.2,5.3-0.1c0.5,0,1,0.1,1.5,0.1c0.9,0,1.7-0.1,2.5-0.1c0.8,0,1.7,0.1,2.5,0c0.2,0,0.5-0.1,0.7-0.1
			c0.5,0,0.9,0.1,1.4,0.1c1,0,1.9-0.1,2.8-0.1c0.4-0.2,0.8,0,1.3-0.1c0.5,0.1,1.2,0.1,1.8,0.1l0.5,0c0.1,0,0.4,0,0.4,0
			c0.2,0,0.3-0.1,0.5-0.1c0,0,0,0.1,0,0.1c0,0.2,0,1.4,0,2.1C244.9,91.4,245,92.6,245,93.9z"/>
	</g>
	<path class="st1" d="M114.7,94.5c0.5-0.1,1,0,1.4,0c0.1,0,0.2-0.1,0.3,0c0.3,0.1,0.6,0.2,0.8,0.1c0,0,0.1-0.1,0.1-0.1
		c0.2-0.1,0.5,0.1,0.7,0c0.2-0.1,0.3,0.1,0.5,0c0.1,0,0.2-0.1,0.3-0.2c0.3-0.1,0.6,0,0.9,0c0.2,0,0.4,0,0.6,0c0.1,0,0.2,0,0.3,0
		c0,0,0.1,0.1,0.1,0.2c0.1,0.1,0.2,0,0.3,0c0.2,0.1,0.3,0.2,0.4,0.2c0.1-0.1,0.3-0.6,0.3-0.9c0-0.3-0.1-0.8-0.2-1
		c-0.1-0.2-0.2-0.1-0.3-0.3c-0.4,0.1-0.9,0.1-1.3,0.1c-0.2,0-0.5,0-0.8-0.1c-0.1,0-0.2,0.1-0.2,0.1c-0.2,0-0.5-0.1-0.6,0
		c-0.1,0.1-0.3,0-0.4,0c-0.2,0-0.4,0.1-0.5,0.2c-0.2-0.3-0.6,0-0.9-0.1c-0.6-0.2-1.3,0.2-1.9,0c-0.2,0.1-0.4,0-0.5,0
		c-0.1,0-0.2,0.1-0.3,0.1c-0.2,0.1-0.5-0.1-0.7,0c-0.1,0-0.1,0.1-0.2,0.1c-0.1,0-0.1-0.1-0.2-0.1c-0.1,0-0.2,0.1-0.3,0.1
		c-0.3,0.1-0.5,0.1-0.8,0c-0.1,0.1-0.3,0.1-0.4,0.1c-0.2,0-0.4-0.1-0.5,0c0,0-0.1,0.1-0.1,0.1c-0.2,0.1-0.4,0-0.6,0
		c-0.1,0-0.2,0.1-0.3,0.1c0,0-0.1-0.1-0.1-0.1c-0.1,0-0.3,0.1-0.4,0.1c-0.2,0-0.5,0-0.7,0c0,0,0,0.2-0.1,0.2
		c-0.1-0.1-0.3-0.2-0.4-0.3c-0.2-0.1-0.5,0.1-0.7,0.1c-0.1,0-0.2-0.2-0.3,0c-0.3-0.3-0.8-0.1-1.2,0c-0.1,0.2-0.3,0.2-0.4,0.4
		c-0.3-0.1-0.5,0.6-0.3,1.2c0.1,0.1,0.2,0.3,0.3,0.3c0.1,0,0.3-0.2,0.4-0.2c0.1,0,0.1,0.1,0.2,0.1c0.1,0,0.2-0.1,0.3-0.1
		c0.1,0,0.1,0.1,0.2,0.1c0,0,0.1-0.1,0.1-0.1c0.1,0,0.1,0.1,0.2,0.1c0,0,0.1-0.1,0.1-0.1c0.3,0,0.7,0.3,0.9,0
		c0.1,0.3,0.2,0.1,0.3,0.1c0.1,0,0.3,0.2,0.4,0.2c0,0,0.1-0.1,0.1-0.1c0.1,0,0.1,0.1,0.2,0.1c0.1,0,0.1-0.1,0.2-0.1
		c0.1-0.1,0.2,0,0.3,0c0.3-0.1,0.6-0.2,1-0.2c0.1,0,0.2,0.1,0.3,0.1c0.2,0,0.3-0.1,0.5-0.2c0.2,0,0.3,0.1,0.5,0c0,0,0.1-0.1,0.1-0.1
		c0.1,0,0.2,0.1,0.3,0.1c0.2,0,0.3-0.2,0.5-0.1c0.1-0.2,0.2,0,0.2-0.2c0.2,0.2,0.5,0.1,0.7-0.1c0.1,0.1,0.3,0,0.5,0
		C114.3,94.7,114.5,94.5,114.7,94.5z"/>
	<path class="st1" d="M199.5,79.4c0.1,2.5,0,5.3,0,7.3c0,0.6,0.1,1.2,0,1.7c-0.1,1.3-0.2,2.9-0.1,4.2c0,0.2,0.1,0.4,0.1,0.5
		c0.1,1.1-0.1,2.4,0,3.6c0.1,0.8-0.1,1.6,0,2.4c0,0.6,0.1,1.1,0.2,1.7c0.1,1.6,0,3.2,0,4.7c0,1.1,0,2.3,0,3.4c0,0.5,0,1,0,1.4
		c0,0.2-0.1,0.4-0.2,0.5c-0.1,0.4,0,1.1,0,1.8c-0.1,0.9-0.2,1.6-0.2,2.1c0.1,0.6,0.6,1.6,0.9,1.7c0.3,0,0.8-0.4,1-0.9
		c0.2-0.5,0.1-1.3,0.3-1.7c-0.1-2.2-0.1-4.5-0.1-6.6c0-1.3,0-2.7,0.1-4c0-0.4-0.1-0.8-0.1-1.2c0-1.3,0.1-2.5,0-3.4
		c-0.1-0.7,0-1.3,0-2c0-0.9-0.1-1.9-0.2-2.8c0.3-1.2,0-3.1,0.1-4.5c0.2-3.2-0.2-6.8,0-10.1c-0.1-0.9,0-1.9,0-2.6
		c0-0.4-0.1-0.8-0.1-1.3c-0.1-1.2,0.1-2.6,0-3.8c0-0.3-0.1-0.6-0.1-0.9c0-0.3,0.1-0.5,0.1-0.8c0-0.4-0.1-0.9-0.1-1.4
		c-0.1-1.6-0.1-2.8,0-4c-0.1-0.6-0.1-1.5-0.1-2.2c0-0.9,0.1-1.9,0-2.8c0-0.2-0.1-0.4-0.1-0.7c-0.1-0.9,0-2.2,0-3
		c0-0.6-0.1-1.1-0.1-1.7c0-0.2,0.1-0.5,0.1-0.7c0-0.6-0.1-1.3-0.1-2c0-1.1,0-2.3,0-3.5c0-0.3-0.2-0.1-0.2-0.3
		c0.1-0.7,0.2-1.4,0.3-2.2c0.1-1.2-0.1-2.5-0.1-3.8c0-0.6,0.2-1.2,0-1.7c0.3-1.7,0.1-4.2,0-6c-0.2-0.5-0.2-1.5-0.4-1.9
		c0.1-1.4-0.6-2.4-1.2-1.5c-0.1,0.6-0.3,0.9-0.3,1.6c0,0.7,0.2,1.4,0.2,2c0,0.3-0.1,0.7-0.1,1c0,0.5,0.1,1.1,0.1,1.7
		c0,0.3-0.1,0.5-0.1,0.8c0,0.3,0.1,0.5,0.1,0.7c0,0.3-0.1,0.6-0.1,0.9c0,0.2,0.1,0.4,0.1,0.7c0,1.6-0.3,3.5,0,4.8
		c-0.3,0.4-0.1,1-0.1,1.5c0,0.7-0.2,1.4-0.2,2c0,0.2,0.1,0.4,0.1,0.6c0,0.3-0.1,0.5-0.1,0.8c0,0.3,0.1,0.5,0.1,0.8
		c0.1,0.6,0,1.2,0,1.8c0.1,1.7,0.2,3.3,0.2,5.2c0,0.5-0.1,1-0.1,1.5c0,0.9,0.1,1.6,0.2,2.4c0,0.8-0.1,1.6,0,2.4
		c0,0.2,0.1,0.4,0.1,0.7c0,0.5-0.1,0.9-0.1,1.3c0,0.9,0.2,1.8,0.1,2.7c0.2,0.4,0,0.8,0.2,1.3c-0.2,1.1-0.1,2.8,0.1,3.8
		c-0.1,0.6,0,1.6,0,2.4C199.3,76.9,199.5,78.1,199.5,79.4z"/>
</g>
</svg>
